Blockbone-Black.ufo
<glyph name="quotedbl" format="2">
  <advance width="335.9113903438024"/>
  <unicode hex="0022"/>
  <outline>
    <contour>
      <point x="160.00569619338143" y="746" type="curve"/>
      <point x="160.00569619338143" y="747"/>
      <point x="29.005696193381425" y="693"/>
      <point x="30.005696193381425" y="693" type="curve" smooth="yes"/>
      <point x="71.00569619338143" y="625"/>
      <point x="80.00569619338143" y="589"/>
      <point x="39.005696193381425" y="437" type="curve"/>
      <point x="60.005696193381425" y="460" type="line"/>
      <point x="103.00569619338143" y="512"/>
      <point x="145.00569619338143" y="597"/>
      <point x="153.00569619338143" y="648" type="curve" smooth="yes"/>
      <point x="158.00569619338143" y="688"/>
      <point x="163.00569619338143" y="675"/>
    </contour>
    <contour>
      <point x="305.0056961933814" y="721" type="curve"/>
      <point x="305.0056961933814" y="722"/>
      <point x="174.00569619338143" y="668"/>
      <point x="175.00569619338143" y="668" type="curve" smooth="yes"/>
      <point x="216.00569619338143" y="600"/>
      <point x="225.00569619338143" y="564"/>
      <point x="184.00569619338143" y="412" type="curve"/>
      <point x="205.00569619338143" y="435" type="line"/>
      <point x="248.00569619338143" y="487"/>
      <point x="290.0056961933814" y="572"/>
      <point x="298.0056961933814" y="623" type="curve" smooth="yes"/>
      <point x="303.0056961933814" y="663"/>
      <point x="308.0056961933814" y="650"/>
    </contour>
  </outline>
</glyph>
<glyph name="ampersand" format="2">
  <advance width="542"/>
  <unicode hex="0026"/>
  <outline>
    <contour>
      <point x="482" y="295" type="line"/>
      <point x="393" y="317" type="line"/>
      <point x="385" y="294" type="line"/>
      <point x="383" y="287"/>
      <point x="381" y="275"/>
      <point x="373" y="257" type="curve" smooth="yes"/>
      <point x="372" y="256"/>
      <point x="355" y="211"/>
      <point x="354" y="212" type="curve" smooth="yes"/>
      <point x="318" y="248"/>
      <point x="265" y="320"/>
      <point x="267" y="322" type="curve" smooth="yes"/>
      <point x="296" y="345"/>
      <point x="369" y="425"/>
      <point x="368" y="510" type="curve" smooth="yes"/>
      <point x="366" y="644"/>
      <point x="270" y="663"/>
      <point x="246" y="667" type="curve" smooth="yes"/>
      <point x="222" y="671"/>
      <point x="134" y="677"/>
      <point x="95" y="541" type="curve" smooth="yes"/>
      <point x="89" y="521"/>
      <point x="74" y="471"/>
      <point x="129" y="357" type="curve"/>
      <point x="110" y="340"/>
      <point x="50" y="297"/>
      <point x="28" y="201" type="curve" smooth="yes"/>
      <point x="4" y="98"/>
      <point x="97" y="11"/>
      <point x="169" y="-2" type="curve" smooth="yes"/>
      <point x="295" y="-25"/>
      <point x="358" y="49"/>
      <point x="361" y="48" type="curve" smooth="yes"/>
      <point x="388" y="34"/>
      <point x="410" y="15"/>
      <point x="464" y="3" type="curve" smooth="yes"/>
      <point x="505" y="-6"/>
      <point x="491" y="-2"/>
      <point x="508" y="-3" type="curve"/>
      <point x="514" y="115" type="line"/>
      <point x="498" y="117"/>
      <point x="492" y="117"/>
      <point x="481" y="121" type="curve" smooth="yes"/>
      <point x="446" y="133"/>
      <point x="431" y="144"/>
      <point x="431" y="145" type="curve" smooth="yes"/>
      <point x="439" y="163"/>
      <point x="447" y="181"/>
      <point x="457" y="207" type="curve" smooth="yes"/>
      <point x="464" y="224"/>
      <point x="468" y="242"/>
      <point x="474" y="261" type="curve"/>
    </contour>
    <contour>
      <point x="232" y="577" type="curve"/>
      <point x="265" y="578"/>
      <point x="284" y="543"/>
      <point x="280" y="507" type="curve" smooth="yes"/>
      <point x="274" y="451"/>
      <point x="222" y="409"/>
      <point x="216" y="419" type="curve" smooth="yes"/>
      <point x="191" y="461"/>
      <point x="191" y="474"/>
      <point x="188" y="494" type="curve" smooth="yes"/>
      <point x="180" y="538"/>
      <point x="196" y="582"/>
    </contour>
    <contour>
      <point x="173" y="260" type="curve"/>
      <point x="284" y="119" type="line"/>
      <point x="276" y="109"/>
      <point x="268" y="100"/>
      <point x="242" y="96" type="curve" smooth="yes"/>
      <point x="206" y="91"/>
      <point x="169" y="109"/>
      <point x="153" y="142" type="curve" smooth="yes"/>
      <point x="136" y="175"/>
      <point x="134" y="199"/>
      <point x="141" y="216" type="curve" smooth="yes"/>
      <point x="154" y="246"/>
      <point x="158" y="245"/>
    </contour>
  </outline>
</glyph>
<glyph name="quotesingle" format="2">
  <advance width="198.92109865619568"/>
  <unicode hex="0027"/>
  <outline>
    <contour>
      <point x="124" y="815" type="curve"/>
      <point x="124" y="816"/>
      <point x="5" y="741"/>
      <point x="6" y="740" type="curve" smooth="yes"/>
      <point x="59" y="680"/>
      <point x="73" y="646"/>
      <point x="59" y="490" type="curve"/>
      <point x="76" y="516" type="line"/>
      <point x="110" y="575"/>
      <point x="136" y="665"/>
      <point x="135" y="718" type="curve" smooth="yes"/>
      <point x="134" y="757"/>
      <point x="140" y="746"/>
    </contour>
  </outline>
</glyph>
<glyph name="parenleft" format="2">
  <advance width="500"/>
  <unicode hex="0028"/>
  <outline>
    <contour>
      <point x="270" y="761" type="curve"/>
      <point x="250" y="791" type="line"/>
      <point x="220" y="771"/>
      <point x="8" y="633"/>
      <point x="8" y="630" type="curve" smooth="yes"/>
      <point x="13" y="566"/>
      <point x="20" y="281"/>
      <point x="20" y="265" type="curve" smooth="yes"/>
      <point x="18" y="110"/>
      <point x="79" y="-122"/>
      <point x="155" y="-153" type="curve" smooth="yes"/>
      <point x="171" y="-160"/>
      <point x="215" y="-164"/>
      <point x="241" y="-81" type="curve" smooth="yes"/>
      <point x="243" y="-74"/>
      <point x="145" y="-56"/>
      <point x="144" y="179" type="curve" smooth="yes"/>
      <point x="144" y="226"/>
      <point x="144" y="438"/>
      <point x="151" y="469" type="curve" smooth="yes"/>
      <point x="161" y="514"/>
      <point x="166" y="682"/>
    </contour>
  </outline>
</glyph>
<glyph name="asterisk" format="2">
  <advance width="500"/>
  <unicode hex="002A"/>
  <outline>
    <contour>
      <point x="296" y="616" type="curve"/>
      <point x="275" y="608"/>
      <point x="223" y="536"/>
      <point x="213" y="528" type="curve" smooth="yes"/>
      <point x="209" y="524"/>
      <point x="180" y="487"/>
      <point x="180" y="488" type="curve"/>
      <point x="168" y="474"/>
      <point x="156" y="465"/>
      <point x="154" y="461" type="curve" smooth="yes"/>
      <point x="150" y="454"/>
      <point x="130" y="436"/>
      <point x="127" y="432" type="curve" smooth="yes"/>
      <point x="114" y="415"/>
      <point x="106" y="408"/>
      <point x="94" y="396" type="curve" smooth="yes"/>
      <point x="83" y="385"/>
      <point x="73" y="377"/>
      <point x="55" y="352" type="curve"/>
      <point x="50" y="346"/>
      <point x="41" y="338"/>
      <point x="29" y="327" type="curve" smooth="yes"/>
      <point x="11" y="311"/>
      <point x="3" y="304"/>
      <point x="6" y="301" type="curve" smooth="yes"/>
      <point x="47" y="267"/>
      <point x="115" y="212"/>
      <point x="121" y="207" type="curve" smooth="yes"/>
      <point x="131" y="200"/>
      <point x="145" y="188"/>
      <point x="145" y="187" type="curve" smooth="yes"/>
      <point x="158" y="169"/>
      <point x="196" y="134"/>
      <point x="210" y="120" type="curve" smooth="yes"/>
      <point x="220" y="110"/>
      <point x="259" y="62"/>
      <point x="262" y="16" type="curve" smooth="yes"/>
      <point x="263" y="8"/>
      <point x="324" y="83"/>
      <point x="331" y="92" type="curve" smooth="yes"/>
      <point x="363" y="131"/>
      <point x="398" y="170"/>
      <point x="409" y="182" type="curve" smooth="yes"/>
      <point x="423" y="197"/>
      <point x="417" y="190"/>
      <point x="429" y="204" type="curve" smooth="yes"/>
      <point x="446" y="223"/>
      <point x="458" y="234"/>
      <point x="474" y="254" type="curve" smooth="yes"/>
      <point x="508" y="297"/>
      <point x="532" y="318"/>
      <point x="532" y="319" type="curve" smooth="yes"/>
      <point x="531" y="324"/>
      <point x="502" y="356"/>
      <point x="500" y="358" type="curve" smooth="yes"/>
      <point x="493" y="365"/>
      <point x="486" y="374"/>
      <point x="477" y="383" type="curve" smooth="yes"/>
      <point x="469" y="390"/>
      <point x="457" y="405"/>
      <point x="454" y="407" type="curve" smooth="yes"/>
      <point x="447" y="412"/>
      <point x="436" y="422"/>
      <point x="411" y="452" type="curve" smooth="yes"/>
      <point x="402" y="463"/>
      <point x="394" y="468"/>
      <point x="390" y="473" type="curve" smooth="yes"/>
      <point x="369" y="499"/>
      <point x="360" y="506"/>
      <point x="342" y="531" type="curve" smooth="yes"/>
      <point x="324" y="556"/>
      <point x="302" y="618"/>
    </contour>
    <contour>
      <point x="387" y="472" type="line"/>
      <point x="406" y="451" type="line"/>
      <point x="287" y="334" type="line"/>
      <point x="427" y="205" type="line"/>
      <point x="408" y="183" type="line"/>
      <point x="266" y="312" type="line"/>
      <point x="143" y="191" type="line"/>
      <point x="122" y="210" type="line"/>
      <point x="244" y="332" type="line"/>
      <point x="131" y="436" type="line"/>
      <point x="151" y="457" type="line"/>
      <point x="267" y="352" type="line"/>
    </contour>
  </outline>
</glyph>
<glyph name="plus" format="2">
  <advance width="650"/>
  <unicode hex="002B"/>
  <outline>
    <contour>
      <point x="386" y="629" type="line"/>
      <point x="190" y="459" type="line"/>
      <point x="200" y="463"/>
      <point x="208" y="469"/>
      <point x="235" y="447" type="curve"/>
      <point x="239" y="436"/>
      <point x="236" y="378"/>
      <point x="235" y="378" type="curve" smooth="yes"/>
      <point x="220" y="374"/>
      <point x="178" y="376"/>
      <point x="166" y="378" type="curve" smooth="yes"/>
      <point x="158" y="379"/>
      <point x="153" y="391"/>
      <point x="152" y="417" type="curve"/>
      <point x="3" y="229" type="line"/>
      <point x="236" y="228" type="line"/>
      <point x="232" y="-3" type="line"/>
      <point x="439" y="143" type="line"/>
      <point x="417" y="147"/>
      <point x="403" y="140"/>
      <point x="389" y="160" type="curve" smooth="yes"/>
      <point x="376" y="179"/>
      <point x="385" y="228"/>
      <point x="385" y="228" type="curve" smooth="yes"/>
      <point x="386" y="228"/>
      <point x="439" y="231"/>
      <point x="451" y="224" type="curve" smooth="yes"/>
      <point x="473" y="212"/>
      <point x="463" y="199"/>
      <point x="469" y="170" type="curve"/>
      <point x="616" y="374" type="line"/>
      <point x="382" y="377" type="line"/>
    </contour>
  </outline>
</glyph>
<glyph name="hyphen" format="2">
  <advance width="550"/>
  <unicode hex="002D"/>
  <outline>
    <contour>
      <point x="410" y="405" type="line"/>
      <point x="390" y="395"/>
      <point x="368" y="366"/>
      <point x="309" y="369" type="curve" smooth="yes"/>
      <point x="281" y="370"/>
      <point x="159" y="365"/>
      <point x="159" y="365" type="curve" smooth="yes"/>
      <point x="102" y="354"/>
      <point x="100" y="402"/>
      <point x="100" y="402" type="curve" smooth="yes"/>
      <point x="96" y="391"/>
      <point x="35" y="239"/>
      <point x="13" y="187" type="curve" smooth="yes"/>
      <point x="12" y="186"/>
      <point x="43" y="228"/>
      <point x="125" y="222" type="curve" smooth="yes"/>
      <point x="126" y="222"/>
      <point x="216" y="228"/>
      <point x="305" y="224" type="curve"/>
    </contour>
  </outline>
</glyph>
<glyph name="period" format="2">
  <advance width="266.0127483120731"/>
  <unicode hex="002E"/>
  <outline>
    <contour>
      <point x="246.00637423310337" y="133" type="curve" smooth="yes"/>
      <point x="240" y="140"/>
      <point x="137.00637423310337" y="245"/>
      <point x="135.00637423310337" y="247" type="curve" smooth="yes"/>
      <point x="134.00637423310337" y="248"/>
      <point x="20.00637423310338" y="136"/>
      <point x="20.00637423310338" y="134" type="curve" smooth="yes"/>
      <point x="19.00637423310338" y="128"/>
      <point x="136.00637423310337" y="16"/>
      <point x="132.00637423310337" y="15" type="curve" smooth="yes"/>
      <point x="130.00637423310337" y="15"/>
      <point x="247" y="132"/>
    </contour>
  </outline>
</glyph>
<glyph name="zero" format="2">
  <advance width="500"/>
  <unicode hex="0030"/>
  <outline>
    <contour>
      <point x="130" y="553" type="curve"/>
      <point x="166" y="581"/>
      <point x="202" y="571"/>
      <point x="221" y="556" type="curve"/>
      <point x="276" y="494" type="line"/>
      <point x="327" y="412"/>
      <point x="330" y="408"/>
      <point x="362" y="303" type="curve"/>
      <point x="367" y="297"/>
      <point x="377" y="253"/>
      <point x="337" y="214" type="curve"/>
      <point x="304" y="191"/>
      <point x="291" y="187"/>
      <point x="243" y="218" type="curve"/>
      <point x="236" y="223"/>
      <point x="209" y="249"/>
      <point x="178" y="301" type="curve"/>
      <point x="169" y="308"/>
      <point x="145" y="355"/>
      <point x="106" y="441" type="curve"/>
      <point x="102" y="448"/>
      <point x="97" y="532"/>
    </contour>
    <contour>
      <point x="247" y="731" type="curve"/>
      <point x="206" y="722"/>
      <point x="210" y="718"/>
      <point x="180" y="692" type="curve"/>
      <point x="170" y="686"/>
      <point x="145" y="657"/>
      <point x="92" y="591" type="curve"/>
      <point x="86" y="582"/>
      <point x="64" y="553"/>
      <point x="34" y="479" type="curve"/>
      <point x="25" y="455"/>
      <point x="17" y="422"/>
      <point x="18" y="345" type="curve"/>
      <point x="22" y="296"/>
      <point x="31" y="276"/>
      <point x="59" y="207" type="curve"/>
      <point x="77" y="172"/>
      <point x="90" y="149"/>
      <point x="142" y="85" type="curve"/>
      <point x="180" y="42"/>
      <point x="190" y="23"/>
      <point x="231" y="15" type="curve"/>
      <point x="284" y="15"/>
      <point x="301" y="48"/>
      <point x="347" y="91" type="curve"/>
      <point x="372" y="118"/>
      <point x="388" y="134"/>
      <point x="439" y="213" type="curve"/>
      <point x="445" y="218"/>
      <point x="469" y="266"/>
      <point x="487" y="361" type="curve"/>
      <point x="492" y="412"/>
      <point x="491" y="432"/>
      <point x="454" y="520" type="curve"/>
      <point x="437" y="547"/>
      <point x="425" y="572"/>
      <point x="379" y="628" type="curve"/>
      <point x="328" y="672"/>
      <point x="313" y="715"/>
    </contour>
  </outline>
</glyph>
<glyph name="one" format="2">
  <advance width="370"/>
  <unicode hex="0031"/>
  <outline>
    <contour>
      <point x="0" y="581" type="curve"/>
      <point x="9" y="540" type="line"/>
      <point x="185" y="539" type="line"/>
      <point x="206" y="432"/>
      <point x="219" y="67"/>
      <point x="73" y="29" type="curve"/>
      <point x="99" y="-9" type="line"/>
      <point x="99" y="-8"/>
      <point x="241" y="59"/>
      <point x="332" y="59" type="curve"/>
      <point x="335" y="59" type="line"/>
      <point x="337" y="164" type="line"/>
      <point x="340" y="249" type="line"/>
      <point x="342" y="249"/>
      <point x="340" y="421"/>
      <point x="337" y="554" type="curve"/>
      <point x="339" y="713" type="line"/>
      <point x="335" y="724" type="line"/>
      <point x="221" y="643"/>
      <point x="104" y="604"/>
    </contour>
  </outline>
</glyph>
<glyph name="two" format="2">
  <advance width="600"/>
  <unicode hex="0032"/>
  <outline>
    <contour>
      <point x="281" y="698" type="curve"/>
      <point x="228" y="697"/>
      <point x="230" y="692"/>
      <point x="192" y="670" type="curve"/>
      <point x="161" y="647"/>
      <point x="158" y="639"/>
      <point x="107" y="588" type="curve"/>
      <point x="82" y="548"/>
      <point x="39" y="518"/>
      <point x="48" y="445" type="curve"/>
      <point x="59" y="401"/>
      <point x="112" y="347"/>
      <point x="158" y="303" type="curve"/>
      <point x="190" y="340"/>
      <point x="216" y="385"/>
      <point x="258" y="441" type="curve"/>
      <point x="226" y="461"/>
      <point x="216" y="466"/>
      <point x="181" y="495" type="curve"/>
      <point x="169" y="513"/>
      <point x="150" y="531"/>
      <point x="158" y="559" type="curve"/>
      <point x="164" y="571"/>
      <point x="191" y="586"/>
      <point x="235" y="553" type="curve"/>
      <point x="254" y="538"/>
      <point x="257" y="537"/>
      <point x="290" y="506" type="curve"/>
      <point x="301" y="493"/>
      <point x="324" y="471"/>
      <point x="318" y="413" type="curve"/>
      <point x="309" y="375"/>
      <point x="307" y="376"/>
      <point x="284" y="323" type="curve"/>
      <point x="259" y="283"/>
      <point x="262" y="283"/>
      <point x="214" y="224" type="curve"/>
      <point x="189" y="191"/>
      <point x="169" y="174"/>
      <point x="88" y="88" type="curve"/>
      <point x="74" y="75"/>
      <point x="49" y="50"/>
      <point x="13" y="17" type="curve"/>
      <point x="78" y="18"/>
      <point x="270" y="46"/>
      <point x="447" y="16" type="curve"/>
      <point x="457" y="14" type="line"/>
      <point x="496" y="231" type="line"/>
      <point x="476" y="243" type="line"/>
      <point x="463" y="215"/>
      <point x="460" y="204"/>
      <point x="424" y="184" type="curve"/>
      <point x="397" y="176"/>
      <point x="392" y="174"/>
      <point x="267" y="176" type="curve" smooth="yes"/>
      <point x="265" y="176"/>
      <point x="257" y="176"/>
      <point x="257" y="177" type="curve"/>
      <point x="286" y="205"/>
      <point x="302" y="224"/>
      <point x="327" y="254" type="curve"/>
      <point x="372" y="301"/>
      <point x="404" y="344"/>
      <point x="447" y="398" type="curve"/>
      <point x="465" y="436"/>
      <point x="487" y="454"/>
      <point x="466" y="539" type="curve"/>
      <point x="451" y="562"/>
      <point x="453" y="574"/>
      <point x="412" y="614" type="curve"/>
      <point x="395" y="632"/>
      <point x="346" y="679"/>
    </contour>
  </outline>
</glyph>
<glyph name="five" format="2">
  <advance width="500"/>
  <unicode hex="0035"/>
  <outline>
    <contour>
      <point x="381" y="633" type="curve"/>
      <point x="423" y="699" type="line"/>
      <point x="331" y="692"/>
      <point x="164" y="713"/>
      <point x="140" y="723" type="curve" smooth="yes"/>
      <point x="139" y="724"/>
      <point x="129" y="548"/>
      <point x="91" y="446" type="curve"/>
      <point x="65" y="371" type="line"/>
      <point x="130" y="378"/>
      <point x="136" y="375"/>
      <point x="146" y="374" type="curve" smooth="yes"/>
      <point x="158" y="372"/>
      <point x="197" y="367"/>
      <point x="222" y="358" type="curve" smooth="yes"/>
      <point x="259" y="345"/>
      <point x="281" y="350"/>
      <point x="305" y="307" type="curve" smooth="yes"/>
      <point x="318" y="283"/>
      <point x="330" y="275"/>
      <point x="321" y="228" type="curve" smooth="yes"/>
      <point x="310" y="165"/>
      <point x="277" y="127"/>
      <point x="262" y="125" type="curve" smooth="yes"/>
      <point x="208" y="119"/>
      <point x="196" y="140"/>
      <point x="153" y="168" type="curve" smooth="yes"/>
      <point x="139" y="177"/>
      <point x="65" y="248"/>
      <point x="46" y="274" type="curve" smooth="yes"/>
      <point x="45" y="275"/>
      <point x="9" y="101"/>
      <point x="10" y="100" type="curve" smooth="yes"/>
      <point x="26" y="87"/>
      <point x="33" y="75"/>
      <point x="47" y="65" type="curve" smooth="yes"/>
      <point x="95" y="32"/>
      <point x="86" y="35"/>
      <point x="110" y="27" type="curve" smooth="yes"/>
      <point x="150" y="13"/>
      <point x="194" y="12"/>
      <point x="195" y="12" type="curve" smooth="yes"/>
      <point x="257" y="29"/>
      <point x="287" y="55"/>
      <point x="314" y="84" type="curve" smooth="yes"/>
      <point x="346" y="118"/>
      <point x="377" y="161"/>
      <point x="403" y="198" type="curve" smooth="yes"/>
      <point x="420" y="222"/>
      <point x="449" y="301"/>
      <point x="438" y="344" type="curve" smooth="yes"/>
      <point x="438" y="345"/>
      <point x="437" y="435"/>
      <point x="306" y="492" type="curve"/>
      <point x="240" y="513" type="line"/>
      <point x="169" y="528" type="line"/>
      <point x="170" y="547"/>
      <point x="172" y="578"/>
      <point x="172" y="578" type="curve" smooth="yes"/>
      <point x="248" y="570"/>
      <point x="246" y="566"/>
      <point x="267" y="564" type="curve" smooth="yes"/>
      <point x="308" y="559"/>
      <point x="338" y="564"/>
      <point x="342" y="564" type="curve" smooth="yes"/>
      <point x="344" y="564"/>
      <point x="355" y="584"/>
    </contour>
  </outline>
</glyph>
<glyph name="seven" format="2">
  <advance width="500"/>
  <unicode hex="0037"/>
  <outline>
    <contour>
      <point x="105" y="692" type="line"/>
      <point x="10" y="690" type="line"/>
      <point x="15" y="485" type="line"/>
      <point x="56" y="479" type="line"/>
      <point x="53" y="523"/>
      <point x="61" y="543"/>
      <point x="100" y="557" type="curve" smooth="yes"/>
      <point x="119" y="564"/>
      <point x="160" y="550"/>
      <point x="333" y="558" type="curve"/>
      <point x="261" y="422" type="line"/>
      <point x="227" y="345"/>
      <point x="102" y="141"/>
      <point x="82" y="33" type="curve" smooth="yes"/>
      <point x="81" y="30"/>
      <point x="142" y="27"/>
      <point x="158" y="25" type="curve" smooth="yes"/>
      <point x="185" y="21"/>
      <point x="264" y="14"/>
      <point x="264" y="14" type="curve" smooth="yes"/>
      <point x="271" y="78"/>
      <point x="263" y="188"/>
      <point x="332" y="398" type="curve"/>
      <point x="400" y="556" type="line"/>
      <point x="425" y="599"/>
      <point x="478" y="680"/>
      <point x="478" y="680" type="curve" smooth="yes"/>
      <point x="346" y="684"/>
      <point x="308" y="686"/>
      <point x="270" y="686" type="curve" smooth="yes"/>
      <point x="224" y="686"/>
      <point x="194" y="687"/>
      <point x="165" y="689" type="curve"/>
    </contour>
  </outline>
</glyph>
<glyph name="nine" format="2">
  <advance width="500"/>
  <unicode hex="0039"/>
  <outline>
    <contour>
      <point x="250" y="736" type="curve"/>
      <point x="217" y="733"/>
      <point x="166" y="698"/>
      <point x="124" y="664" type="curve" smooth="yes"/>
      <point x="99" y="643"/>
      <point x="30" y="576"/>
      <point x="27" y="465" type="curve" smooth="yes"/>
      <point x="25" y="403"/>
      <point x="46" y="347"/>
      <point x="120" y="283" type="curve" smooth="yes"/>
      <point x="158" y="251"/>
      <point x="182" y="229"/>
      <point x="187" y="233" type="curve" smooth="yes"/>
      <point x="246" y="285"/>
      <point x="273" y="304"/>
      <point x="321" y="337" type="curve"/>
      <point x="323" y="300"/>
      <point x="316" y="265"/>
      <point x="298" y="218" type="curve" smooth="yes"/>
      <point x="289" y="193"/>
      <point x="278" y="178"/>
      <point x="264" y="159" type="curve" smooth="yes"/>
      <point x="249" y="139"/>
      <point x="249" y="134"/>
      <point x="209" y="109" type="curve" smooth="yes"/>
      <point x="199" y="103"/>
      <point x="186" y="93"/>
      <point x="158" y="84" type="curve" smooth="yes"/>
      <point x="138" y="77"/>
      <point x="125" y="73"/>
      <point x="126" y="72" type="curve" smooth="yes"/>
      <point x="165" y="56"/>
      <point x="198" y="33"/>
      <point x="236" y="17" type="curve" smooth="yes"/>
      <point x="239" y="16"/>
      <point x="284" y="74"/>
      <point x="340" y="163" type="curve"/>
      <point x="377" y="224"/>
      <point x="407" y="265"/>
      <point x="427" y="376" type="curve" smooth="yes"/>
      <point x="435" y="421"/>
      <point x="446" y="485"/>
      <point x="416" y="561" type="curve" smooth="yes"/>
      <point x="404" y="591"/>
      <point x="376" y="633"/>
      <point x="341" y="670" type="curve" smooth="yes"/>
      <point x="314" y="699"/>
      <point x="283" y="736"/>
    </contour>
    <contour>
      <point x="136" y="614" type="curve"/>
      <point x="164" y="635"/>
      <point x="219" y="605"/>
      <point x="237" y="585" type="curve" smooth="yes"/>
      <point x="265" y="554"/>
      <point x="285" y="542"/>
      <point x="302" y="471" type="curve" smooth="yes"/>
      <point x="308" y="446"/>
      <point x="318" y="409"/>
      <point x="321" y="392" type="curve" smooth="yes"/>
      <point x="321" y="392"/>
      <point x="311" y="384"/>
      <point x="311" y="384" type="curve" smooth="yes"/>
      <point x="297" y="370"/>
      <point x="264" y="368"/>
      <point x="250" y="369" type="curve" smooth="yes"/>
      <point x="210" y="372"/>
      <point x="199" y="379"/>
      <point x="191" y="392" type="curve" smooth="yes"/>
      <point x="173" y="420"/>
      <point x="165" y="419"/>
      <point x="152" y="459" type="curve" smooth="yes"/>
      <point x="141" y="492"/>
      <point x="137" y="494"/>
      <point x="131" y="549" type="curve" smooth="yes"/>
      <point x="125" y="601"/>
      <point x="132" y="618"/>
    </contour>
  </outline>
</glyph>
<glyph name="less" format="2">
  <advance width="550"/>
  <unicode hex="003C"/>
  <outline>
    <contour>
      <point x="308" y="546" type="line"/>
      <point x="23" y="281" type="line"/>
      <point x="23" y="280" type="line"/>
      <point x="308" y="11" type="line"/>
      <point x="382" y="88" type="line"/>
      <point x="166" y="287" type="line"/>
      <point x="379" y="477" type="line"/>
    </contour>
  </outline>
</glyph>
<glyph name="greater" format="2">
  <advance width="500"/>
  <unicode hex="003E"/>
  <outline>
    <contour>
      <point x="89" y="13" type="line"/>
      <point x="375" y="281" type="line"/>
      <point x="375" y="281" type="line"/>
      <point x="87" y="545" type="line"/>
      <point x="14" y="474" type="line"/>
      <point x="233" y="277" type="line"/>
      <point x="18" y="84" type="line"/>
    </contour>
  </outline>
</glyph>
<glyph name="A" format="2">
  <advance width="816.2857142857143"/>
  <unicode hex="0041"/>
  <outline>
    <contour>
      <point x="336" y="613" type="qcurve"/>
      <point x="234" y="538"/>
      <point x="119" y="481" type="qcurve"/>
      <point x="155" y="409"/>
      <point x="155" y="242"/>
      <point x="114" y="70"/>
      <point x="86" y="-7" type="qcurve" smooth="yes"/>
      <point x="66" y="-64"/>
      <point x="30" y="-110" type="qcurve" smooth="yes"/>
      <point x="17" y="-128"/>
      <point x="1" y="-144" type="qcurve"/>
      <point x="17" y="-154"/>
      <point x="38" y="-170" type="qcurve"/>
      <point x="65" y="-144"/>
      <point x="94" y="-110" type="qcurve" smooth="yes"/>
      <point x="142" y="-55"/>
      <point x="197" y="22" type="qcurve" smooth="yes"/>
      <point x="285" y="144"/>
      <point x="303" y="320" type="qcurve"/>
      <point x="488" y="320" type="line"/>
      <point x="488" y="194"/>
      <point x="477" y="116" type="qcurve"/>
      <point x="539" y="62" type="line"/>
      <point x="590" y="19" type="line"/>
      <point x="677" y="139" type="line"/>
      <point x="648" y="163" type="line"/>
      <point x="627" y="180" type="line" smooth="yes"/>
      <point x="616" y="189"/>
      <point x="616" y="221" type="qcurve" smooth="yes"/>
      <point x="612" y="487" type="line"/>
      <point x="612" y="514" type="line" smooth="yes"/>
      <point x="612" y="531"/>
      <point x="616" y="540" type="qcurve"/>
      <point x="626" y="558"/>
      <point x="659" y="585"/>
      <point x="670" y="603" type="qcurve"/>
      <point x="502" y="706"/>
      <point x="303" y="767" type="qcurve"/>
      <point x="152" y="706"/>
      <point x="21" y="598" type="qcurve"/>
      <point x="20" y="594"/>
      <point x="27" y="551"/>
      <point x="27" y="546" type="qcurve"/>
      <point x="123" y="626"/>
      <point x="239" y="626" type="qcurve" smooth="yes"/>
      <point x="286" y="626"/>
    </contour>
    <contour>
      <point x="486" y="436" type="qcurve"/>
      <point x="308" y="436" type="line"/>
      <point x="312" y="503"/>
      <point x="347" y="571"/>
      <point x="383" y="597" type="qcurve"/>
      <point x="441" y="572"/>
      <point x="486" y="540" type="qcurve"/>
      <point x="486" y="523"/>
      <point x="486" y="496"/>
    </contour>
  </outline>
</glyph>
<glyph name="B" format="2">
  <advance width="900"/>
  <unicode hex="0042"/>
  <outline>
    <contour>
      <point x="92" y="577" type="line"/>
      <point x="392" y="748" type="line"/>
      <point x="533" y="690" type="line"/>
      <point x="642" y="612" type="line"/>
      <point x="531" y="537" type="line"/>
      <point x="599" y="469" type="line"/>
      <point x="656" y="393" type="line"/>
      <point x="676" y="338" type="line"/>
      <point x="681" y="315" type="line"/>
      <point x="652" y="247" type="line" smooth="yes"/>
      <point x="634" y="205"/>
      <point x="581" y="164"/>
      <point x="532" y="123" type="curve" smooth="yes"/>
      <point x="481" y="81"/>
      <point x="429" y="49"/>
      <point x="405" y="38" type="curve" smooth="yes"/>
      <point x="332" y="6" type="line"/>
      <point x="272" y="58" type="line"/>
      <point x="209" y="88" type="line"/>
      <point x="122" y="126" type="line"/>
      <point x="19" y="146" type="line"/>
      <point x="138" y="232" type="line"/>
      <point x="147" y="483" type="line"/>
    </contour>
    <contour>
      <point x="411" y="575" type="line" smooth="yes"/>
      <point x="400" y="583"/>
      <point x="386" y="594"/>
      <point x="375" y="599" type="curve" smooth="yes"/>
      <point x="360" y="606"/>
      <point x="335" y="619"/>
      <point x="337" y="622" type="curve" smooth="yes"/>
      <point x="338" y="625"/>
      <point x="294" y="633"/>
      <point x="294" y="631" type="curve"/>
      <point x="293" y="546" type="line"/>
      <point x="294" y="458" type="line"/>
      <point x="352" y="483" type="line"/>
      <point x="394" y="519" type="line"/>
      <point x="446" y="551" type="line"/>
    </contour>
    <contour>
      <point x="251" y="248" type="line"/>
      <point x="444" y="115" type="line"/>
      <point x="493" y="165" type="line"/>
      <point x="517" y="229" type="line"/>
      <point x="523" y="276" type="line"/>
      <point x="508" y="344" type="line"/>
      <point x="435" y="409" type="line"/>
      <point x="369" y="427" type="line"/>
      <point x="299" y="403" type="line"/>
      <point x="299" y="272" type="line"/>
    </contour>
  </outline>
</glyph>
<glyph name="E" format="2">
  <advance width="700"/>
  <unicode hex="0045"/>
  <outline>
    <contour>
      <point x="191" y="627" type="line"/>
      <point x="4" y="520" type="line"/>
      <point x="13" y="427" type="line"/>
      <point x="33" y="329" type="line"/>
      <point x="58" y="272" type="line"/>
      <point x="77" y="216" type="line"/>
      <point x="98" y="177" type="line"/>
      <point x="120" y="157" type="line"/>
      <point x="142" y="131" type="line"/>
      <point x="170" y="113" type="line"/>
      <point x="201" y="92" type="line"/>
      <point x="228" y="76" type="line"/>
      <point x="259" y="64" type="line"/>
      <point x="302" y="45" type="line"/>
      <point x="374" y="25" type="line"/>
      <point x="443" y="14" type="line"/>
      <point x="495" y="86" type="line"/>
      <point x="548" y="160" type="line"/>
      <point x="390" y="169" type="line"/>
      <point x="256" y="233" type="line"/>
      <point x="216" y="283" type="line"/>
      <point x="174" y="353" type="line"/>
      <point x="157" y="442" type="line"/>
      <point x="159" y="515" type="line"/>
      <point x="171" y="545" type="line"/>
      <point x="197" y="571" type="line"/>
      <point x="235" y="607" type="line"/>
      <point x="241" y="571" type="line"/>
      <point x="240" y="509" type="line"/>
      <point x="239" y="411" type="line"/>
      <point x="252" y="298" type="line"/>
      <point x="222" y="281" type="line"/>
      <point x="252" y="239" type="line"/>
      <point x="288" y="252" type="line"/>
      <point x="312" y="263" type="line"/>
      <point x="345" y="275" type="line"/>
      <point x="368" y="281" type="line"/>
      <point x="358" y="341" type="line"/>
      <point x="355" y="415" type="line"/>
      <point x="451" y="413" type="line"/>
      <point x="556" y="413" type="line"/>
      <point x="555" y="527" type="line"/>
      <point x="528" y="527" type="line"/>
      <point x="492" y="527" type="line"/>
      <point x="467" y="527" type="line"/>
      <point x="452" y="527" type="line"/>
      <point x="442" y="527" type="line"/>
      <point x="432" y="527" type="line"/>
      <point x="415" y="527" type="line"/>
      <point x="389" y="527" type="line"/>
      <point x="353" y="527" type="line"/>
      <point x="354" y="560" type="line"/>
      <point x="360" y="607" type="line"/>
      <point x="363" y="621" type="line"/>
      <point x="391" y="618" type="line"/>
      <point x="424" y="607" type="line"/>
      <point x="441" y="601" type="line"/>
      <point x="456" y="590" type="line"/>
      <point x="471" y="583" type="line"/>
      <point x="485" y="577" type="line"/>
      <point x="509" y="561" type="line"/>
      <point x="590" y="652" type="line"/>
      <point x="479" y="695" type="line"/>
      <point x="381" y="749" type="line"/>
    </contour>
  </outline>
</glyph>
<glyph name="F" format="2">
  <advance width="500"/>
  <unicode hex="0046"/>
  <outline>
    <contour>
      <point x="486" y="672" type="line"/>
      <point x="357" y="707" type="line"/>
      <point x="246" y="745" type="line"/>
      <point x="192" y="682" type="line"/>
      <point x="134" y="628" type="line"/>
      <point x="64" y="573" type="line"/>
      <point x="21" y="541" type="line"/>
      <point x="47" y="485" type="line"/>
      <point x="84" y="424" type="line"/>
      <point x="86" y="419"/>
      <point x="97" y="397"/>
      <point x="117" y="358" type="curve"/>
      <point x="148" y="306" type="line"/>
      <point x="183" y="238" type="line"/>
      <point x="209" y="184" type="line"/>
      <point x="237" y="140" type="line"/>
      <point x="258" y="93" type="line"/>
      <point x="281" y="29" type="line"/>
      <point x="293" y="-12" type="line"/>
      <point x="287" y="-41" type="line"/>
      <point x="230" y="-20" type="line"/>
      <point x="197" y="8" type="line"/>
      <point x="164" y="41" type="line"/>
      <point x="141" y="74" type="line"/>
      <point x="106" y="109" type="line"/>
      <point x="68" y="163" type="line"/>
      <point x="52" y="109" type="line"/>
      <point x="30" y="60" type="line"/>
      <point x="7" y="15" type="line"/>
      <point x="36" y="-18" type="line"/>
      <point x="74" y="-65" type="line"/>
      <point x="111" y="-102" type="line"/>
      <point x="149" y="-133" type="line"/>
      <point x="195" y="-165" type="line"/>
      <point x="223" y="-181" type="line"/>
      <point x="263" y="-128" type="line"/>
      <point x="300" y="-76" type="line"/>
      <point x="324" y="-41" type="line"/>
      <point x="343" y="-13" type="line"/>
      <point x="373" y="25" type="line"/>
      <point x="399" y="63" type="line"/>
      <point x="425" y="99" type="line"/>
      <point x="396" y="141" type="line"/>
      <point x="365" y="192" type="line"/>
      <point x="338" y="241" type="line"/>
      <point x="312" y="287" type="line"/>
      <point x="288" y="335" type="line"/>
      <point x="272" y="367" type="line"/>
      <point x="333" y="364" type="line"/>
      <point x="382" y="361" type="line"/>
      <point x="450" y="356" type="line"/>
      <point x="456" y="397" type="line"/>
      <point x="465" y="445" type="line"/>
      <point x="468" y="473" type="line"/>
      <point x="398" y="465" type="line"/>
      <point x="318" y="460" type="line"/>
      <point x="271" y="460" type="line"/>
      <point x="230" y="462" type="line"/>
      <point x="219" y="490" type="line"/>
      <point x="212" y="508" type="line"/>
      <point x="204" y="527" type="line"/>
      <point x="195" y="559" type="line"/>
      <point x="189" y="587" type="line"/>
      <point x="192" y="607" type="line"/>
      <point x="218" y="614" type="line"/>
      <point x="235" y="614" type="line"/>
      <point x="256" y="607" type="line"/>
      <point x="277" y="602" type="line"/>
      <point x="297" y="594" type="line"/>
      <point x="325" y="583" type="line"/>
      <point x="349" y="570" type="line"/>
      <point x="369" y="558" type="line"/>
      <point x="387" y="540" type="line"/>
      <point x="399" y="560" type="line"/>
      <point x="413" y="585" type="line"/>
      <point x="436" y="604" type="line"/>
      <point x="453" y="630" type="line"/>
    </contour>
  </outline>
</glyph>
<glyph name="G" format="2">
  <advance width="900"/>
  <unicode hex="0047"/>
  <outline>
    <contour>
      <point x="545" y="527" type="line"/>
      <point x="579" y="560" type="line"/>
      <point x="613" y="592" type="line"/>
      <point x="655" y="634" type="line"/>
      <point x="601" y="649" type="line"/>
      <point x="551" y="667" type="line"/>
      <point x="488" y="683" type="line"/>
      <point x="474" y="691" type="line"/>
      <point x="455" y="703" type="line"/>
      <point x="414" y="725" type="line"/>
      <point x="393" y="738" type="line"/>
      <point x="375" y="752" type="line"/>
      <point x="302" y="712" type="line"/>
      <point x="235" y="668" type="line"/>
      <point x="189" y="629" type="line"/>
      <point x="160" y="602" type="line"/>
      <point x="114" y="554" type="line"/>
      <point x="74" y="505" type="line"/>
      <point x="41" y="455" type="line"/>
      <point x="36" y="396" type="line"/>
      <point x="41" y="369" type="line"/>
      <point x="52" y="308" type="line"/>
      <point x="84" y="229" type="line"/>
      <point x="108" y="188" type="line"/>
      <point x="143" y="152" type="line"/>
      <point x="161" y="138" type="line"/>
      <point x="189" y="110" type="line"/>
      <point x="233" y="82" type="line"/>
      <point x="290" y="49" type="line"/>
      <point x="338" y="25" type="line"/>
      <point x="364" y="16" type="line"/>
      <point x="402" y="33" type="line"/>
      <point x="429" y="49" type="line"/>
      <point x="461" y="72" type="line"/>
      <point x="512" y="105" type="line"/>
      <point x="560" y="147" type="line"/>
      <point x="602" y="190" type="line"/>
      <point x="642" y="243" type="line"/>
      <point x="668" y="279" type="line"/>
      <point x="689" y="316" type="line"/>
      <point x="706" y="349" type="line"/>
      <point x="676" y="394" type="line"/>
      <point x="651" y="424" type="line"/>
      <point x="621" y="458" type="line"/>
      <point x="578" y="500" type="line"/>
      <point x="545" y="527" type="line"/>
      <point x="473" y="559" type="line"/>
      <point x="416" y="506" type="line"/>
      <point x="363" y="459" type="line"/>
      <point x="364" y="435" type="line"/>
      <point x="427" y="422" type="line"/>
      <point x="474" y="395" type="line"/>
      <point x="524" y="352" type="line"/>
      <point x="547" y="316" type="line"/>
      <point x="560" y="270" type="line"/>
      <point x="559" y="236" type="line"/>
      <point x="555" y="215" type="line"/>
      <point x="552" y="202" type="line"/>
      <point x="539" y="185" type="line"/>
      <point x="520" y="174" type="line"/>
      <point x="501" y="163" type="line"/>
      <point x="468" y="155" type="line"/>
      <point x="432" y="152" type="line"/>
      <point x="406" y="158" type="line"/>
      <point x="380" y="166" type="line"/>
      <point x="349" y="182" type="line"/>
      <point x="320" y="199" type="line"/>
      <point x="292" y="220" type="line"/>
      <point x="255" y="249" type="line"/>
      <point x="219" y="285" type="line"/>
      <point x="203" y="303" type="line"/>
      <point x="179" y="346" type="line"/>
      <point x="165" y="399" type="line"/>
      <point x="165" y="455" type="line"/>
      <point x="178" y="507" type="line"/>
      <point x="199" y="547" type="line"/>
      <point x="222" y="576" type="line"/>
      <point x="237" y="529" type="line"/>
      <point x="236" y="500" type="line"/>
      <point x="233" y="342" type="line"/>
      <point x="219" y="285" type="line"/>
      <point x="254" y="250" type="line"/>
      <point x="321" y="297" type="line"/>
      <point x="373" y="316" type="line"/>
      <point x="367" y="361" type="line"/>
      <point x="363" y="459" type="line"/>
      <point x="362" y="518" type="line"/>
      <point x="363" y="568" type="line"/>
      <point x="367" y="610" type="line"/>
      <point x="384" y="605" type="line"/>
      <point x="399" y="599" type="line"/>
      <point x="413" y="594" type="line"/>
      <point x="433" y="584" type="line"/>
      <point x="455" y="572" type="line"/>
      <point x="473" y="560" type="line"/>
      <point x="500" y="547" type="line"/>
      <point x="534" y="532" type="line"/>
    </contour>
  </outline>
</glyph>
<glyph name="H" format="2">
  <advance width="650"/>
  <unicode hex="0048"/>
  <outline>
    <contour>
      <point x="509" y="675" type="line"/>
      <point x="441" y="696" type="line"/>
      <point x="368" y="720" type="line"/>
      <point x="297" y="749" type="line"/>
      <point x="230" y="713" type="line"/>
      <point x="152" y="670" type="line"/>
      <point x="55" y="616" type="line"/>
      <point x="19" y="596" type="line"/>
      <point x="30" y="544" type="line"/>
      <point x="38" y="482" type="line"/>
      <point x="43" y="445" type="line"/>
      <point x="48" y="372" type="line"/>
      <point x="45" y="291" type="line"/>
      <point x="40" y="224" type="line"/>
      <point x="28" y="150" type="line"/>
      <point x="12" y="89" type="line"/>
      <point x="48" y="74" type="line"/>
      <point x="96" y="54" type="line"/>
      <point x="157" y="35" type="line"/>
      <point x="233" y="14" type="line"/>
      <point x="274" y="74" type="line"/>
      <point x="304" y="126" type="line"/>
      <point x="339" y="162" type="line"/>
      <point x="286" y="169" type="line"/>
      <point x="217" y="192" type="line"/>
      <point x="193" y="207" type="line"/>
      <point x="190" y="297" type="line"/>
      <point x="189" y="372" type="line"/>
      <point x="237" y="401" type="line"/>
      <point x="286" y="407" type="line"/>
      <point x="330" y="382" type="line"/>
      <point x="365" y="330" type="line"/>
      <point x="392" y="276" type="line"/>
      <point x="417" y="194" type="line"/>
      <point x="417" y="128" type="line"/>
      <point x="400" y="52" type="line"/>
      <point x="376" y="-7" type="line"/>
      <point x="337" y="-51" type="line"/>
      <point x="301" y="-78" type="line"/>
      <point x="262" y="-102" type="line"/>
      <point x="198" y="-123" type="line"/>
      <point x="227" y="-152" type="line"/>
      <point x="267" y="-180" type="line"/>
      <point x="299" y="-182" type="line"/>
      <point x="343" y="-156" type="line"/>
      <point x="388" y="-104" type="line"/>
      <point x="423" y="-58" type="line"/>
      <point x="463" y="3" type="line"/>
      <point x="488" y="54" type="line"/>
      <point x="520" y="118" type="line"/>
      <point x="552" y="186" type="line"/>
      <point x="569" y="239" type="line"/>
      <point x="587" y="293" type="line"/>
      <point x="555" y="344" type="line"/>
      <point x="510" y="394" type="line"/>
      <point x="481" y="431" type="line"/>
      <point x="442" y="468" type="line"/>
      <point x="404" y="509" type="line"/>
      <point x="370" y="542" type="line"/>
      <point x="338" y="527" type="line"/>
      <point x="296" y="497" type="line"/>
      <point x="263" y="476" type="line"/>
      <point x="225" y="451" type="line"/>
      <point x="192" y="432" type="line"/>
      <point x="190" y="470" type="line"/>
      <point x="191" y="510" type="line"/>
      <point x="192" y="532" type="line"/>
      <point x="190" y="566" type="line"/>
      <point x="190" y="593" type="line"/>
      <point x="207" y="617" type="line"/>
      <point x="224" y="625" type="line"/>
      <point x="245" y="626" type="line"/>
      <point x="272" y="620" type="line"/>
      <point x="308" y="605" type="line"/>
      <point x="338" y="591" type="line"/>
      <point x="370" y="583" type="line"/>
      <point x="396" y="597" type="line"/>
      <point x="419" y="615" type="line"/>
      <point x="443" y="631" type="line"/>
      <point x="468" y="647" type="line"/>
    </contour>
  </outline>
</glyph>
<glyph name="I" format="2">
  <advance width="518"/>
  <unicode hex="0049"/>
  <outline>
    <contour>
      <point x="35" y="598" type="line"/>
      <point x="68" y="610" type="line"/>
      <point x="95" y="617" type="line"/>
      <point x="122" y="623" type="line"/>
      <point x="159" y="618" type="line"/>
      <point x="202" y="610" type="line"/>
      <point x="239" y="603" type="line"/>
      <point x="285" y="601" type="line"/>
      <point x="325" y="601" type="line"/>
      <point x="361" y="602" type="line"/>
      <point x="382" y="604" type="line"/>
      <point x="366" y="587" type="line"/>
      <point x="349" y="571" type="line"/>
      <point x="333" y="555" type="line"/>
      <point x="321" y="544" type="line"/>
      <point x="301" y="527" type="line"/>
      <point x="307" y="486" type="line"/>
      <point x="313" y="444" type="line"/>
      <point x="322" y="393" type="line"/>
      <point x="329" y="351" type="line"/>
      <point x="336" y="299" type="line"/>
      <point x="341" y="242" type="line"/>
      <point x="342" y="209" type="line"/>
      <point x="341" y="192" type="line"/>
      <point x="330" y="169" type="line"/>
      <point x="318" y="157" type="line"/>
      <point x="304" y="150" type="line"/>
      <point x="288" y="151" type="line"/>
      <point x="270" y="157" type="line"/>
      <point x="227" y="176" type="line"/>
      <point x="195" y="193" type="line"/>
      <point x="154" y="219" type="line"/>
      <point x="129" y="237" type="line"/>
      <point x="92" y="271" type="line"/>
      <point x="63" y="301" type="line"/>
      <point x="39" y="330" type="line"/>
      <point x="31" y="277" type="line"/>
      <point x="24" y="237" type="line"/>
      <point x="18" y="203" type="line"/>
      <point x="13" y="160" type="line"/>
      <point x="24" y="130" type="line"/>
      <point x="45" y="113" type="line"/>
      <point x="83" y="96" type="line"/>
      <point x="106" y="85" type="line"/>
      <point x="137" y="70" type="line"/>
      <point x="162" y="58" type="line"/>
      <point x="203" y="39" type="line"/>
      <point x="237" y="23" type="line"/>
      <point x="253" y="15" type="line"/>
      <point x="273" y="37" type="line"/>
      <point x="293" y="57" type="line"/>
      <point x="313" y="78" type="line"/>
      <point x="340" y="105" type="line"/>
      <point x="365" y="130" type="line"/>
      <point x="390" y="152" type="line"/>
      <point x="420" y="177" type="line"/>
      <point x="440" y="192" type="line"/>
      <point x="456" y="223" type="line"/>
      <point x="465" y="251" type="line"/>
      <point x="470" y="285" type="line"/>
      <point x="471" y="325" type="line"/>
      <point x="469" y="354" type="line"/>
      <point x="466" y="394" type="line"/>
      <point x="461" y="431" type="line"/>
      <point x="456" y="480" type="line"/>
      <point x="452" y="524" type="line"/>
      <point x="449" y="554" type="line"/>
      <point x="446" y="591" type="line"/>
      <point x="441" y="630" type="line"/>
      <point x="455" y="655" type="line"/>
      <point x="468" y="678" type="line"/>
      <point x="478" y="697" type="line"/>
      <point x="487" y="712" type="line"/>
      <point x="503" y="740" type="line"/>
      <point x="459" y="739" type="line"/>
      <point x="414" y="739" type="line"/>
      <point x="365" y="740" type="line"/>
      <point x="321" y="741" type="line"/>
      <point x="286" y="743" type="line"/>
      <point x="258" y="745" type="line"/>
      <point x="237" y="746" type="line"/>
      <point x="211" y="749" type="line"/>
      <point x="191" y="751" type="line"/>
      <point x="166" y="754" type="line"/>
      <point x="138" y="757" type="line"/>
      <point x="120" y="760" type="line"/>
      <point x="101" y="763" type="line"/>
      <point x="93" y="749" type="line"/>
      <point x="80" y="723" type="line"/>
      <point x="70" y="705" type="line"/>
      <point x="56" y="677" type="line"/>
      <point x="52" y="661" type="line"/>
      <point x="44" y="641" type="line"/>
    </contour>
  </outline>
</glyph>
<glyph name="J" format="2">
  <advance width="556"/>
  <unicode hex="004A"/>
  <outline>
    <contour>
      <point x="141" y="762" type="line"/>
      <point x="7" y="506" type="line"/>
      <point x="88" y="558" type="line"/>
      <point x="149" y="583" type="line"/>
      <point x="238" y="600" type="line"/>
      <point x="295" y="605" type="line"/>
      <point x="387" y="606" type="line"/>
      <point x="372" y="551" type="line"/>
      <point x="363" y="499" type="line"/>
      <point x="345" y="500" type="line"/>
      <point x="326" y="501" type="line"/>
      <point x="303" y="504" type="line"/>
      <point x="283" y="507" type="line"/>
      <point x="254" y="514" type="line"/>
      <point x="214" y="527" type="line"/>
      <point x="122" y="355" type="line"/>
      <point x="147" y="361" type="line"/>
      <point x="183" y="368" type="line"/>
      <point x="220" y="373" type="line"/>
      <point x="249" y="377" type="line"/>
      <point x="279" y="379" type="line"/>
      <point x="309" y="379" type="line"/>
      <point x="350" y="377" type="line"/>
      <point x="347" y="338" type="line"/>
      <point x="343" y="298" type="line"/>
      <point x="337" y="269" type="line"/>
      <point x="331" y="230" type="line"/>
      <point x="324" y="197" type="line"/>
      <point x="319" y="180" type="line"/>
      <point x="313" y="157" type="line"/>
      <point x="306" y="130" type="line"/>
      <point x="295" y="96" type="line"/>
      <point x="283" y="66" type="line"/>
      <point x="275" y="47" type="line"/>
      <point x="265" y="28" type="line"/>
      <point x="244" y="-5" type="line"/>
      <point x="220" y="-36" type="line"/>
      <point x="189" y="-66" type="line"/>
      <point x="146" y="-92" type="line"/>
      <point x="100" y="-111" type="line"/>
      <point x="3" y="-135" type="line"/>
      <point x="43" y="-165" type="line"/>
      <point x="80" y="-193" type="line"/>
      <point x="107" y="-177" type="line"/>
      <point x="158" y="-145" type="line"/>
      <point x="197" y="-118" type="line"/>
      <point x="223" y="-97" type="line"/>
      <point x="248" y="-77" type="line"/>
      <point x="269" y="-59" type="line"/>
      <point x="288" y="-40" type="line"/>
      <point x="314" y="-14" type="line"/>
      <point x="335" y="5" type="line"/>
      <point x="351" y="27" type="line"/>
      <point x="396" y="97" type="line"/>
      <point x="430" y="145" type="line"/>
      <point x="454" y="202" type="line"/>
      <point x="478" y="266" type="line"/>
      <point x="493" y="325" type="line"/>
      <point x="503" y="382" type="line"/>
      <point x="505" y="456" type="line"/>
      <point x="506" y="514" type="line"/>
      <point x="503" y="574" type="line"/>
      <point x="505" y="626" type="line"/>
      <point x="503" y="661" type="line"/>
      <point x="509" y="694" type="line"/>
      <point x="520" y="716" type="line"/>
      <point x="532" y="734" type="line"/>
      <point x="536" y="749" type="line"/>
      <point x="490" y="740" type="line"/>
      <point x="450" y="734" type="line"/>
      <point x="379" y="727" type="line"/>
      <point x="321" y="732" type="line"/>
      <point x="246" y="735" type="line"/>
    </contour>
  </outline>
</glyph>
<glyph name="N" format="2">
  <advance width="700"/>
  <unicode hex="004E"/>
  <outline>
    <contour>
      <point x="278" y="699" type="line"/>
      <point x="257" y="749" type="line"/>
      <point x="207" y="731" type="line"/>
      <point x="165" y="714" type="line"/>
      <point x="132" y="700" type="line"/>
      <point x="82" y="674" type="line"/>
      <point x="56" y="656" type="line"/>
      <point x="36" y="627" type="line"/>
      <point x="32" y="596" type="line"/>
      <point x="36" y="576" type="line"/>
      <point x="44" y="554" type="line"/>
      <point x="59" y="517" type="line"/>
      <point x="78" y="472" type="line"/>
      <point x="82" y="463" type="line"/>
      <point x="88" y="455"/>
      <point x="140" y="342"/>
      <point x="139" y="314" type="curve"/>
      <point x="142" y="297" type="line"/>
      <point x="140" y="282" type="line"/>
      <point x="137" y="266" type="line"/>
      <point x="115" y="232" type="line"/>
      <point x="89" y="201" type="line"/>
      <point x="66" y="178" type="line"/>
      <point x="18" y="130" type="line"/>
      <point x="57" y="109" type="line"/>
      <point x="94" y="92" type="line"/>
      <point x="147" y="64" type="line"/>
      <point x="191" y="41" type="line"/>
      <point x="244" y="14" type="line"/>
      <point x="274" y="73" type="line"/>
      <point x="325" y="162" type="line"/>
      <point x="291" y="171" type="line"/>
      <point x="261" y="181" type="line"/>
      <point x="232" y="193" type="line"/>
      <point x="197" y="211" type="line"/>
      <point x="215" y="236" type="line"/>
      <point x="236" y="268" type="line"/>
      <point x="253" y="291" type="line"/>
      <point x="267" y="314" type="line"/>
      <point x="280" y="340" type="line"/>
      <point x="293" y="380" type="line"/>
      <point x="291" y="414" type="line"/>
      <point x="272" y="472" type="line"/>
      <point x="257" y="503" type="line"/>
      <point x="301" y="541" type="line"/>
      <point x="350" y="562" type="line"/>
      <point x="379" y="565" type="line"/>
      <point x="418" y="559" type="line"/>
      <point x="476" y="528" type="line"/>
      <point x="444" y="479" type="line"/>
      <point x="426" y="434" type="line"/>
      <point x="419" y="369" type="line"/>
      <point x="419" y="304" type="line"/>
      <point x="418" y="254" type="line"/>
      <point x="420" y="201" type="line"/>
      <point x="424" y="163" type="line"/>
      <point x="434" y="126" type="line"/>
      <point x="452" y="82" type="line"/>
      <point x="476" y="55" type="line"/>
      <point x="510" y="29" type="line"/>
      <point x="544" y="16" type="line"/>
      <point x="578" y="83" type="line"/>
      <point x="621" y="162" type="line"/>
      <point x="609" y="166" type="line"/>
      <point x="592" y="178" type="line"/>
      <point x="582" y="189" type="line"/>
      <point x="575" y="201" type="line"/>
      <point x="570" y="216" type="line"/>
      <point x="565" y="237" type="line"/>
      <point x="567" y="375" type="line"/>
      <point x="569" y="432" type="line"/>
      <point x="572" y="470" type="line"/>
      <point x="576" y="504" type="line"/>
      <point x="583" y="535" type="line"/>
      <point x="597" y="569" type="line"/>
      <point x="614" y="597" type="line"/>
      <point x="636" y="618" type="line"/>
      <point x="653" y="631" type="line"/>
      <point x="591" y="656" type="line"/>
      <point x="557" y="673" type="line"/>
      <point x="525" y="689" type="line"/>
      <point x="480" y="713" type="line"/>
      <point x="436" y="736" type="line"/>
      <point x="411" y="752" type="line"/>
      <point x="362" y="699" type="line"/>
      <point x="326" y="660" type="line"/>
      <point x="297" y="629" type="line"/>
      <point x="228" y="555" type="line"/>
      <point x="220" y="570" type="line"/>
      <point x="206" y="619" type="line"/>
      <point x="208" y="648" type="line"/>
      <point x="225" y="673" type="line"/>
    </contour>
  </outline>
</glyph>
<glyph name="O" format="2">
  <advance width="950"/>
  <unicode hex="004F"/>
  <outline>
    <contour>
      <point x="456" y="645" type="line"/>
      <point x="455" y="751" type="line"/>
      <point x="369" y="732" type="line"/>
      <point x="312" y="711" type="line"/>
      <point x="254" y="686" type="line"/>
      <point x="206" y="657" type="line"/>
      <point x="161" y="620" type="line"/>
      <point x="115" y="575" type="line"/>
      <point x="76" y="539" type="line"/>
      <point x="51" y="503" type="line"/>
      <point x="15" y="453" type="line"/>
      <point x="23" y="399" type="line"/>
      <point x="34" y="350" type="line"/>
      <point x="51" y="291" type="line"/>
      <point x="69" y="246" type="line"/>
      <point x="95" y="195" type="line"/>
      <point x="124" y="135" type="line"/>
      <point x="169" y="84" type="line"/>
      <point x="225" y="51" type="line"/>
      <point x="280" y="30" type="line"/>
      <point x="371" y="15" type="line"/>
      <point x="453" y="20" type="line"/>
      <point x="505" y="41" type="line"/>
      <point x="578" y="80" type="line"/>
      <point x="617" y="112" type="line"/>
      <point x="662" y="163" type="line"/>
      <point x="712" y="233" type="line"/>
      <point x="735" y="281" type="line"/>
      <point x="755" y="333" type="line"/>
      <point x="771" y="401" type="line"/>
      <point x="777" y="493" type="line"/>
      <point x="724" y="529" type="line"/>
      <point x="663" y="576" type="line"/>
      <point x="612" y="629" type="line"/>
      <point x="566" y="693" type="line"/>
      <point x="542" y="730" type="line"/>
      <point x="486" y="679" type="line"/>
    </contour>
    <contour>
      <point x="213" y="323" type="line"/>
      <point x="201" y="400" type="line"/>
      <point x="199" y="455" type="line"/>
      <point x="212" y="529" type="line"/>
      <point x="261" y="603" type="line"/>
      <point x="299" y="635" type="line"/>
      <point x="312" y="565" type="line"/>
      <point x="316" y="511" type="line"/>
      <point x="318" y="455" type="line"/>
      <point x="320" y="400" type="line"/>
      <point x="320" y="339" type="line"/>
      <point x="317" y="262" type="line"/>
      <point x="311" y="215" type="line"/>
      <point x="301" y="175" type="line"/>
      <point x="340" y="145" type="line"/>
      <point x="377" y="178" type="line"/>
      <point x="405" y="204" type="line"/>
      <point x="441" y="222" type="line"/>
      <point x="476" y="236" type="line"/>
      <point x="503" y="243" type="line"/>
      <point x="490" y="275" type="line"/>
      <point x="475" y="322" type="line"/>
      <point x="466" y="379" type="line"/>
      <point x="458" y="446" type="line"/>
      <point x="454" y="518" type="line"/>
      <point x="449" y="579" type="line"/>
      <point x="504" y="538" type="line"/>
      <point x="531" y="513" type="line"/>
      <point x="553" y="490" type="line"/>
      <point x="575" y="461" type="line"/>
      <point x="594" y="430" type="line"/>
      <point x="615" y="393" type="line"/>
      <point x="628" y="356" type="line"/>
      <point x="635" y="326" type="line"/>
      <point x="644" y="281" type="line"/>
      <point x="637" y="242" type="line"/>
      <point x="621" y="213" type="line"/>
      <point x="604" y="180" type="line"/>
      <point x="581" y="156" type="line"/>
      <point x="554" y="136" type="line"/>
      <point x="518" y="121" type="line"/>
      <point x="466" y="115" type="line"/>
      <point x="392" y="121" type="line"/>
      <point x="340" y="145" type="line"/>
      <point x="301" y="175" type="line"/>
      <point x="239" y="249" type="line"/>
    </contour>
  </outline>
</glyph>
<glyph name="T" format="2">
  <advance width="700"/>
  <unicode hex="0054"/>
  <outline>
    <contour>
      <point x="652" y="763" type="curve"/>
      <point x="467" y="747"/>
      <point x="464" y="740"/>
      <point x="153" y="764" type="curve"/>
      <point x="150" y="759"/>
      <point x="110" y="700"/>
      <point x="82" y="652" type="curve"/>
      <point x="37" y="585" type="line"/>
      <point x="80" y="602" type="line"/>
      <point x="185" y="647"/>
      <point x="215" y="640"/>
      <point x="248" y="614" type="curve"/>
      <point x="249" y="608"/>
      <point x="124" y="503"/>
      <point x="84" y="446" type="curve"/>
      <point x="12" y="357" type="line"/>
      <point x="35" y="291" type="line"/>
      <point x="54" y="250" type="line"/>
      <point x="74" y="215" type="line"/>
      <point x="92" y="185" type="line"/>
      <point x="143" y="114"/>
      <point x="192" y="57"/>
      <point x="301" y="26" type="curve" smooth="yes"/>
      <point x="327" y="19"/>
      <point x="393" y="26"/>
      <point x="431" y="26" type="curve"/>
      <point x="497" y="37"/>
      <point x="554" y="58"/>
      <point x="606" y="78" type="curve"/>
      <point x="643" y="94" type="line"/>
      <point x="644" y="131" type="line"/>
      <point x="645" y="159" type="line"/>
      <point x="620" y="160"/>
      <point x="453" y="49"/>
      <point x="305" y="158" type="curve"/>
      <point x="270" y="193" type="line"/>
      <point x="154" y="358"/>
      <point x="206" y="480"/>
      <point x="298" y="562" type="curve" smooth="yes"/>
      <point x="331" y="591"/>
      <point x="308" y="270"/>
      <point x="308" y="271" type="curve"/>
      <point x="270" y="193" type="line"/>
      <point x="305" y="157" type="line"/>
      <point x="360" y="193"/>
      <point x="367" y="204"/>
      <point x="461" y="222" type="curve"/>
      <point x="471" y="447"/>
      <point x="463" y="532"/>
      <point x="467" y="623" type="curve"/>
      <point x="578" y="586" type="line"/>
      <point x="586" y="624"/>
      <point x="614" y="657"/>
    </contour>
  </outline>
</glyph>
<glyph name="U" format="2">
  <advance width="680"/>
  <unicode hex="0055"/>
  <outline>
    <contour>
      <point x="507" y="757" type="curve"/>
      <point x="392" y="629" type="line"/>
      <point x="405" y="619"/>
      <point x="437" y="601"/>
      <point x="452" y="579" type="curve" smooth="yes"/>
      <point x="459" y="568"/>
      <point x="453" y="542"/>
      <point x="459" y="413" type="curve"/>
      <point x="459" y="380"/>
      <point x="464" y="362"/>
      <point x="457" y="286" type="curve"/>
      <point x="441" y="266"/>
      <point x="426" y="240"/>
      <point x="363" y="195" type="curve"/>
      <point x="331" y="185"/>
      <point x="290" y="200"/>
      <point x="230" y="241" type="curve"/>
      <point x="252" y="285"/>
      <point x="267" y="304"/>
      <point x="298" y="396" type="curve"/>
      <point x="302" y="424"/>
      <point x="320" y="449"/>
      <point x="321" y="556" type="curve"/>
      <point x="301" y="569"/>
      <point x="278" y="560"/>
      <point x="194" y="622" type="curve"/>
      <point x="150" y="664"/>
      <point x="175" y="717"/>
      <point x="246" y="765" type="curve"/>
      <point x="228" y="777"/>
      <point x="208" y="785"/>
      <point x="197" y="793" type="curve"/>
      <point x="158" y="775"/>
      <point x="102" y="735"/>
      <point x="67" y="652" type="curve"/>
      <point x="50" y="548"/>
      <point x="107" y="497"/>
      <point x="152" y="404" type="curve"/>
      <point x="163" y="386"/>
      <point x="178" y="292"/>
      <point x="144" y="248" type="curve"/>
      <point x="131" y="214"/>
      <point x="104" y="185"/>
      <point x="40" y="136" type="curve"/>
      <point x="73" y="116"/>
      <point x="206" y="86"/>
      <point x="281" y="15" type="curve"/>
      <point x="323" y="61"/>
      <point x="354" y="91"/>
      <point x="446" y="196" type="curve"/>
      <point x="444" y="165"/>
      <point x="441" y="151"/>
      <point x="426" y="102" type="curve"/>
      <point x="443" y="93"/>
      <point x="479" y="66"/>
      <point x="562" y="17" type="curve"/>
      <point x="586" y="50"/>
      <point x="607" y="73"/>
      <point x="665" y="160" type="curve"/>
      <point x="606" y="180"/>
      <point x="600" y="270"/>
      <point x="607" y="371" type="curve"/>
      <point x="611" y="394"/>
      <point x="605" y="470"/>
      <point x="614" y="603" type="curve"/>
      <point x="622" y="640"/>
      <point x="635" y="647"/>
      <point x="648" y="672" type="curve"/>
      <point x="613" y="694"/>
      <point x="606" y="699"/>
    </contour>
  </outline>
</glyph>
<glyph name="V" format="2">
  <advance width="600"/>
  <unicode hex="0056"/>
  <outline>
    <contour>
      <point x="404" y="758" type="curve"/>
      <point x="251" y="588" type="line"/>
      <point x="262" y="531" type="line"/>
      <point x="282" y="558"/>
      <point x="314" y="580"/>
      <point x="332" y="578" type="curve"/>
      <point x="363" y="558"/>
      <point x="389" y="498"/>
      <point x="422" y="387" type="curve"/>
      <point x="423" y="372"/>
      <point x="448" y="331"/>
      <point x="440" y="257" type="curve"/>
      <point x="441" y="244"/>
      <point x="430" y="213"/>
      <point x="400" y="176" type="curve"/>
      <point x="343" y="194"/>
      <point x="334" y="196"/>
      <point x="254" y="224" type="curve"/>
      <point x="251" y="228"/>
      <point x="257" y="265"/>
      <point x="263" y="396" type="curve"/>
      <point x="261" y="424"/>
      <point x="265" y="439"/>
      <point x="262" y="531" type="curve"/>
      <point x="251" y="588" type="line"/>
      <point x="235" y="623" type="line"/>
      <point x="216" y="664"/>
      <point x="169" y="690"/>
      <point x="161" y="720" type="curve"/>
      <point x="160" y="734"/>
      <point x="158" y="748"/>
      <point x="175" y="774" type="curve"/>
      <point x="161" y="778"/>
      <point x="158" y="784"/>
      <point x="115" y="775" type="curve"/>
      <point x="92" y="750"/>
      <point x="58" y="724"/>
      <point x="21" y="626" type="curve"/>
      <point x="20" y="610"/>
      <point x="23" y="586"/>
      <point x="87" y="520" type="curve"/>
      <point x="93" y="515"/>
      <point x="124" y="477"/>
      <point x="116" y="392" type="curve"/>
      <point x="113" y="344"/>
      <point x="114" y="312"/>
      <point x="105" y="228" type="curve"/>
      <point x="98" y="195"/>
      <point x="91" y="171"/>
      <point x="42" y="106" type="curve"/>
      <point x="209" y="86"/>
      <point x="235" y="73"/>
      <point x="355" y="28" type="curve"/>
      <point x="507" y="235" type="line"/>
      <point x="538" y="279"/>
      <point x="562" y="307"/>
      <point x="581" y="431" type="curve"/>
      <point x="562" y="484"/>
      <point x="580" y="527"/>
      <point x="493" y="656" type="curve"/>
      <point x="468" y="687"/>
      <point x="465" y="699"/>
    </contour>
  </outline>
</glyph>
<glyph name="Z" format="2">
  <advance width="600"/>
  <unicode hex="005A"/>
  <outline>
    <contour>
      <point x="102" y="763" type="curve"/>
      <point x="95" y="753"/>
      <point x="70" y="682"/>
      <point x="27" y="549" type="curve"/>
      <point x="120" y="593"/>
      <point x="121" y="583"/>
      <point x="173" y="591" type="curve"/>
      <point x="241" y="599"/>
      <point x="360" y="583"/>
      <point x="347" y="572" type="curve" smooth="yes"/>
      <point x="331" y="558"/>
      <point x="258" y="483"/>
      <point x="163" y="395" type="curve"/>
      <point x="301" y="323" type="line"/>
      <point x="290" y="311"/>
      <point x="365" y="249"/>
      <point x="389" y="218" type="curve" smooth="yes"/>
      <point x="455" y="132"/>
      <point x="436" y="55"/>
      <point x="436" y="45" type="curve" smooth="yes"/>
      <point x="431" y="-69"/>
      <point x="323" y="-102"/>
      <point x="263" y="-115" type="curve" smooth="yes"/>
      <point x="230" y="-122"/>
      <point x="164" y="-97"/>
      <point x="121" y="-32" type="curve" smooth="yes"/>
      <point x="111" y="-18"/>
      <point x="118" y="64"/>
      <point x="144" y="110" type="curve" smooth="yes"/>
      <point x="187" y="187"/>
      <point x="251" y="236"/>
      <point x="387" y="217" type="curve" smooth="yes"/>
      <point x="406" y="214"/>
      <point x="288" y="333"/>
      <point x="303" y="320" type="curve" smooth="yes"/>
      <point x="310" y="314"/>
      <point x="276" y="347"/>
      <point x="109" y="170" type="curve" smooth="yes"/>
      <point x="80" y="139"/>
      <point x="6" y="0"/>
      <point x="37" y="-167" type="curve" smooth="yes"/>
      <point x="39" y="-177"/>
      <point x="65" y="-236"/>
      <point x="210" y="-222" type="curve" smooth="yes"/>
      <point x="332" y="-210"/>
      <point x="435" y="-88"/>
      <point x="459" y="-71" type="curve" smooth="yes"/>
      <point x="513" y="-33"/>
      <point x="558" y="96"/>
      <point x="575" y="161" type="curve" smooth="yes"/>
      <point x="598" y="247"/>
      <point x="538" y="358"/>
      <point x="525" y="381" type="curve" smooth="yes"/>
      <point x="516" y="396"/>
      <point x="466" y="448"/>
      <point x="375" y="535" type="curve"/>
      <point x="565" y="738" type="line"/>
      <point x="453" y="752"/>
      <point x="271" y="721"/>
    </contour>
  </outline>
</glyph>
<glyph name="asciicircum" format="2">
  <advance width="300"/>
  <unicode hex="005E"/>
  <outline>
    <contour>
      <point x="170" y="530" type="curve"/>
      <point x="187" y="532"/>
      <point x="192" y="525"/>
      <point x="196" y="517" type="curve" smooth="yes"/>
      <point x="198" y="512"/>
      <point x="268" y="382"/>
      <point x="271" y="379" type="curve" smooth="yes"/>
      <point x="274" y="376"/>
      <point x="285" y="358"/>
      <point x="276" y="355" type="curve" smooth="yes"/>
      <point x="275" y="355"/>
      <point x="264" y="352"/>
      <point x="251" y="353" type="curve"/>
      <point x="240" y="351"/>
      <point x="236" y="363"/>
      <point x="233" y="364" type="curve" smooth="yes"/>
      <point x="231" y="365"/>
      <point x="205" y="390"/>
      <point x="156" y="441" type="curve"/>
      <point x="77" y="360" type="line"/>
      <point x="75" y="355"/>
      <point x="69" y="355"/>
      <point x="62" y="353" type="curve" smooth="yes"/>
      <point x="55" y="351"/>
      <point x="52" y="352"/>
      <point x="42" y="352" type="curve" smooth="yes"/>
      <point x="32" y="352"/>
      <point x="33" y="363"/>
      <point x="34" y="368" type="curve" smooth="yes"/>
      <point x="35" y="371"/>
      <point x="64" y="421"/>
      <point x="119" y="517" type="curve"/>
      <point x="124" y="530"/>
      <point x="132" y="530"/>
      <point x="136" y="530" type="curve" smooth="yes"/>
      <point x="139" y="530"/>
      <point x="150" y="530"/>
    </contour>
  </outline>
</glyph>
<glyph name="underscore" format="2">
  <advance width="600"/>
  <unicode hex="005F"/>
  <outline>
    <contour>
      <point x="11" y="-132" type="line"/>
      <point x="-6" y="-132"/>
      <point x="-6" y="-132"/>
      <point x="-6" y="-148" type="curve"/>
      <point x="-6" y="-178" type="line"/>
      <point x="-6" y="-195"/>
      <point x="-6" y="-195"/>
      <point x="10" y="-195" type="curve"/>
      <point x="582" y="-195" type="line"/>
      <point x="597" y="-195"/>
      <point x="597" y="-195"/>
      <point x="597" y="-182" type="curve"/>
      <point x="598" y="-152" type="line"/>
      <point x="598" y="-132"/>
      <point x="598" y="-132"/>
      <point x="582" y="-132" type="curve"/>
    </contour>
  </outline>
</glyph>
<glyph name="b" format="2">
  <advance width="449"/>
  <unicode hex="0062"/>
  <outline>
    <contour>
      <point x="20" y="629" type="line"/>
      <point x="59" y="609" type="line"/>
      <point x="78" y="548" type="line"/>
      <point x="80" y="204" type="line"/>
      <point x="50" y="109" type="line"/>
      <point x="159" y="54" type="line"/>
      <point x="257" y="8" type="line"/>
      <point x="287" y="48" type="line"/>
      <point x="324" y="102" type="line"/>
      <point x="357" y="146" type="line"/>
      <point x="398" y="192" type="line"/>
      <point x="413" y="211" type="line"/>
      <point x="429" y="236" type="line"/>
      <point x="422" y="315" type="line"/>
      <point x="393" y="407" type="line"/>
      <point x="374" y="444" type="line"/>
      <point x="330" y="504" type="line"/>
      <point x="280" y="534" type="line"/>
      <point x="198" y="480" type="line"/>
      <point x="199" y="548" type="line"/>
      <point x="216" y="677" type="line"/>
      <point x="265" y="727" type="line"/>
      <point x="241" y="749" type="line"/>
      <point x="36" y="658" type="line"/>
    </contour>
    <contour>
      <point x="201" y="415" type="line"/>
      <point x="227" y="403" type="line"/>
      <point x="249" y="388" type="line"/>
      <point x="262" y="373" type="line"/>
      <point x="277" y="354" type="line"/>
      <point x="288" y="336" type="line"/>
      <point x="298" y="319" type="line"/>
      <point x="305" y="300" type="line"/>
      <point x="312" y="279" type="line"/>
      <point x="323" y="248" type="line"/>
      <point x="328" y="205" type="line"/>
      <point x="322" y="178" type="line"/>
      <point x="301" y="158" type="line"/>
      <point x="270" y="152" type="line"/>
      <point x="244" y="158" type="line"/>
      <point x="209" y="181" type="line"/>
      <point x="200" y="199" type="line"/>
      <point x="198" y="221" type="line"/>
      <point x="198" y="284" type="line"/>
    </contour>
  </outline>
</glyph>
<glyph name="d" format="2">
  <advance width="430"/>
  <unicode hex="0064"/>
  <outline>
    <contour>
      <point x="205" y="703" type="line"/>
      <point x="262" y="625" type="line"/>
      <point x="307" y="547" type="line"/>
      <point x="342" y="471" type="line"/>
      <point x="366" y="394" type="line"/>
      <point x="378" y="349" type="line"/>
      <point x="389" y="297" type="line"/>
      <point x="399" y="236" type="line"/>
      <point x="400" y="197" type="line"/>
      <point x="323" y="138" type="line"/>
      <point x="266" y="82" type="line"/>
      <point x="227" y="16" type="line"/>
      <point x="106" y="70" type="line"/>
      <point x="52" y="102" type="line"/>
      <point x="22" y="126" type="line"/>
      <point x="20" y="178" type="line"/>
      <point x="18" y="237" type="line"/>
      <point x="18" y="279" type="line"/>
      <point x="17" y="326" type="line"/>
      <point x="18" y="369" type="line"/>
      <point x="19" y="425" type="line"/>
      <point x="46" y="440" type="line"/>
      <point x="81" y="454" type="line"/>
      <point x="110" y="469" type="line"/>
      <point x="140" y="483" type="line"/>
      <point x="154" y="490" type="line"/>
      <point x="175" y="500" type="line"/>
      <point x="134" y="564" type="line"/>
      <point x="77" y="635" type="line"/>
      <point x="113" y="655" type="line"/>
      <point x="134" y="666" type="line"/>
      <point x="154" y="676" type="line"/>
      <point x="176" y="688" type="line"/>
    </contour>
    <contour>
      <point x="244" y="355" type="line"/>
      <point x="230" y="391" type="line"/>
      <point x="212" y="434" type="line"/>
      <point x="198" y="462" type="line"/>
      <point x="176" y="450" type="line"/>
      <point x="153" y="423" type="line"/>
      <point x="139" y="397" type="line"/>
      <point x="133" y="368" type="line"/>
      <point x="130" y="331" type="line"/>
      <point x="129" y="308" type="line"/>
      <point x="133" y="250" type="line"/>
      <point x="138" y="199" type="line"/>
      <point x="151" y="192" type="line"/>
      <point x="166" y="177"/>
      <point x="219" y="149"/>
      <point x="248" y="145" type="curve"/>
      <point x="264" y="140" type="line"/>
      <point x="275" y="138" type="line"/>
      <point x="274" y="165" type="line"/>
      <point x="273" y="187" type="line"/>
      <point x="270" y="228" type="line"/>
      <point x="267" y="253" type="line"/>
      <point x="262" y="282" type="line"/>
      <point x="252" y="324" type="line"/>
    </contour>
  </outline>
</glyph>
<glyph name="f" format="2">
  <advance width="424"/>
  <unicode hex="0066"/>
  <outline>
    <contour>
      <point x="374" y="696" type="line"/>
      <point x="267" y="718" type="line"/>
      <point x="180" y="733" type="line"/>
      <point x="135" y="686" type="line"/>
      <point x="92" y="633" type="line"/>
      <point x="23" y="554" type="line"/>
      <point x="43" y="536" type="line"/>
      <point x="57" y="512" type="line"/>
      <point x="62" y="481" type="line"/>
      <point x="64" y="383" type="line"/>
      <point x="63" y="292" type="line"/>
      <point x="63" y="224" type="line"/>
      <point x="60" y="158" type="line"/>
      <point x="57" y="81" type="line"/>
      <point x="51" y="10" type="line"/>
      <point x="45" y="-42" type="line"/>
      <point x="34" y="-98" type="line"/>
      <point x="16" y="-169" type="line"/>
      <point x="28" y="-173" type="line"/>
      <point x="38" y="-179" type="line"/>
      <point x="47" y="-184" type="line"/>
      <point x="58" y="-193" type="line"/>
      <point x="62" y="-181" type="line"/>
      <point x="69" y="-167" type="line"/>
      <point x="75" y="-148" type="line"/>
      <point x="83" y="-129" type="line"/>
      <point x="88" y="-116" type="line"/>
      <point x="102" y="-80" type="line"/>
      <point x="110" y="-58" type="line"/>
      <point x="116" y="-42" type="line"/>
      <point x="125" y="-16" type="line"/>
      <point x="135" y="11" type="line"/>
      <point x="146" y="41" type="line"/>
      <point x="156" y="72" type="line"/>
      <point x="173" y="126" type="line"/>
      <point x="186" y="176" type="line"/>
      <point x="191" y="207" type="line"/>
      <point x="193" y="264" type="line"/>
      <point x="194" y="291" type="line"/>
      <point x="195" y="353" type="line"/>
      <point x="196" y="374" type="line"/>
      <point x="196" y="406" type="line"/>
      <point x="230" y="405" type="line"/>
      <point x="267" y="405" type="line"/>
      <point x="268" y="455" type="line"/>
      <point x="268" y="500" type="line"/>
      <point x="268" y="528" type="line"/>
      <point x="241" y="528" type="line"/>
      <point x="211" y="528" type="line"/>
      <point x="188" y="528" type="line"/>
      <point x="185" y="547" type="line"/>
      <point x="182" y="559" type="line"/>
      <point x="175" y="578" type="line"/>
      <point x="184" y="591" type="line"/>
      <point x="192" y="602" type="line"/>
      <point x="200" y="615" type="line"/>
      <point x="221" y="612" type="line"/>
      <point x="243" y="606" type="line"/>
      <point x="266" y="598" type="line"/>
      <point x="287" y="587" type="line"/>
      <point x="303" y="606" type="line"/>
      <point x="313" y="621" type="line"/>
      <point x="336" y="647" type="line"/>
      <point x="355" y="670" type="line"/>
    </contour>
  </outline>
</glyph>
<glyph name="j" format="2">
  <advance width="500"/>
  <unicode hex="006A"/>
  <outline>
    <contour>
      <point x="62" y="621" type="line"/>
      <point x="59" y="606" type="line"/>
      <point x="44" y="532" type="line"/>
      <point x="72" y="552" type="line"/>
      <point x="100" y="573" type="line"/>
      <point x="122" y="589" type="line"/>
      <point x="134" y="598" type="line"/>
      <point x="144" y="605" type="line"/>
      <point x="149" y="609" type="line"/>
      <point x="157" y="615" type="line"/>
      <point x="169" y="623" type="line"/>
      <point x="180" y="631" type="line"/>
      <point x="192" y="640" type="line"/>
      <point x="208" y="652" type="line"/>
      <point x="228" y="666" type="line"/>
      <point x="186" y="683" type="line"/>
      <point x="176" y="687" type="line"/>
      <point x="169" y="690" type="line"/>
      <point x="164" y="692" type="line"/>
      <point x="157" y="695" type="line"/>
      <point x="149" y="698" type="line"/>
      <point x="144" y="700" type="line"/>
      <point x="132" y="705" type="line"/>
      <point x="121" y="709" type="line"/>
      <point x="112" y="713" type="line"/>
      <point x="99" y="718" type="line"/>
      <point x="83" y="725" type="line"/>
      <point x="78" y="700" type="line"/>
      <point x="76" y="690" type="line"/>
      <point x="73" y="675" type="line"/>
      <point x="71" y="665" type="line"/>
      <point x="68" y="651" type="line"/>
      <point x="66" y="641" type="line"/>
      <point x="64" y="631" type="line"/>
    </contour>
    <contour>
      <point x="192" y="486" type="line"/>
      <point x="160" y="503" type="line"/>
      <point x="105" y="527" type="line"/>
      <point x="77" y="497" type="line"/>
      <point x="52" y="467" type="line"/>
      <point x="27" y="432" type="line"/>
      <point x="38" y="428" type="line"/>
      <point x="50" y="419" type="line"/>
      <point x="60" y="406" type="line"/>
      <point x="64" y="398" type="line"/>
      <point x="65" y="366" type="line"/>
      <point x="64" y="323" type="line"/>
      <point x="64" y="299" type="line"/>
      <point x="63" y="263" type="line"/>
      <point x="61" y="198" type="line"/>
      <point x="57" y="113" type="line"/>
      <point x="55" y="80" type="line"/>
      <point x="54" y="61" type="line"/>
      <point x="52" y="36" type="line"/>
      <point x="50" y="19" type="line"/>
      <point x="48" y="-3" type="line"/>
      <point x="46" y="-17" type="line"/>
      <point x="43" y="-42" type="line"/>
      <point x="39" y="-59" type="line"/>
      <point x="35" y="-81" type="line"/>
      <point x="32" y="-97" type="line"/>
      <point x="28" y="-115" type="line"/>
      <point x="26" y="-125" type="line"/>
      <point x="24" y="-133" type="line"/>
      <point x="23" y="-137" type="line"/>
      <point x="22" y="-141" type="line"/>
      <point x="21" y="-145" type="line"/>
      <point x="20" y="-149" type="line"/>
      <point x="18" y="-157" type="line"/>
      <point x="17" y="-160" type="line"/>
      <point x="16" y="-164" type="line"/>
      <point x="15" y="-169" type="line"/>
      <point x="19" y="-170" type="line"/>
      <point x="26" y="-172" type="line"/>
      <point x="29" y="-173" type="line"/>
      <point x="32" y="-174" type="line"/>
      <point x="38" y="-176" type="line"/>
      <point x="40" y="-177" type="line"/>
      <point x="47" y="-180" type="line"/>
      <point x="50" y="-182" type="line"/>
      <point x="57" y="-185" type="line"/>
      <point x="62" y="-189" type="line"/>
      <point x="67" y="-191" type="line"/>
      <point x="71" y="-185" type="line"/>
      <point x="77" y="-172" type="line"/>
      <point x="81" y="-164" type="line"/>
      <point x="87" y="-153" type="line"/>
      <point x="90" y="-142" type="line"/>
      <point x="104" y="-95" type="line"/>
      <point x="129" y="-33" type="line"/>
      <point x="153" y="37" type="line"/>
      <point x="167" y="93" type="line"/>
      <point x="175" y="144" type="line"/>
      <point x="188" y="200" type="line"/>
      <point x="188" y="233" type="line"/>
      <point x="188" y="301" type="line"/>
      <point x="189" y="365" type="line"/>
      <point x="193" y="416" type="line"/>
      <point x="206" y="452" type="line"/>
      <point x="212" y="475" type="line"/>
    </contour>
  </outline>
</glyph>
<glyph name="k" format="2">
  <advance width="600"/>
  <unicode hex="006B"/>
  <outline>
    <contour>
      <point x="197" y="681" type="line"/>
      <point x="208" y="749" type="line"/>
      <point x="178" y="734" type="line"/>
      <point x="146" y="715" type="line"/>
      <point x="112" y="697" type="line"/>
      <point x="75" y="679" type="line"/>
      <point x="45" y="660" type="line"/>
      <point x="56" y="644" type="line"/>
      <point x="60" y="633" type="line"/>
      <point x="64" y="624" type="line"/>
      <point x="68" y="597" type="line"/>
      <point x="73" y="554" type="line"/>
      <point x="69" y="433" type="line"/>
      <point x="31" y="356" type="line"/>
      <point x="70" y="350" type="line"/>
      <point x="71" y="243" type="line"/>
      <point x="69" y="213" type="line"/>
      <point x="65" y="189" type="line"/>
      <point x="58" y="171" type="line"/>
      <point x="49" y="156" type="line"/>
      <point x="38" y="142" type="line"/>
      <point x="29" y="132" type="line"/>
      <point x="23" y="126" type="line"/>
      <point x="15" y="116" type="line"/>
      <point x="83" y="65" type="line"/>
      <point x="158" y="7" type="line"/>
      <point x="210" y="64" type="line"/>
      <point x="245" y="103" type="line"/>
      <point x="267" y="126" type="line"/>
      <point x="252" y="134" type="line"/>
      <point x="242" y="139" type="line"/>
      <point x="226" y="146" type="line"/>
      <point x="212" y="156" type="line"/>
      <point x="197" y="165" type="line"/>
      <point x="191" y="175" type="line"/>
      <point x="188" y="200" type="line"/>
      <point x="189" y="224" type="line"/>
      <point x="189" y="250" type="line"/>
      <point x="189" y="289" type="line"/>
      <point x="189" y="299" type="line"/>
      <point x="189" y="310" type="line"/>
      <point x="190" y="326" type="line"/>
      <point x="190" y="340" type="line"/>
      <point x="190" y="351" type="line"/>
      <point x="205" y="351" type="line"/>
      <point x="215" y="351" type="line"/>
      <point x="227" y="351" type="line"/>
      <point x="245" y="351" type="line"/>
      <point x="270" y="351" type="line"/>
      <point x="293" y="351" type="line"/>
      <point x="295" y="356" type="line"/>
      <point x="297" y="360" type="line"/>
      <point x="299" y="364" type="line"/>
      <point x="301" y="367" type="line"/>
      <point x="303" y="371" type="line"/>
      <point x="308" y="381" type="line"/>
      <point x="317" y="398" type="line"/>
      <point x="319" y="402" type="line"/>
      <point x="323" y="409" type="line"/>
      <point x="326" y="415" type="line"/>
      <point x="333" y="429" type="line"/>
      <point x="336" y="434" type="line"/>
      <point x="342" y="446" type="line"/>
      <point x="348" y="457" type="line"/>
      <point x="314" y="457" type="line"/>
      <point x="282" y="457" type="line"/>
      <point x="251" y="457" type="line"/>
      <point x="215" y="456" type="line"/>
      <point x="192" y="457" type="line"/>
      <point x="191" y="576" type="line"/>
      <point x="220" y="599" type="line"/>
      <point x="231" y="593" type="line"/>
      <point x="247" y="579" type="line"/>
      <point x="256" y="565" type="line"/>
      <point x="261" y="553" type="line"/>
      <point x="266" y="539" type="line"/>
      <point x="269" y="519" type="line"/>
      <point x="215" y="456" type="line"/>
      <point x="251" y="457" type="line"/>
      <point x="367" y="593" type="line"/>
      <point x="272" y="714" type="line"/>
      <point x="210" y="651" type="line"/>
      <point x="194" y="635" type="line"/>
    </contour>
  </outline>
</glyph>
<glyph name="l" format="2">
  <advance width="320"/>
  <unicode hex="006C"/>
  <outline>
    <contour>
      <point x="202" y="749" type="curve"/>
      <point x="80" y="684" type="line"/>
      <point x="43" y="663" type="line"/>
      <point x="57" y="640"/>
      <point x="59" y="633"/>
      <point x="61" y="617" type="curve" smooth="yes"/>
      <point x="64" y="596"/>
      <point x="66" y="563"/>
      <point x="66" y="549" type="curve" smooth="yes"/>
      <point x="66" y="535"/>
      <point x="67" y="362"/>
      <point x="68" y="345" type="curve" smooth="yes"/>
      <point x="69" y="328"/>
      <point x="68" y="192"/>
      <point x="52" y="171" type="curve" smooth="yes"/>
      <point x="45" y="161"/>
      <point x="47" y="144"/>
      <point x="13" y="118" type="curve"/>
      <point x="154" y="7" type="line"/>
      <point x="217" y="78" type="line"/>
      <point x="261" y="126" type="line"/>
      <point x="235" y="143"/>
      <point x="199" y="163"/>
      <point x="189" y="175" type="curve" smooth="yes"/>
      <point x="179" y="187"/>
      <point x="184" y="233"/>
      <point x="184" y="253" type="curve" smooth="yes"/>
      <point x="184" y="273"/>
      <point x="187" y="565"/>
      <point x="187" y="575" type="curve" smooth="yes"/>
      <point x="187" y="631"/>
      <point x="190" y="676"/>
    </contour>
  </outline>
</glyph>
<glyph name="m" format="2">
  <advance width="700"/>
  <unicode hex="006D"/>
  <outline>
    <contour>
      <point x="144" y="494" type="line"/>
      <point x="94" y="528" type="line"/>
      <point x="23" y="434" type="line"/>
      <point x="39" y="423" type="line"/>
      <point x="48" y="413" type="line"/>
      <point x="56" y="400" type="line"/>
      <point x="59" y="393" type="line"/>
      <point x="58" y="373" type="line"/>
      <point x="56" y="229" type="line"/>
      <point x="55" y="189" type="line"/>
      <point x="55" y="160" type="line"/>
      <point x="48" y="132" type="line"/>
      <point x="40" y="117" type="line"/>
      <point x="31" y="104" type="line"/>
      <point x="27" y="98" type="line"/>
      <point x="128" y="17" type="line"/>
      <point x="227" y="134" type="line"/>
      <point x="216" y="140" type="line"/>
      <point x="208" y="145" type="line"/>
      <point x="198" y="154" type="line"/>
      <point x="190" y="163" type="line"/>
      <point x="183" y="175" type="line"/>
      <point x="179" y="194" type="line"/>
      <point x="180" y="230" type="line"/>
      <point x="183" y="377" type="line"/>
      <point x="195" y="393" type="line"/>
      <point x="212" y="415" type="line"/>
      <point x="221" y="408" type="line"/>
      <point x="232" y="396" type="line"/>
      <point x="244" y="383" type="line"/>
      <point x="255" y="371" type="line"/>
      <point x="263" y="361" type="line"/>
      <point x="268" y="353" type="line"/>
      <point x="269" y="341" type="line"/>
      <point x="269" y="327" type="line"/>
      <point x="267" y="298" type="line"/>
      <point x="268" y="277" type="line"/>
      <point x="267" y="241" type="line"/>
      <point x="270" y="200" type="line"/>
      <point x="270" y="174" type="line"/>
      <point x="266" y="146" type="line"/>
      <point x="259" y="126" type="line"/>
      <point x="241" y="100" type="line"/>
      <point x="344" y="13" type="line"/>
      <point x="440" y="135" type="line"/>
      <point x="426" y="141" type="line"/>
      <point x="409" y="153" type="line"/>
      <point x="397" y="168" type="line"/>
      <point x="392" y="188" type="line"/>
      <point x="390" y="206" type="line"/>
      <point x="391" y="221" type="line"/>
      <point x="393" y="250" type="line"/>
      <point x="399" y="377" type="line"/>
      <point x="410" y="396" type="line"/>
      <point x="419" y="411" type="line"/>
      <point x="429" y="401" type="line"/>
      <point x="441" y="390" type="line"/>
      <point x="452" y="379" type="line"/>
      <point x="461" y="368" type="line"/>
      <point x="469" y="354" type="line"/>
      <point x="471" y="347" type="line"/>
      <point x="470" y="300" type="line"/>
      <point x="470" y="268" type="line"/>
      <point x="469" y="233" type="line"/>
      <point x="468" y="201" type="line"/>
      <point x="467" y="154" type="line"/>
      <point x="468" y="131" type="line"/>
      <point x="470" y="112" type="line"/>
      <point x="476" y="85" type="line"/>
      <point x="481" y="73" type="line"/>
      <point x="488" y="64" type="line"/>
      <point x="500" y="51" type="line"/>
      <point x="509" y="43" type="line"/>
      <point x="519" y="34" type="line"/>
      <point x="532" y="22" type="line"/>
      <point x="542" y="14" type="line"/>
      <point x="640" y="133" type="line"/>
      <point x="629" y="138" type="line"/>
      <point x="620" y="143" type="line"/>
      <point x="609" y="152" type="line"/>
      <point x="601" y="163" type="line"/>
      <point x="594" y="173" type="line"/>
      <point x="591" y="193" type="line"/>
      <point x="594" y="250" type="line"/>
      <point x="596" y="286" type="line"/>
      <point x="597" y="302" type="line"/>
      <point x="598" y="325" type="line"/>
      <point x="598" y="355" type="line"/>
      <point x="613" y="414" type="line"/>
      <point x="584" y="435" type="line"/>
      <point x="564" y="449" type="line"/>
      <point x="536" y="469" type="line"/>
      <point x="511" y="487" type="line"/>
      <point x="498" y="497" type="line"/>
      <point x="476" y="514" type="line"/>
      <point x="459" y="526" type="line"/>
      <point x="447" y="515" type="line"/>
      <point x="436" y="505" type="line"/>
      <point x="416" y="475" type="line"/>
      <point x="384" y="437" type="line"/>
      <point x="370" y="447" type="line"/>
      <point x="354" y="457" type="line"/>
      <point x="335" y="471" type="line"/>
      <point x="314" y="486" type="line"/>
      <point x="301" y="496" type="line"/>
      <point x="281" y="510" type="line"/>
      <point x="270" y="519" type="line"/>
      <point x="258" y="527" type="line"/>
      <point x="246" y="512" type="line"/>
      <point x="238" y="502" type="line"/>
      <point x="227" y="488" type="line"/>
      <point x="215" y="473" type="line"/>
      <point x="200" y="455" type="line"/>
    </contour>
  </outline>
</glyph>
<glyph name="p" format="2">
  <advance width="500"/>
  <unicode hex="0070"/>
  <outline>
    <contour>
      <point x="129" y="529" type="line"/>
      <point x="98" y="498" type="line"/>
      <point x="76" y="475" type="line"/>
      <point x="57" y="456" type="line"/>
      <point x="41" y="439" type="line"/>
      <point x="20" y="417" type="line"/>
      <point x="35" y="405" type="line"/>
      <point x="63" y="386" type="line"/>
      <point x="81" y="370" type="line"/>
      <point x="94" y="345" type="line"/>
      <point x="96" y="321" type="line"/>
      <point x="96" y="300" type="line"/>
      <point x="95" y="282" type="line"/>
      <point x="95" y="258" type="line"/>
      <point x="95" y="222" type="line"/>
      <point x="24" y="110" type="line"/>
      <point x="93" y="83" type="line"/>
      <point x="93" y="53" type="line"/>
      <point x="93" y="18" type="line"/>
      <point x="92" y="-20" type="line"/>
      <point x="91" y="-46" type="line"/>
      <point x="74" y="-93" type="line"/>
      <point x="61" y="-120" type="line"/>
      <point x="40" y="-154" type="line"/>
      <point x="27" y="-168" type="line"/>
      <point x="51" y="-194" type="line"/>
      <point x="83" y="-175" type="line"/>
      <point x="111" y="-159" type="line"/>
      <point x="150" y="-142" type="line"/>
      <point x="191" y="-129" type="line"/>
      <point x="223" y="-122" type="line"/>
      <point x="222" y="-106"/>
      <point x="221" y="-94"/>
      <point x="220" y="-90" type="curve"/>
      <point x="219" y="-70" type="line"/>
      <point x="218" y="-42" type="line"/>
      <point x="216" y="-2" type="line"/>
      <point x="217" y="34" type="line"/>
      <point x="255" y="19" type="line"/>
      <point x="285" y="7" type="line"/>
      <point x="301" y="26" type="line"/>
      <point x="323" y="53" type="line"/>
      <point x="347" y="84" type="line"/>
      <point x="373" y="118" type="line"/>
      <point x="398" y="149" type="line"/>
      <point x="421" y="177" type="line"/>
      <point x="440" y="202" type="line"/>
      <point x="461" y="233" type="line"/>
      <point x="466" y="250" type="line"/>
      <point x="467" y="275" type="line"/>
      <point x="461" y="318" type="line"/>
      <point x="448" y="346" type="line"/>
      <point x="432" y="374" type="line"/>
      <point x="413" y="414" type="line"/>
      <point x="399" y="434" type="line"/>
      <point x="377" y="455" type="line"/>
      <point x="358" y="471" type="line"/>
      <point x="334" y="506" type="line"/>
      <point x="292" y="526" type="line"/>
      <point x="266" y="504" type="line"/>
      <point x="248" y="480" type="line"/>
      <point x="238" y="464" type="line"/>
      <point x="223" y="443" type="line"/>
      <point x="199" y="464" type="line"/>
      <point x="178" y="484" type="line"/>
      <point x="150" y="508" type="line"/>
    </contour>
    <contour>
      <point x="250" y="392" type="line"/>
      <point x="271" y="376" type="line"/>
      <point x="293" y="357" type="line"/>
      <point x="315" y="332" type="line"/>
      <point x="329" y="304" type="line"/>
      <point x="340" y="282" type="line"/>
      <point x="353" y="245" type="line"/>
      <point x="356" y="215" type="line"/>
      <point x="358" y="184" type="line"/>
      <point x="325" y="151" type="line"/>
      <point x="290" y="158" type="line"/>
      <point x="240" y="164" type="line"/>
      <point x="215" y="184" type="line"/>
      <point x="220" y="219" type="line"/>
      <point x="218" y="243" type="line"/>
      <point x="218" y="274" type="line"/>
      <point x="218" y="302" type="line"/>
      <point x="220" y="335" type="line"/>
      <point x="230" y="364" type="line"/>
    </contour>
  </outline>
</glyph>
<glyph name="q" format="2">
  <advance width="500"/>
  <unicode hex="0071"/>
  <outline>
    <contour>
      <point x="374" y="371" type="line"/>
      <point x="377" y="385" type="line"/>
      <point x="384" y="400" type="line"/>
      <point x="393" y="415" type="line"/>
      <point x="402" y="424" type="line"/>
      <point x="372" y="441" type="line"/>
      <point x="335" y="457" type="line"/>
      <point x="298" y="475" type="line"/>
      <point x="253" y="498" type="line"/>
      <point x="195" y="524" type="line"/>
      <point x="133" y="467" type="line"/>
      <point x="11" y="373" type="line"/>
      <point x="18" y="352" type="line"/>
      <point x="28" y="333" type="line"/>
      <point x="29" y="295" type="line"/>
      <point x="30" y="215" type="line"/>
      <point x="32" y="181" type="line"/>
      <point x="27" y="149" type="line"/>
      <point x="9" y="102" type="line"/>
      <point x="65" y="52" type="line"/>
      <point x="144" y="11" type="line"/>
      <point x="161" y="28" type="line"/>
      <point x="179" y="43" type="line"/>
      <point x="248" y="90" type="line"/>
      <point x="249" y="35" type="line"/>
      <point x="249" y="13" type="line"/>
      <point x="251" y="-18" type="line"/>
      <point x="249" y="-44" type="line"/>
      <point x="249" y="-69" type="line"/>
      <point x="250" y="-80" type="line"/>
      <point x="252" y="-99" type="line"/>
      <point x="257" y="-115" type="line"/>
      <point x="263" y="-127" type="line"/>
      <point x="270" y="-137" type="line"/>
      <point x="282" y="-149" type="line"/>
      <point x="290" y="-156" type="line"/>
      <point x="299" y="-164" type="line"/>
      <point x="312" y="-175" type="line"/>
      <point x="325" y="-186" type="line"/>
      <point x="372" y="-131" type="line"/>
      <point x="412" y="-85" type="line"/>
      <point x="402" y="-75" type="line"/>
      <point x="391" y="-60" type="line"/>
      <point x="380" y="-43" type="line"/>
      <point x="373" y="-28" type="line"/>
      <point x="371" y="-19" type="line"/>
      <point x="371" y="-1" type="line"/>
      <point x="371" y="43" type="line"/>
      <point x="371" y="82" type="line"/>
      <point x="371" y="117" type="line"/>
      <point x="372" y="280" type="line"/>
      <point x="372" y="315" type="line"/>
      <point x="372" y="344" type="line"/>
    </contour>
    <contour>
      <point x="173" y="408" type="line"/>
      <point x="211" y="389" type="line"/>
      <point x="251" y="367" type="line"/>
      <point x="251" y="340" type="line"/>
      <point x="251" y="321" type="line"/>
      <point x="251" y="298" type="line"/>
      <point x="251" y="278" type="line"/>
      <point x="251" y="250" type="line"/>
      <point x="251" y="227" type="line"/>
      <point x="251" y="205" type="line"/>
      <point x="251" y="185" type="line"/>
      <point x="251" y="159" type="line"/>
      <point x="251" y="141" type="line"/>
      <point x="211" y="113" type="line"/>
      <point x="199" y="117" type="line"/>
      <point x="188" y="124" type="line"/>
      <point x="177" y="135" type="line"/>
      <point x="166" y="148" type="line"/>
      <point x="158" y="157" type="line"/>
      <point x="150" y="170" type="line"/>
      <point x="144" y="191" type="line"/>
      <point x="144" y="328" type="line"/>
      <point x="144" y="342" type="line"/>
      <point x="148" y="359" type="line"/>
      <point x="155" y="377" type="line"/>
      <point x="160" y="387" type="line"/>
      <point x="166" y="397" type="line"/>
    </contour>
  </outline>
</glyph>
<glyph name="r" format="2">
  <advance width="410"/>
  <unicode hex="0072"/>
  <outline>
    <contour>
      <point x="91" y="528" type="line"/>
      <point x="85" y="519" type="line"/>
      <point x="79" y="512" type="line"/>
      <point x="70" y="501" type="line"/>
      <point x="62" y="489" type="line"/>
      <point x="50" y="477" type="line"/>
      <point x="42" y="466" type="line"/>
      <point x="29" y="449" type="line"/>
      <point x="17" y="434" type="line"/>
      <point x="24" y="430" type="line"/>
      <point x="35" y="421" type="line"/>
      <point x="42" y="414" type="line"/>
      <point x="47" y="407" type="line"/>
      <point x="51" y="399" type="line"/>
      <point x="53" y="392" type="line"/>
      <point x="54" y="382" type="line"/>
      <point x="54" y="342" type="line"/>
      <point x="54" y="314" type="line"/>
      <point x="54" y="279" type="line"/>
      <point x="54" y="240" type="line"/>
      <point x="55" y="205" type="line"/>
      <point x="54" y="194" type="line"/>
      <point x="53" y="185" type="line"/>
      <point x="50" y="174" type="line"/>
      <point x="46" y="163" type="line"/>
      <point x="42" y="155" type="line"/>
      <point x="38" y="148" type="line"/>
      <point x="35" y="143" type="line"/>
      <point x="30" y="137" type="line"/>
      <point x="26" y="132" type="line"/>
      <point x="176" y="15" type="line"/>
      <point x="258" y="130" type="line"/>
      <point x="252" y="133" type="line"/>
      <point x="245" y="137" type="line"/>
      <point x="236" y="143" type="line"/>
      <point x="226" y="150" type="line"/>
      <point x="218" y="156" type="line"/>
      <point x="214" y="159" type="line"/>
      <point x="204" y="167" type="line"/>
      <point x="195" y="175" type="line"/>
      <point x="187" y="184" type="line"/>
      <point x="181" y="193" type="line"/>
      <point x="179" y="197" type="line"/>
      <point x="176" y="205" type="line"/>
      <point x="174" y="215" type="line"/>
      <point x="175" y="227" type="line"/>
      <point x="176" y="245" type="line"/>
      <point x="177" y="264" type="line"/>
      <point x="183" y="384" type="line"/>
      <point x="200" y="406" type="line"/>
      <point x="210" y="400" type="line"/>
      <point x="219" y="394" type="line"/>
      <point x="230" y="387" type="line"/>
      <point x="241" y="379" type="line"/>
      <point x="251" y="371" type="line"/>
      <point x="261" y="362" type="line"/>
      <point x="270" y="352" type="line"/>
      <point x="281" y="338" type="line"/>
      <point x="288" y="327" type="line"/>
      <point x="294" y="317" type="line"/>
      <point x="299" y="308" type="line"/>
      <point x="303" y="299" type="line"/>
      <point x="311" y="278" type="line"/>
      <point x="320" y="290" type="line"/>
      <point x="329" y="303" type="line"/>
      <point x="339" y="316" type="line"/>
      <point x="349" y="329" type="line"/>
      <point x="358" y="341" type="line"/>
      <point x="364" y="349" type="line"/>
      <point x="374" y="362" type="line"/>
      <point x="382" y="373" type="line"/>
      <point x="389" y="383" type="line"/>
      <point x="380" y="400" type="line"/>
      <point x="375" y="408" type="line"/>
      <point x="368" y="417" type="line"/>
      <point x="359" y="429" type="line"/>
      <point x="351" y="439" type="line"/>
      <point x="341" y="450" type="line"/>
      <point x="329" y="462" type="line"/>
      <point x="320" y="470" type="line"/>
      <point x="307" y="482" type="line"/>
      <point x="297" y="491" type="line"/>
      <point x="285" y="500" type="line"/>
      <point x="274" y="508" type="line"/>
      <point x="257" y="520" type="line"/>
      <point x="249" y="512" type="line"/>
      <point x="237" y="501" type="line"/>
      <point x="223" y="487" type="line"/>
      <point x="214" y="477" type="line"/>
      <point x="205" y="468" type="line"/>
      <point x="193" y="457" type="line"/>
      <point x="185" y="462" type="line"/>
      <point x="166" y="474" type="line"/>
      <point x="147" y="489" type="line"/>
      <point x="123" y="504" type="line"/>
    </contour>
  </outline>
</glyph>
<glyph name="v" format="2">
  <advance width="500"/>
  <unicode hex="0076"/>
  <outline>
    <contour>
      <point x="101" y="527" type="line"/>
      <point x="-9" y="417" type="line"/>
      <point x="6" y="413"/>
      <point x="61" y="360"/>
      <point x="61" y="359" type="curve" smooth="yes"/>
      <point x="71" y="333"/>
      <point x="67" y="318"/>
      <point x="68" y="306" type="curve"/>
      <point x="71" y="236"/>
      <point x="64" y="215"/>
      <point x="65" y="181" type="curve"/>
      <point x="63" y="144"/>
      <point x="41" y="131"/>
      <point x="33" y="96" type="curve"/>
      <point x="60" y="86"/>
      <point x="258" y="7"/>
      <point x="258" y="7" type="curve" smooth="yes"/>
      <point x="268" y="28"/>
      <point x="354" y="123"/>
      <point x="365" y="142" type="curve" smooth="yes"/>
      <point x="372" y="154"/>
      <point x="430" y="221"/>
      <point x="433" y="229" type="curve" smooth="yes"/>
      <point x="463" y="321"/>
      <point x="400" y="393"/>
      <point x="392" y="407" type="curve" smooth="yes"/>
      <point x="336" y="498"/>
      <point x="262" y="527"/>
      <point x="263" y="530" type="curve"/>
      <point x="194" y="444" type="line"/>
      <point x="218" y="393" type="line"/>
      <point x="244" y="379"/>
      <point x="282" y="342"/>
      <point x="300" y="309" type="curve" smooth="yes"/>
      <point x="306" y="298"/>
      <point x="322" y="263"/>
      <point x="325" y="252" type="curve" smooth="yes"/>
      <point x="334" y="220"/>
      <point x="331" y="215"/>
      <point x="332" y="202" type="curve" smooth="yes"/>
      <point x="335" y="172"/>
      <point x="304" y="122"/>
      <point x="211" y="172" type="curve"/>
      <point x="194" y="182" type="line"/>
      <point x="188" y="250"/>
      <point x="196" y="330"/>
      <point x="196" y="350" type="curve" smooth="yes"/>
      <point x="196" y="366"/>
      <point x="210" y="390"/>
      <point x="218" y="393" type="curve" smooth="yes"/>
      <point x="218" y="393"/>
      <point x="197" y="440"/>
      <point x="194" y="444" type="curve"/>
    </contour>
  </outline>
</glyph>
<glyph name="y" format="2">
  <advance width="500"/>
  <unicode hex="0079"/>
  <outline>
    <contour>
      <point x="84" y="477" type="curve"/>
      <point x="49" y="431" type="line"/>
      <point x="112" y="409"/>
      <point x="80" y="374"/>
      <point x="81" y="125" type="curve"/>
      <point x="56" y="79" type="line"/>
      <point x="89" y="65"/>
      <point x="134" y="67"/>
      <point x="226" y="12" type="curve"/>
      <point x="161" y="-40" type="line"/>
      <point x="103" y="-79"/>
      <point x="80" y="-90"/>
      <point x="19" y="-117" type="curve"/>
      <point x="113" y="-194" type="line"/>
      <point x="151" y="-167"/>
      <point x="163" y="-155"/>
      <point x="187" y="-129" type="curve"/>
      <point x="227" y="-83"/>
      <point x="270" y="-13"/>
      <point x="281" y="3" type="curve"/>
      <point x="335" y="99" type="line"/>
      <point x="360" y="144"/>
      <point x="425" y="299"/>
      <point x="458" y="428" type="curve"/>
      <point x="474" y="452" type="line"/>
      <point x="439" y="467"/>
      <point x="398" y="503"/>
      <point x="359" y="524" type="curve"/>
      <point x="285" y="431" type="line"/>
      <point x="305" y="423"/>
      <point x="319" y="411"/>
      <point x="319" y="394" type="curve"/>
      <point x="321" y="356"/>
      <point x="319" y="231"/>
      <point x="286" y="125" type="curve"/>
      <point x="270" y="84" type="line"/>
      <point x="189" y="107"/>
      <point x="192" y="144"/>
      <point x="193" y="155" type="curve" smooth="yes"/>
      <point x="214" y="313"/>
      <point x="208" y="396"/>
      <point x="220" y="410" type="curve" smooth="yes"/>
      <point x="232" y="425"/>
      <point x="243" y="450"/>
      <point x="240" y="452" type="curve" smooth="yes"/>
      <point x="210" y="474"/>
      <point x="124" y="529"/>
      <point x="123" y="528" type="curve" smooth="yes"/>
      <point x="104" y="504"/>
      <point x="99" y="492"/>
    </contour>
  </outline>
</glyph>
<glyph name="cent" format="2">
  <advance width="450"/>
  <unicode hex="00A2"/>
  <outline>
    <contour>
      <point x="261" y="549" type="line"/>
      <point x="261" y="497" type="line"/>
      <point x="292" y="477"/>
      <point x="299" y="472"/>
      <point x="329" y="455" type="curve"/>
      <point x="344" y="446"/>
      <point x="370" y="435"/>
      <point x="406" y="413" type="curve" smooth="yes"/>
      <point x="407" y="412"/>
      <point x="391" y="399"/>
      <point x="384" y="394" type="curve" smooth="yes"/>
      <point x="380" y="391"/>
      <point x="374" y="385"/>
      <point x="366" y="378" type="curve" smooth="yes"/>
      <point x="360" y="373"/>
      <point x="359" y="371"/>
      <point x="347" y="361" type="curve"/>
      <point x="342" y="356"/>
      <point x="340" y="353"/>
      <point x="325" y="341" type="curve"/>
      <point x="318" y="335"/>
      <point x="315" y="332"/>
      <point x="309" y="327" type="curve" smooth="yes"/>
      <point x="309" y="327"/>
      <point x="304" y="330"/>
      <point x="302" y="331" type="curve" smooth="yes"/>
      <point x="297" y="334"/>
      <point x="295" y="335"/>
      <point x="290" y="337" type="curve"/>
      <point x="287" y="339"/>
      <point x="285" y="340"/>
      <point x="283" y="341" type="curve"/>
      <point x="280" y="343"/>
      <point x="278" y="344"/>
      <point x="274" y="346" type="curve"/>
      <point x="272" y="347"/>
      <point x="273" y="347"/>
      <point x="269" y="349" type="curve"/>
      <point x="260" y="354"/>
      <point x="273" y="355"/>
      <point x="260" y="352" type="curve"/>
      <point x="259" y="201"/>
      <point x="261" y="169"/>
      <point x="262" y="169" type="curve"/>
      <point x="277" y="173"/>
      <point x="279" y="175"/>
      <point x="289" y="180" type="curve" smooth="yes"/>
      <point x="299" y="184"/>
      <point x="303" y="187"/>
      <point x="312" y="194" type="curve" smooth="yes"/>
      <point x="321" y="201"/>
      <point x="327" y="206"/>
      <point x="333" y="214" type="curve"/>
      <point x="338" y="221"/>
      <point x="340" y="224"/>
      <point x="341" y="226" type="curve"/>
      <point x="384" y="196" type="line"/>
      <point x="357" y="172"/>
      <point x="350" y="166"/>
      <point x="325" y="144" type="curve" smooth="yes"/>
      <point x="297" y="119"/>
      <point x="278" y="106"/>
      <point x="262" y="92" type="curve"/>
      <point x="253" y="-150" type="line"/>
      <point x="203" y="-149" type="line"/>
      <point x="202" y="40" type="line"/>
      <point x="193" y="34"/>
      <point x="185" y="26"/>
      <point x="174" y="15" type="curve" smooth="yes"/>
      <point x="174" y="15"/>
      <point x="95" y="70"/>
      <point x="64" y="115" type="curve" smooth="yes"/>
      <point x="38" y="152"/>
      <point x="38" y="155"/>
      <point x="29" y="179" type="curve" smooth="yes"/>
      <point x="20" y="202"/>
      <point x="15" y="233"/>
      <point x="18" y="278" type="curve" smooth="yes"/>
      <point x="21" y="317"/>
      <point x="33" y="339"/>
      <point x="46" y="363" type="curve"/>
      <point x="64" y="396"/>
      <point x="70" y="403"/>
      <point x="82" y="418" type="curve" smooth="yes"/>
      <point x="93" y="433"/>
      <point x="98" y="438"/>
      <point x="123" y="462" type="curve" smooth="yes"/>
      <point x="136" y="475"/>
      <point x="147" y="486"/>
      <point x="160" y="498" type="curve" smooth="yes"/>
      <point x="183" y="518"/>
      <point x="188" y="522"/>
      <point x="201" y="532" type="curve"/>
      <point x="201" y="549" type="line"/>
    </contour>
    <contour>
      <point x="202" y="390" type="line"/>
      <point x="186" y="398"/>
      <point x="172" y="410"/>
      <point x="159" y="401" type="curve" smooth="yes"/>
      <point x="148" y="394"/>
      <point x="138" y="387"/>
      <point x="124" y="355" type="curve" smooth="yes"/>
      <point x="118" y="341"/>
      <point x="116" y="326"/>
      <point x="123" y="292" type="curve"/>
      <point x="127" y="278"/>
      <point x="129" y="274"/>
      <point x="132" y="266" type="curve"/>
      <point x="135" y="260"/>
      <point x="142" y="248"/>
      <point x="144" y="245" type="curve" smooth="yes"/>
      <point x="148" y="239"/>
      <point x="152" y="232"/>
      <point x="155" y="228" type="curve" smooth="yes"/>
      <point x="158" y="224"/>
      <point x="160" y="221"/>
      <point x="165" y="215" type="curve"/>
      <point x="170" y="209"/>
      <point x="172" y="207"/>
      <point x="178" y="200" type="curve"/>
      <point x="189" y="188"/>
      <point x="191" y="186"/>
      <point x="201" y="176" type="curve"/>
    </contour>
  </outline>
</glyph>
<glyph name="sterling" format="2">
  <advance width="650"/>
  <unicode hex="00A3"/>
  <outline>
    <contour>
      <point x="548" y="669" type="curve"/>
      <point x="544" y="702"/>
      <point x="530" y="724"/>
      <point x="514" y="739" type="curve" smooth="yes"/>
      <point x="479" y="772"/>
      <point x="391" y="726"/>
      <point x="376" y="718" type="curve" smooth="yes"/>
      <point x="354" y="707"/>
      <point x="148" y="633"/>
      <point x="88" y="607" type="curve" smooth="yes"/>
      <point x="51" y="591"/>
      <point x="50" y="576"/>
      <point x="63" y="511" type="curve" smooth="yes"/>
      <point x="76" y="446"/>
      <point x="110" y="411"/>
      <point x="119" y="335" type="curve"/>
      <point x="74" y="337" type="line"/>
      <point x="48" y="260" type="line"/>
      <point x="109" y="260" type="line"/>
      <point x="104" y="240"/>
      <point x="99" y="234"/>
      <point x="97" y="229" type="curve" smooth="yes"/>
      <point x="91" y="212"/>
      <point x="84" y="206"/>
      <point x="78" y="194" type="curve"/>
      <point x="66" y="174" type="line"/>
      <point x="61" y="166"/>
      <point x="62" y="166"/>
      <point x="46" y="145" type="curve" smooth="yes"/>
      <point x="16" y="106"/>
      <point x="11" y="100"/>
      <point x="11" y="100" type="curve" smooth="yes"/>
      <point x="59" y="89"/>
      <point x="95" y="83"/>
      <point x="139" y="73" type="curve" smooth="yes"/>
      <point x="164" y="67"/>
      <point x="205" y="60"/>
      <point x="247" y="50" type="curve"/>
      <point x="326" y="35" type="line"/>
      <point x="375" y="25"/>
      <point x="396" y="19"/>
      <point x="427" y="16" type="curve" smooth="yes"/>
      <point x="442" y="15"/>
      <point x="467" y="17"/>
      <point x="479" y="35" type="curve" smooth="yes"/>
      <point x="493" y="57"/>
      <point x="510" y="82"/>
      <point x="526" y="105" type="curve"/>
      <point x="554" y="149" type="line"/>
      <point x="508" y="150"/>
      <point x="480" y="151"/>
      <point x="453" y="152" type="curve" smooth="yes"/>
      <point x="420" y="154"/>
      <point x="353" y="164"/>
      <point x="315" y="170" type="curve" smooth="yes"/>
      <point x="282" y="175"/>
      <point x="254" y="182"/>
      <point x="248" y="184" type="curve" smooth="yes"/>
      <point x="229" y="189"/>
      <point x="217" y="191"/>
      <point x="204" y="196" type="curve" smooth="yes"/>
      <point x="202" y="197"/>
      <point x="218" y="206"/>
      <point x="227" y="225" type="curve" smooth="yes"/>
      <point x="235" y="243"/>
      <point x="238" y="244"/>
      <point x="241" y="259" type="curve"/>
      <point x="336" y="258" type="line"/>
      <point x="361" y="333" type="line"/>
      <point x="252" y="336" type="line"/>
      <point x="256" y="418"/>
      <point x="213" y="509"/>
      <point x="223" y="550" type="curve" smooth="yes"/>
      <point x="228" y="569"/>
      <point x="261" y="597"/>
      <point x="285" y="610" type="curve" smooth="yes"/>
      <point x="330" y="634"/>
      <point x="343" y="638"/>
      <point x="380" y="648" type="curve" smooth="yes"/>
      <point x="402" y="654"/>
      <point x="399" y="652"/>
      <point x="439" y="659" type="curve" smooth="yes"/>
      <point x="456" y="662"/>
      <point x="466" y="666"/>
      <point x="476" y="667" type="curve" smooth="yes"/>
      <point x="498" y="668"/>
      <point x="507" y="676"/>
    </contour>
    <contour>
      <point x="163" y="106" type="curve"/>
      <point x="163" y="106"/>
      <point x="162" y="106"/>
      <point x="162" y="106" type="curve" smooth="yes"/>
      <point x="162" y="106"/>
      <point x="162" y="107"/>
      <point x="162" y="107" type="curve" smooth="yes"/>
      <point x="162" y="107"/>
      <point x="162" y="107"/>
      <point x="163" y="107" type="curve" smooth="yes"/>
      <point x="163" y="107"/>
      <point x="163" y="107"/>
    </contour>
  </outline>
</glyph>
<glyph name="brokenbar" format="2">
  <advance width="300"/>
  <unicode hex="00A6"/>
  <outline>
    <contour>
      <point x="132" y="656" type="line"/>
      <point x="132" y="327" type="line"/>
      <point x="182" y="327" type="line"/>
      <point x="182" y="656" type="line"/>
    </contour>
    <contour>
      <point x="134" y="148" type="line"/>
      <point x="134" y="-152" type="line"/>
      <point x="180" y="-152" type="line"/>
      <point x="180" y="148" type="line"/>
    </contour>
  </outline>
</glyph>
<glyph name="copyright" format="2">
  <advance width="630"/>
  <unicode hex="00A9"/>
  <outline>
    <contour>
      <point x="542" y="331" type="curve" smooth="yes"/>
      <point x="542" y="208"/>
      <point x="443" y="109"/>
      <point x="319" y="109" type="curve" smooth="yes"/>
      <point x="196" y="109"/>
      <point x="97" y="208"/>
      <point x="97" y="331" type="curve" smooth="yes"/>
      <point x="97" y="455"/>
      <point x="196" y="554"/>
      <point x="319" y="554" type="curve" smooth="yes"/>
      <point x="443" y="554"/>
      <point x="542" y="455"/>
    </contour>
    <contour>
      <point x="569" y="331" type="curve" smooth="yes"/>
      <point x="569" y="470"/>
      <point x="457" y="582"/>
      <point x="318" y="582" type="curve" smooth="yes"/>
      <point x="179" y="582"/>
      <point x="68" y="470"/>
      <point x="68" y="331" type="curve" smooth="yes"/>
      <point x="68" y="192"/>
      <point x="179" y="81"/>
      <point x="318" y="81" type="curve" smooth="yes"/>
      <point x="457" y="81"/>
      <point x="569" y="192"/>
    </contour>
    <contour>
      <point x="405" y="409" type="line"/>
      <point x="457" y="504" type="line"/>
      <point x="421" y="498" type="line"/>
      <point x="411" y="485" type="line"/>
      <point x="385" y="457"/>
      <point x="365" y="503"/>
      <point x="319" y="505" type="curve" smooth="yes"/>
      <point x="278" y="507"/>
      <point x="246" y="493"/>
      <point x="215" y="458" type="curve" smooth="yes"/>
      <point x="192" y="433"/>
      <point x="166" y="383"/>
      <point x="166" y="338" type="curve" smooth="yes"/>
      <point x="166" y="299"/>
      <point x="169" y="263"/>
      <point x="193" y="226" type="curve" smooth="yes"/>
      <point x="222" y="181"/>
      <point x="276" y="147"/>
      <point x="317" y="154" type="curve" smooth="yes"/>
      <point x="371" y="162"/>
      <point x="388" y="180"/>
      <point x="410" y="202" type="curve" smooth="yes"/>
      <point x="415" y="208"/>
      <point x="433" y="236"/>
      <point x="445" y="263" type="curve"/>
      <point x="414" y="263" type="line"/>
      <point x="411" y="253"/>
      <point x="406" y="238"/>
      <point x="395" y="225" type="curve" smooth="yes"/>
      <point x="383" y="210"/>
      <point x="376" y="199"/>
      <point x="330" y="195" type="curve" smooth="yes"/>
      <point x="302" y="193"/>
      <point x="279" y="221"/>
      <point x="265" y="245" type="curve" smooth="yes"/>
      <point x="244" y="280"/>
      <point x="242" y="305"/>
      <point x="237" y="355" type="curve" smooth="yes"/>
      <point x="234" y="386"/>
      <point x="236" y="428"/>
      <point x="255" y="451" type="curve" smooth="yes"/>
      <point x="279" y="480"/>
      <point x="289" y="476"/>
      <point x="314" y="476" type="curve" smooth="yes"/>
      <point x="335" y="477"/>
      <point x="343" y="468"/>
      <point x="367" y="449" type="curve" smooth="yes"/>
      <point x="373" y="444"/>
      <point x="373" y="440"/>
      <point x="384" y="412" type="curve"/>
    </contour>
  </outline>
</glyph>
<glyph name="guillemetleft" format="2">
  <advance width="580"/>
  <unicode hex="00AB"/>
  <outline>
    <contour>
      <point x="324" y="470" type="line"/>
      <point x="243" y="517" type="line"/>
      <point x="20" y="277" type="line"/>
      <point x="247" y="43" type="line"/>
      <point x="327" y="97" type="line"/>
      <point x="179" y="285" type="line"/>
    </contour>
    <contour>
      <point x="567" y="470" type="line"/>
      <point x="486" y="517" type="line"/>
      <point x="259" y="281" type="line"/>
      <point x="485" y="43" type="line"/>
      <point x="564" y="93" type="line"/>
      <point x="418" y="285" type="line"/>
    </contour>
  </outline>
</glyph>
<glyph name="logicalnot" format="2">
  <advance width="300"/>
  <unicode hex="00AC"/>
  <outline>
    <contour>
      <point x="290" y="342" type="line"/>
      <point x="47" y="342" type="line"/>
      <point x="47" y="294" type="line"/>
      <point x="248" y="294" type="line"/>
      <point x="249" y="232" type="line"/>
      <point x="290" y="232" type="line"/>
    </contour>
  </outline>
</glyph>
<glyph name="registered" format="2">
  <advance width="620"/>
  <unicode hex="00AE"/>
  <outline>
    <contour>
      <point x="566" y="340" type="curve" smooth="yes"/>
      <point x="566" y="476"/>
      <point x="432" y="578"/>
      <point x="306" y="578" type="curve" smooth="yes"/>
      <point x="179" y="578"/>
      <point x="53" y="472"/>
      <point x="53" y="336" type="curve" smooth="yes"/>
      <point x="53" y="201"/>
      <point x="167" y="91"/>
      <point x="323" y="95" type="curve" smooth="yes"/>
      <point x="450" y="98"/>
      <point x="566" y="205"/>
    </contour>
    <contour>
      <point x="544" y="341" type="curve" smooth="yes"/>
      <point x="544" y="228"/>
      <point x="426" y="117"/>
      <point x="315" y="117" type="curve" smooth="yes"/>
      <point x="177" y="117"/>
      <point x="76" y="218"/>
      <point x="76" y="331" type="curve" smooth="yes"/>
      <point x="76" y="446"/>
      <point x="169" y="557"/>
      <point x="308" y="555" type="curve" smooth="yes"/>
      <point x="443" y="553"/>
      <point x="544" y="456"/>
    </contour>
    <contour>
      <point x="168" y="500" type="curve"/>
      <point x="166" y="474" type="line"/>
      <point x="198" y="477"/>
      <point x="195" y="468"/>
      <point x="197" y="460" type="curve" smooth="yes"/>
      <point x="199" y="453"/>
      <point x="198" y="304"/>
      <point x="196" y="293" type="curve" smooth="yes"/>
      <point x="191" y="266"/>
      <point x="217" y="178"/>
      <point x="166" y="194" type="curve"/>
      <point x="166" y="166" type="line"/>
      <point x="297" y="163" type="line"/>
      <point x="300" y="190" type="line"/>
      <point x="264" y="190"/>
      <point x="268" y="237"/>
      <point x="272" y="299" type="curve"/>
      <point x="291" y="302" type="line"/>
      <point x="314" y="303"/>
      <point x="322" y="289"/>
      <point x="323" y="284" type="curve" smooth="yes"/>
      <point x="332" y="210"/>
      <point x="341" y="175"/>
      <point x="400" y="161" type="curve"/>
      <point x="415" y="160" type="line"/>
      <point x="446" y="167" type="line"/>
      <point x="474" y="192"/>
      <point x="482" y="251"/>
      <point x="474" y="254" type="curve" smooth="yes"/>
      <point x="466" y="257"/>
      <point x="448" y="258"/>
      <point x="448" y="256" type="curve" smooth="yes"/>
      <point x="449" y="232"/>
      <point x="439" y="218"/>
      <point x="426" y="220" type="curve" smooth="yes"/>
      <point x="403" y="223"/>
      <point x="392" y="288"/>
      <point x="371" y="303" type="curve"/>
      <point x="417" y="303"/>
      <point x="449" y="349"/>
      <point x="447" y="416" type="curve" smooth="yes"/>
      <point x="445" y="499"/>
      <point x="388" y="504"/>
      <point x="274" y="499" type="curve" smooth="yes"/>
      <point x="262" y="498"/>
      <point x="222" y="498"/>
    </contour>
    <contour>
      <point x="271" y="422" type="line"/>
      <point x="271" y="440"/>
      <point x="269" y="474"/>
      <point x="273" y="474" type="curve" smooth="yes"/>
      <point x="276" y="474"/>
      <point x="323" y="473"/>
      <point x="330" y="472" type="curve" smooth="yes"/>
      <point x="362" y="469"/>
      <point x="367" y="454"/>
      <point x="369" y="446" type="curve" smooth="yes"/>
      <point x="371" y="437"/>
      <point x="379" y="401"/>
      <point x="377" y="395" type="curve" smooth="yes"/>
      <point x="376" y="389"/>
      <point x="380" y="351"/>
      <point x="359" y="342" type="curve" smooth="yes"/>
      <point x="354" y="340"/>
      <point x="341" y="322"/>
      <point x="270" y="331" type="curve"/>
    </contour>
  </outline>
</glyph>
<glyph name="degree" format="2">
  <advance width="353.4549612503215"/>
  <unicode hex="00B0"/>
  <outline>
    <contour>
      <point x="94.10984119727061" y="630" type="curve"/>
      <point x="118.10984119727061" y="649"/>
      <point x="142.1098411972706" y="642"/>
      <point x="155.1098411972706" y="632" type="curve"/>
      <point x="191.1098411972706" y="591" type="line"/>
      <point x="226.1098411972706" y="536"/>
      <point x="227.1098411972706" y="534"/>
      <point x="248.1098411972706" y="463" type="curve"/>
      <point x="252.1098411972706" y="460"/>
      <point x="259.1098411972706" y="430"/>
      <point x="232.1098411972706" y="405" type="curve"/>
      <point x="210.1098411972706" y="389"/>
      <point x="202.1098411972706" y="387"/>
      <point x="169.1098411972706" y="407" type="curve"/>
      <point x="165.1098411972706" y="410"/>
      <point x="147.1098411972706" y="427"/>
      <point x="127.10984119727061" y="463" type="curve"/>
      <point x="120.10984119727061" y="467"/>
      <point x="105.10984119727061" y="498"/>
      <point x="78.10984119727061" y="556" type="curve"/>
      <point x="75.10984119727061" y="560"/>
      <point x="73.10984119727061" y="615"/>
    </contour>
    <contour>
      <point x="172.1098411972706" y="748" type="curve"/>
      <point x="145.1098411972706" y="742"/>
      <point x="148.1098411972706" y="740"/>
      <point x="128.1098411972706" y="722" type="curve"/>
      <point x="121.10984119727061" y="718"/>
      <point x="105.10984119727061" y="699"/>
      <point x="69.10984119727061" y="655" type="curve"/>
      <point x="65.10984119727061" y="649"/>
      <point x="51.10984119727062" y="630"/>
      <point x="31.10984119727062" y="580" type="curve"/>
      <point x="25.10984119727062" y="564"/>
      <point x="19.10984119727062" y="542"/>
      <point x="20.10984119727062" y="491" type="curve"/>
      <point x="22.10984119727062" y="459"/>
      <point x="29.10984119727062" y="445"/>
      <point x="47.10984119727062" y="400" type="curve"/>
      <point x="59.10984119727062" y="376"/>
      <point x="68.10984119727061" y="361"/>
      <point x="102.10984119727061" y="318" type="curve"/>
      <point x="128.1098411972706" y="290"/>
      <point x="134.1098411972706" y="277"/>
      <point x="162.1098411972706" y="272" type="curve"/>
      <point x="197.1098411972706" y="272"/>
      <point x="208.1098411972706" y="294"/>
      <point x="239.1098411972706" y="323" type="curve"/>
      <point x="255.1098411972706" y="341"/>
      <point x="266.1098411972706" y="351"/>
      <point x="300.1098411972706" y="404" type="curve"/>
      <point x="304.1098411972706" y="407"/>
      <point x="320.1098411972706" y="439"/>
      <point x="332.1098411972706" y="502" type="curve"/>
      <point x="335.1098411972706" y="536"/>
      <point x="335.1098411972706" y="549"/>
      <point x="310.1098411972706" y="608" type="curve"/>
      <point x="299.1098411972706" y="626"/>
      <point x="291.1098411972706" y="642"/>
      <point x="260.1098411972706" y="680" type="curve"/>
      <point x="226.1098411972706" y="709"/>
      <point x="216.1098411972706" y="737"/>
    </contour>
  </outline>
</glyph>
<glyph name="plusminus" format="2">
  <advance width="500"/>
  <unicode hex="00B1"/>
  <outline>
    <contour>
      <point x="54" y="80" type="line"/>
      <point x="54" y="5" type="line"/>
      <point x="452" y="6" type="line"/>
      <point x="452" y="81" type="line"/>
    </contour>
    <contour>
      <point x="212" y="496" type="line"/>
      <point x="212" y="367" type="line"/>
      <point x="52" y="367" type="line"/>
      <point x="52" y="295" type="line"/>
      <point x="212" y="295" type="line"/>
      <point x="212" y="148" type="line"/>
      <point x="291" y="148" type="line"/>
      <point x="291" y="295" type="line"/>
      <point x="447" y="295" type="line"/>
      <point x="447" y="367" type="line"/>
      <point x="291" y="367" type="line"/>
      <point x="291" y="496" type="line"/>
    </contour>
  </outline>
</glyph>
<glyph name="paragraph" format="2">
  <advance width="800"/>
  <unicode hex="00B6"/>
  <outline>
    <contour>
      <point x="530" y="56" type="line"/>
      <point x="547" y="57"/>
      <point x="563" y="56"/>
      <point x="570" y="54" type="curve" smooth="yes"/>
      <point x="587" y="48"/>
      <point x="569" y="-21"/>
      <point x="582" y="-38" type="curve" smooth="yes"/>
      <point x="588" y="-46"/>
      <point x="610" y="-47"/>
      <point x="618" y="-42" type="curve" smooth="yes"/>
      <point x="635" y="-32"/>
      <point x="623" y="36"/>
      <point x="634" y="54" type="curve" smooth="yes"/>
      <point x="641" y="66"/>
      <point x="726" y="60"/>
      <point x="741" y="70" type="curve" smooth="yes"/>
      <point x="758" y="81"/>
      <point x="762" y="108"/>
      <point x="742" y="119" type="curve" smooth="yes"/>
      <point x="722" y="130"/>
      <point x="638" y="85"/>
      <point x="637" y="115" type="curve" smooth="yes"/>
      <point x="634" y="196"/>
      <point x="639" y="620"/>
      <point x="657" y="622" type="curve" smooth="yes"/>
      <point x="675" y="624"/>
      <point x="682" y="617"/>
      <point x="710" y="615" type="curve" smooth="yes"/>
      <point x="725" y="614"/>
      <point x="730" y="623"/>
      <point x="732" y="637" type="curve"/>
      <point x="733" y="654"/>
      <point x="724" y="661"/>
      <point x="723" y="661" type="curve" smooth="yes"/>
      <point x="689" y="672"/>
      <point x="654" y="663"/>
      <point x="655" y="674" type="curve" smooth="yes"/>
      <point x="658" y="699"/>
      <point x="662" y="729"/>
      <point x="649" y="738" type="curve" smooth="yes"/>
      <point x="636" y="747"/>
      <point x="622" y="742"/>
      <point x="611" y="738" type="curve" smooth="yes"/>
      <point x="600" y="734"/>
      <point x="576" y="747"/>
      <point x="558" y="740" type="curve" smooth="yes"/>
      <point x="540" y="733"/>
      <point x="547" y="687"/>
      <point x="549" y="679" type="curve" smooth="yes"/>
      <point x="551" y="671"/>
      <point x="525" y="672"/>
      <point x="513" y="679" type="curve" smooth="yes"/>
      <point x="502" y="686"/>
      <point x="520" y="713"/>
      <point x="507" y="731" type="curve" smooth="yes"/>
      <point x="498" y="743"/>
      <point x="479" y="744"/>
      <point x="457" y="739" type="curve"/>
      <point x="427" y="743"/>
      <point x="412" y="747"/>
      <point x="401" y="732" type="curve" smooth="yes"/>
      <point x="394" y="722"/>
      <point x="400" y="706"/>
      <point x="396" y="677" type="curve"/>
      <point x="337" y="671"/>
      <point x="250" y="664"/>
      <point x="198" y="632" type="curve" smooth="yes"/>
      <point x="157" y="606"/>
      <point x="25" y="545"/>
      <point x="19" y="348" type="curve" smooth="yes"/>
      <point x="17" y="287"/>
      <point x="84" y="153"/>
      <point x="203" y="93" type="curve" smooth="yes"/>
      <point x="290" y="49"/>
      <point x="395" y="58"/>
      <point x="406" y="56" type="curve" smooth="yes"/>
      <point x="417" y="54"/>
      <point x="424" y="60"/>
      <point x="427" y="36" type="curve" smooth="yes"/>
      <point x="428" y="23"/>
      <point x="425" y="-25"/>
      <point x="433" y="-38" type="curve" smooth="yes"/>
      <point x="436" y="-42"/>
      <point x="460" y="-53"/>
      <point x="473" y="-36" type="curve" smooth="yes"/>
      <point x="481" y="-25"/>
      <point x="478" y="11"/>
      <point x="480" y="42" type="curve" smooth="yes"/>
      <point x="481" y="60"/>
      <point x="507" y="56"/>
      <point x="530" y="56" type="curve"/>
      <point x="527" y="107" type="line"/>
      <point x="504" y="107"/>
      <point x="487" y="103"/>
      <point x="485" y="114" type="curve" smooth="yes"/>
      <point x="481" y="134"/>
      <point x="495" y="346"/>
      <point x="493" y="370" type="curve" smooth="yes"/>
      <point x="491" y="394"/>
      <point x="497" y="616"/>
      <point x="509" y="624" type="curve" smooth="yes"/>
      <point x="521" y="632"/>
      <point x="533" y="633"/>
      <point x="550" y="624" type="curve"/>
      <point x="562" y="446"/>
      <point x="565" y="344"/>
      <point x="566" y="319" type="curve" smooth="yes"/>
      <point x="568" y="282"/>
      <point x="580" y="138"/>
      <point x="571" y="118" type="curve" smooth="yes"/>
      <point x="567" y="109"/>
      <point x="546" y="107"/>
      <point x="527" y="107" type="curve"/>
    </contour>
    <contour>
      <point x="403" y="617" type="curve"/>
      <point x="425" y="121" type="line"/>
      <point x="412" y="97"/>
      <point x="367" y="120"/>
      <point x="335" y="164" type="curve" smooth="yes"/>
      <point x="303" y="208"/>
      <point x="287" y="295"/>
      <point x="287" y="348" type="curve" smooth="yes"/>
      <point x="287" y="401"/>
      <point x="303" y="510"/>
      <point x="320" y="551" type="curve" smooth="yes"/>
      <point x="331" y="578"/>
      <point x="369" y="623"/>
    </contour>
  </outline>
</glyph>
<glyph name="Agrave" format="2">
  <advance width="690"/>
  <unicode hex="00C0"/>
  <outline>
    <contour>
      <point x="221" y="635" type="line"/>
      <point x="220" y="636" type="line"/>
      <point x="219" y="764"/>
      <point x="197" y="826"/>
      <point x="196" y="826" type="curve"/>
      <point x="168" y="818"/>
      <point x="81" y="805"/>
      <point x="82" y="803" type="curve"/>
      <point x="100" y="788"/>
      <point x="118" y="759"/>
      <point x="126" y="751" type="curve" smooth="yes"/>
      <point x="132" y="745"/>
      <point x="158" y="718"/>
      <point x="199" y="658" type="curve"/>
    </contour>
    <contour>
      <point x="202" y="575" type="qcurve"/>
      <point x="158" y="543"/>
      <point x="105" y="516" type="qcurve"/>
      <point x="141" y="444"/>
      <point x="149" y="341" type="qcurve" smooth="yes"/>
      <point x="158" y="237"/>
      <point x="137" y="151" type="qcurve" smooth="yes"/>
      <point x="117" y="65"/>
      <point x="89" y="-12" type="qcurve" smooth="yes"/>
      <point x="69" y="-69"/>
      <point x="33" y="-115" type="qcurve" smooth="yes"/>
      <point x="23" y="-128"/>
      <point x="8" y="-144" type="qcurve"/>
      <point x="8" y="-142"/>
      <point x="49" y="-170" type="qcurve"/>
      <point x="57" y="-162"/>
      <point x="97" y="-115" type="qcurve" smooth="yes"/>
      <point x="145" y="-60"/>
      <point x="200" y="17" type="qcurve" smooth="yes"/>
      <point x="288" y="139"/>
      <point x="306" y="315" type="qcurve"/>
      <point x="491" y="315" type="line"/>
      <point x="491" y="189"/>
      <point x="480" y="111" type="qcurve"/>
      <point x="542" y="57" type="line"/>
      <point x="593" y="14" type="line"/>
      <point x="680" y="134" type="line"/>
      <point x="651" y="158" type="line"/>
      <point x="630" y="175" type="line" smooth="yes"/>
      <point x="619" y="184"/>
      <point x="619" y="216" type="qcurve" smooth="yes"/>
      <point x="615" y="482" type="line"/>
      <point x="615" y="509" type="line" smooth="yes"/>
      <point x="615" y="526"/>
      <point x="619" y="535" type="qcurve"/>
      <point x="629" y="553"/>
      <point x="645" y="567" type="qcurve" smooth="yes"/>
      <point x="662" y="580"/>
      <point x="673" y="598" type="qcurve"/>
      <point x="554" y="629"/>
      <point x="421" y="758" type="qcurve"/>
      <point x="388" y="722"/>
      <point x="344" y="689" type="qcurve"/>
      <point x="326" y="669"/>
      <point x="316" y="663" type="qcurve" smooth="yes"/>
      <point x="306" y="657"/>
      <point x="306" y="652" type="qcurve"/>
      <point x="270" y="626"/>
      <point x="251" y="616" type="qcurve" smooth="yes"/>
      <point x="242" y="611"/>
    </contour>
    <contour>
      <point x="489" y="431" type="qcurve"/>
      <point x="311" y="431" type="line"/>
      <point x="315" y="498"/>
      <point x="321" y="555" type="qcurve" smooth="yes"/>
      <point x="328" y="612"/>
      <point x="386" y="592" type="qcurve"/>
      <point x="445" y="566"/>
      <point x="491" y="534" type="qcurve"/>
      <point x="490" y="536"/>
      <point x="491" y="504" type="qcurve" smooth="yes"/>
      <point x="492" y="475"/>
    </contour>
  </outline>
</glyph>
<glyph name="Atilde" format="2">
  <advance width="690"/>
  <unicode hex="00C3"/>
  <outline>
    <contour>
      <point x="559" y="894" type="line"/>
      <point x="552" y="859"/>
      <point x="573" y="830"/>
      <point x="541" y="819" type="curve" smooth="yes"/>
      <point x="509" y="808"/>
      <point x="458" y="814"/>
      <point x="436" y="832" type="curve" smooth="yes"/>
      <point x="414" y="850"/>
      <point x="357" y="884"/>
      <point x="333" y="889" type="curve" smooth="yes"/>
      <point x="309" y="894"/>
      <point x="223" y="891"/>
      <point x="204" y="876" type="curve" smooth="yes"/>
      <point x="191" y="866"/>
      <point x="169" y="839"/>
      <point x="136" y="795" type="curve"/>
      <point x="276" y="662" type="line"/>
      <point x="283" y="699"/>
      <point x="267" y="706"/>
      <point x="285" y="734" type="curve" smooth="yes"/>
      <point x="303" y="762"/>
      <point x="296" y="804"/>
      <point x="329" y="806" type="curve" smooth="yes"/>
      <point x="362" y="808"/>
      <point x="400" y="802"/>
      <point x="414" y="789" type="curve" smooth="yes"/>
      <point x="428" y="776"/>
      <point x="469" y="754"/>
      <point x="491" y="745" type="curve" smooth="yes"/>
      <point x="506" y="739"/>
      <point x="532" y="721"/>
      <point x="570" y="690" type="curve"/>
      <point x="633" y="725" type="line"/>
      <point x="654" y="742"/>
      <point x="669" y="765"/>
      <point x="679" y="793" type="curve"/>
    </contour>
    <contour>
      <point x="204" y="555" type="qcurve"/>
      <point x="160" y="523"/>
      <point x="107" y="496" type="qcurve"/>
      <point x="143" y="424"/>
      <point x="152" y="321" type="qcurve" smooth="yes"/>
      <point x="160" y="217"/>
      <point x="140" y="131" type="qcurve" smooth="yes"/>
      <point x="119" y="45"/>
      <point x="91" y="-32" type="qcurve" smooth="yes"/>
      <point x="71" y="-89"/>
      <point x="35" y="-135" type="qcurve" smooth="yes"/>
      <point x="25" y="-148"/>
      <point x="10" y="-164" type="qcurve"/>
      <point x="10" y="-162"/>
      <point x="51" y="-190" type="qcurve"/>
      <point x="59" y="-182"/>
      <point x="99" y="-135" type="qcurve" smooth="yes"/>
      <point x="147" y="-80"/>
      <point x="202" y="-3" type="qcurve" smooth="yes"/>
      <point x="290" y="119"/>
      <point x="308" y="295" type="qcurve"/>
      <point x="493" y="295" type="line"/>
      <point x="493" y="169"/>
      <point x="482" y="91" type="qcurve"/>
      <point x="544" y="37" type="line"/>
      <point x="595" y="-6" type="line"/>
      <point x="682" y="114" type="line"/>
      <point x="653" y="138" type="line"/>
      <point x="632" y="155" type="line" smooth="yes"/>
      <point x="621" y="164"/>
      <point x="621" y="196" type="qcurve" smooth="yes"/>
      <point x="617" y="462" type="line"/>
      <point x="617" y="489" type="line" smooth="yes"/>
      <point x="617" y="506"/>
      <point x="621" y="515" type="qcurve"/>
      <point x="631" y="533"/>
      <point x="648" y="547" type="qcurve" smooth="yes"/>
      <point x="664" y="560"/>
      <point x="675" y="578" type="qcurve"/>
      <point x="556" y="609"/>
      <point x="423" y="738" type="qcurve"/>
      <point x="390" y="702"/>
      <point x="346" y="669" type="qcurve"/>
      <point x="328" y="649"/>
      <point x="318" y="643" type="qcurve" smooth="yes"/>
      <point x="308" y="637"/>
      <point x="308" y="632" type="qcurve"/>
      <point x="272" y="606"/>
      <point x="253" y="596" type="qcurve" smooth="yes"/>
      <point x="244" y="591"/>
    </contour>
    <contour>
      <point x="491" y="411" type="qcurve"/>
      <point x="313" y="411" type="line"/>
      <point x="317" y="478"/>
      <point x="324" y="535" type="qcurve" smooth="yes"/>
      <point x="330" y="592"/>
      <point x="388" y="572" type="qcurve"/>
      <point x="446" y="547"/>
      <point x="491" y="515" type="qcurve"/>
      <point x="491" y="688"/>
      <point x="491" y="485" type="qcurve" smooth="yes"/>
      <point x="491" y="661"/>
    </contour>
  </outline>
</glyph>
<glyph name="Adieresis" format="2">
  <advance width="700"/>
  <unicode hex="00C4"/>
  <outline>
    <contour>
      <point x="352" y="733" type="curve"/>
      <point x="299" y="746"/>
      <point x="215" y="760"/>
      <point x="215" y="760" type="curve"/>
      <point x="204" y="718"/>
      <point x="200" y="700"/>
      <point x="199" y="697" type="curve" smooth="yes"/>
      <point x="182" y="647"/>
      <point x="172" y="594"/>
      <point x="172" y="594" type="curve"/>
      <point x="236" y="629"/>
      <point x="353" y="733"/>
    </contour>
    <contour>
      <point x="668" y="625" type="curve"/>
      <point x="654" y="679"/>
      <point x="654" y="692"/>
      <point x="639" y="751" type="curve" smooth="yes"/>
      <point x="638" y="755"/>
      <point x="587" y="745"/>
      <point x="585" y="745" type="curve"/>
      <point x="569" y="741"/>
      <point x="508" y="727"/>
      <point x="508" y="727" type="curve"/>
      <point x="582" y="663"/>
      <point x="669" y="623"/>
    </contour>
    <contour>
      <point x="204" y="579" type="qcurve"/>
      <point x="160" y="547"/>
      <point x="107" y="520" type="qcurve"/>
      <point x="143" y="448"/>
      <point x="152" y="345" type="qcurve" smooth="yes"/>
      <point x="160" y="241"/>
      <point x="140" y="155" type="qcurve" smooth="yes"/>
      <point x="119" y="69"/>
      <point x="91" y="-8" type="qcurve" smooth="yes"/>
      <point x="71" y="-65"/>
      <point x="35" y="-111" type="qcurve" smooth="yes"/>
      <point x="25" y="-124"/>
      <point x="10" y="-140" type="qcurve"/>
      <point x="10" y="-138"/>
      <point x="51" y="-166" type="qcurve"/>
      <point x="59" y="-158"/>
      <point x="99" y="-111" type="qcurve" smooth="yes"/>
      <point x="147" y="-56"/>
      <point x="202" y="21" type="qcurve" smooth="yes"/>
      <point x="290" y="143"/>
      <point x="308" y="319" type="qcurve"/>
      <point x="493" y="319" type="line"/>
      <point x="493" y="193"/>
      <point x="482" y="115" type="qcurve"/>
      <point x="544" y="61" type="line"/>
      <point x="595" y="18" type="line"/>
      <point x="682" y="138" type="line"/>
      <point x="653" y="162" type="line"/>
      <point x="632" y="179" type="line" smooth="yes"/>
      <point x="621" y="188"/>
      <point x="621" y="220" type="qcurve" smooth="yes"/>
      <point x="617" y="486" type="line"/>
      <point x="617" y="513" type="line" smooth="yes"/>
      <point x="617" y="530"/>
      <point x="621" y="539" type="qcurve"/>
      <point x="631" y="557"/>
      <point x="648" y="571" type="qcurve" smooth="yes"/>
      <point x="664" y="584"/>
      <point x="675" y="602" type="qcurve"/>
      <point x="556" y="633"/>
      <point x="423" y="762" type="qcurve"/>
      <point x="390" y="726"/>
      <point x="346" y="693" type="qcurve"/>
      <point x="328" y="673"/>
      <point x="318" y="667" type="qcurve" smooth="yes"/>
      <point x="308" y="661"/>
      <point x="308" y="656" type="qcurve"/>
      <point x="272" y="630"/>
      <point x="253" y="620" type="qcurve" smooth="yes"/>
      <point x="244" y="615"/>
    </contour>
    <contour>
      <point x="491" y="435" type="qcurve"/>
      <point x="313" y="435" type="line"/>
      <point x="317" y="502"/>
      <point x="324" y="559" type="qcurve" smooth="yes"/>
      <point x="330" y="616"/>
      <point x="388" y="596" type="qcurve"/>
      <point x="446" y="571"/>
      <point x="491" y="539" type="qcurve"/>
      <point x="491" y="688"/>
      <point x="491" y="509" type="qcurve" smooth="yes"/>
      <point x="491" y="661"/>
    </contour>
  </outline>
</glyph>
<glyph name="AE" format="2">
  <advance width="1000"/>
  <unicode hex="00C6"/>
  <outline>
    <contour>
      <point x="344" y="596" type="qcurve"/>
      <point x="275" y="546"/>
      <point x="121" y="470" type="qcurve"/>
      <point x="157" y="398"/>
      <point x="155" y="242"/>
      <point x="114" y="70"/>
      <point x="58" y="-85"/>
      <point x="1" y="-144" type="qcurve"/>
      <point x="17" y="-154"/>
      <point x="38" y="-170" type="qcurve" smooth="yes"/>
      <point x="109" y="-101"/>
      <point x="288" y="136"/>
      <point x="306" y="312" type="qcurve"/>
      <point x="507" y="309" type="line"/>
      <point x="524" y="305"/>
      <point x="544" y="270" type="qcurve" smooth="yes"/>
      <point x="587" y="195" type="line"/>
      <point x="677" y="139" type="line"/>
      <point x="627" y="180" type="line"/>
      <point x="616" y="189"/>
      <point x="616" y="221" type="qcurve" smooth="yes"/>
      <point x="612" y="487" type="line"/>
      <point x="612" y="514" type="line" smooth="yes"/>
      <point x="612" y="531"/>
      <point x="616" y="540" type="qcurve"/>
      <point x="626" y="558"/>
      <point x="619" y="594"/>
      <point x="630" y="612" type="qcurve" smooth="yes"/>
      <point x="495" y="694"/>
      <point x="303" y="754" type="qcurve"/>
      <point x="162" y="698"/>
      <point x="22" y="581" type="qcurve"/>
      <point x="22" y="560"/>
      <point x="34" y="539"/>
      <point x="34" y="534" type="qcurve"/>
      <point x="191" y="621"/>
      <point x="256" y="615" type="qcurve" smooth="yes"/>
      <point x="312" y="610"/>
    </contour>
    <contour>
      <point x="487" y="427" type="qcurve"/>
      <point x="309" y="427" type="line"/>
      <point x="313" y="494"/>
      <point x="347" y="571"/>
      <point x="383" y="597" type="qcurve"/>
      <point x="441" y="572"/>
      <point x="486" y="540" type="qcurve" smooth="yes"/>
      <point x="486" y="523"/>
      <point x="487" y="487"/>
    </contour>
    <contour>
      <point x="664" y="637" type="line"/>
      <point x="490" y="540" type="line"/>
      <point x="486" y="437" type="line"/>
      <point x="506" y="339" type="line"/>
      <point x="531" y="282" type="line"/>
      <point x="550" y="226" type="line"/>
      <point x="571" y="187" type="line"/>
      <point x="593" y="167" type="line"/>
      <point x="615" y="141" type="line"/>
      <point x="643" y="123" type="line"/>
      <point x="674" y="102" type="line"/>
      <point x="701" y="86" type="line"/>
      <point x="732" y="74" type="line"/>
      <point x="775" y="55" type="line"/>
      <point x="847" y="35" type="line"/>
      <point x="916" y="24" type="line"/>
      <point x="968" y="96" type="line"/>
      <point x="1021" y="170" type="line"/>
      <point x="863" y="179" type="line"/>
      <point x="729" y="243" type="line"/>
      <point x="681" y="291" type="line"/>
      <point x="639" y="361" type="line"/>
      <point x="630" y="452" type="line"/>
      <point x="632" y="525" type="line"/>
      <point x="644" y="555" type="line"/>
      <point x="670" y="581" type="line"/>
      <point x="708" y="617" type="line"/>
      <point x="714" y="581" type="line"/>
      <point x="713" y="519" type="line"/>
      <point x="712" y="421" type="line"/>
      <point x="725" y="308" type="line"/>
      <point x="695" y="291" type="line"/>
      <point x="725" y="249" type="line"/>
      <point x="761" y="262" type="line"/>
      <point x="785" y="273" type="line"/>
      <point x="818" y="285" type="line"/>
      <point x="841" y="291" type="line"/>
      <point x="831" y="351" type="line"/>
      <point x="828" y="425" type="line"/>
      <point x="924" y="423" type="line"/>
      <point x="1029" y="423" type="line"/>
      <point x="1028" y="537" type="line"/>
      <point x="1001" y="537" type="line"/>
      <point x="965" y="537" type="line"/>
      <point x="940" y="537" type="line"/>
      <point x="925" y="537" type="line"/>
      <point x="915" y="537" type="line"/>
      <point x="905" y="537" type="line"/>
      <point x="888" y="537" type="line"/>
      <point x="862" y="537" type="line"/>
      <point x="826" y="537" type="line"/>
      <point x="827" y="570" type="line"/>
      <point x="833" y="617" type="line"/>
      <point x="836" y="631" type="line"/>
      <point x="864" y="628" type="line"/>
      <point x="897" y="617" type="line"/>
      <point x="914" y="611" type="line"/>
      <point x="929" y="600" type="line"/>
      <point x="944" y="593" type="line"/>
      <point x="958" y="587" type="line"/>
      <point x="982" y="571" type="line"/>
      <point x="1063" y="662" type="line"/>
      <point x="952" y="705" type="line"/>
      <point x="854" y="759" type="line"/>
    </contour>
  </outline>
</glyph>
<glyph name="Edieresis" format="2">
  <advance width="700"/>
  <unicode hex="00CB"/>
  <outline>
    <contour>
      <point x="192" y="631" type="line"/>
      <point x="11" y="527" type="line"/>
      <point x="17" y="427" type="line"/>
      <point x="33" y="329" type="line"/>
      <point x="57" y="270" type="line"/>
      <point x="83" y="216" type="line"/>
      <point x="109" y="178" type="line"/>
      <point x="131" y="154" type="line"/>
      <point x="154" y="131" type="line"/>
      <point x="177" y="111" type="line"/>
      <point x="205" y="92" type="line"/>
      <point x="231" y="77" type="line"/>
      <point x="259" y="64" type="line"/>
      <point x="302" y="45" type="line"/>
      <point x="374" y="25" type="line"/>
      <point x="443" y="14" type="line"/>
      <point x="495" y="86" type="line"/>
      <point x="548" y="160" type="line"/>
      <point x="378" y="175" type="line"/>
      <point x="256" y="240" type="line"/>
      <point x="216" y="283" type="line"/>
      <point x="174" y="353" type="line"/>
      <point x="157" y="442" type="line"/>
      <point x="159" y="515" type="line"/>
      <point x="171" y="545" type="line"/>
      <point x="200" y="577" type="line"/>
      <point x="242" y="604" type="line"/>
      <point x="241" y="571" type="line"/>
      <point x="240" y="509" type="line"/>
      <point x="239" y="411" type="line"/>
      <point x="253" y="294" type="line"/>
      <point x="216" y="282" type="line"/>
      <point x="252" y="239" type="line"/>
      <point x="288" y="252" type="line"/>
      <point x="312" y="263" type="line"/>
      <point x="345" y="275" type="line"/>
      <point x="368" y="281" type="line"/>
      <point x="358" y="341" type="line"/>
      <point x="355" y="415" type="line"/>
      <point x="451" y="413" type="line"/>
      <point x="556" y="413" type="line"/>
      <point x="555" y="527" type="line"/>
      <point x="528" y="527" type="line"/>
      <point x="492" y="527" type="line"/>
      <point x="467" y="527" type="line"/>
      <point x="452" y="527" type="line"/>
      <point x="442" y="527" type="line"/>
      <point x="432" y="527" type="line"/>
      <point x="415" y="527" type="line"/>
      <point x="389" y="527" type="line"/>
      <point x="353" y="527" type="line"/>
      <point x="354" y="560" type="line"/>
      <point x="360" y="607" type="line"/>
      <point x="363" y="621" type="line"/>
      <point x="391" y="618" type="line"/>
      <point x="424" y="607" type="line"/>
      <point x="441" y="601" type="line"/>
      <point x="456" y="590" type="line"/>
      <point x="471" y="583" type="line"/>
      <point x="485" y="577" type="line"/>
      <point x="509" y="561" type="line"/>
      <point x="590" y="652" type="line"/>
      <point x="479" y="695" type="line"/>
      <point x="389" y="750" type="line"/>
    </contour>
    <contour>
      <point x="319" y="759" type="curve" smooth="yes"/>
      <point x="292" y="774"/>
      <point x="113" y="816"/>
      <point x="113" y="814" type="curve" smooth="yes"/>
      <point x="107" y="769"/>
      <point x="112" y="733"/>
      <point x="112" y="730" type="curve" smooth="yes"/>
      <point x="119" y="667"/>
      <point x="125" y="638"/>
      <point x="125" y="638" type="curve" smooth="yes"/>
      <point x="187" y="675"/>
      <point x="326" y="755"/>
    </contour>
    <contour>
      <point x="618" y="799" type="curve" smooth="yes"/>
      <point x="581" y="791"/>
      <point x="517" y="778"/>
      <point x="444" y="763" type="curve" smooth="yes"/>
      <point x="442" y="763"/>
      <point x="482" y="719"/>
      <point x="516" y="705" type="curve" smooth="yes"/>
      <point x="544" y="693"/>
      <point x="612" y="675"/>
      <point x="612" y="675" type="curve" smooth="yes"/>
      <point x="611" y="728"/>
      <point x="620" y="799"/>
    </contour>
  </outline>
</glyph>
<glyph name="Thorn" format="2">
  <advance width="630"/>
  <unicode hex="00DE"/>
  <outline>
    <contour>
      <point x="106" y="752" type="line"/>
      <point x="21" y="642" type="line"/>
      <point x="124" y="593" type="line"/>
      <point x="125" y="562"/>
      <point x="125" y="557"/>
      <point x="127" y="529" type="curve" smooth="yes"/>
      <point x="128" y="516"/>
      <point x="132" y="402"/>
      <point x="129" y="260" type="curve"/>
      <point x="25" y="160" type="line"/>
      <point x="125" y="124" type="line"/>
      <point x="119" y="72" type="line"/>
      <point x="116" y="-29"/>
      <point x="93" y="-93"/>
      <point x="75" y="-167" type="curve"/>
      <point x="177" y="-105" type="line"/>
      <point x="292" y="-33" type="line"/>
      <point x="281" y="1" type="line"/>
      <point x="280" y="10"/>
      <point x="274" y="24"/>
      <point x="275" y="31" type="curve"/>
      <point x="274" y="70" type="line"/>
      <point x="365" y="43"/>
      <point x="431" y="15"/>
      <point x="431" y="15" type="curve" smooth="yes"/>
      <point x="537" y="139"/>
      <point x="601" y="301"/>
      <point x="602" y="383" type="curve" smooth="yes"/>
      <point x="603" y="449"/>
      <point x="522" y="547"/>
      <point x="434" y="610" type="curve" smooth="yes"/>
      <point x="431" y="612"/>
      <point x="379" y="564"/>
      <point x="285" y="495" type="curve"/>
      <point x="284" y="513"/>
      <point x="294" y="608"/>
      <point x="294" y="635" type="curve" smooth="yes"/>
      <point x="294" y="652"/>
      <point x="297" y="670"/>
      <point x="295" y="692" type="curve"/>
    </contour>
    <contour>
      <point x="304" y="409" type="curve"/>
      <point x="318" y="419"/>
      <point x="330" y="425"/>
      <point x="345" y="420" type="curve" smooth="yes"/>
      <point x="410" y="401"/>
      <point x="443" y="365"/>
      <point x="458" y="349" type="curve" smooth="yes"/>
      <point x="487" y="318"/>
      <point x="500" y="224"/>
      <point x="493" y="207" type="curve" smooth="yes"/>
      <point x="475" y="161"/>
      <point x="454" y="162"/>
      <point x="433" y="163" type="curve" smooth="yes"/>
      <point x="432" y="163"/>
      <point x="332" y="210"/>
      <point x="271" y="234" type="curve"/>
      <point x="277" y="380" type="line"/>
      <point x="286" y="395"/>
      <point x="293" y="402"/>
    </contour>
  </outline>
</glyph>
<glyph name="germandbls" format="2">
  <advance width="650"/>
  <unicode hex="00DF"/>
  <outline>
    <contour>
      <point x="56" y="28" type="curve"/>
      <point x="19" y="-185" type="line"/>
      <point x="59" y="-205" type="line"/>
      <point x="135" y="-9" type="line"/>
      <point x="150" y="53"/>
      <point x="160" y="51"/>
      <point x="181" y="145" type="curve"/>
      <point x="197" y="234"/>
      <point x="192" y="311"/>
      <point x="196" y="383" type="curve" smooth="yes"/>
      <point x="196" y="384"/>
      <point x="231" y="386"/>
      <point x="296" y="384" type="curve" smooth="yes"/>
      <point x="297" y="384"/>
      <point x="283" y="357"/>
      <point x="266" y="330" type="curve" smooth="yes"/>
      <point x="252" y="307"/>
      <point x="243" y="288"/>
      <point x="209" y="232" type="curve"/>
      <point x="279" y="190" type="line"/>
      <point x="322" y="148"/>
      <point x="338" y="140"/>
      <point x="343" y="84" type="curve" smooth="yes"/>
      <point x="347" y="35"/>
      <point x="320" y="-16"/>
      <point x="292" y="-54" type="curve" smooth="yes"/>
      <point x="250" y="-113"/>
      <point x="222" y="-122"/>
      <point x="170" y="-146" type="curve" smooth="yes"/>
      <point x="165" y="-148"/>
      <point x="172" y="-207"/>
      <point x="172" y="-235" type="curve" smooth="yes"/>
      <point x="172" y="-239"/>
      <point x="387" y="-88"/>
      <point x="431" y="73" type="curve" smooth="yes"/>
      <point x="480" y="255"/>
      <point x="351" y="343"/>
      <point x="357" y="350" type="curve" smooth="yes"/>
      <point x="435" y="450"/>
      <point x="446" y="446"/>
      <point x="418" y="473" type="curve" smooth="yes"/>
      <point x="401" y="489"/>
      <point x="398" y="479"/>
      <point x="190" y="485" type="curve"/>
      <point x="205" y="538"/>
      <point x="153" y="558"/>
      <point x="187" y="588" type="curve" smooth="yes"/>
      <point x="220" y="617"/>
      <point x="268" y="532"/>
      <point x="286" y="536" type="curve" smooth="yes"/>
      <point x="380" y="557"/>
      <point x="436" y="605"/>
      <point x="435" y="605" type="curve" smooth="yes"/>
      <point x="349" y="627"/>
      <point x="211" y="730"/>
      <point x="203" y="718" type="curve" smooth="yes"/>
      <point x="168" y="667"/>
      <point x="40" y="575"/>
      <point x="26" y="541" type="curve" smooth="yes"/>
      <point x="22" y="532"/>
      <point x="125" y="517"/>
    </contour>
  </outline>
</glyph>
<glyph name="aring" format="2">
  <advance width="450"/>
  <unicode hex="00E5"/>
  <outline>
    <contour>
      <point x="136" y="466" type="line"/>
      <point x="112" y="446" type="line"/>
      <point x="87" y="427" type="line"/>
      <point x="70" y="412" type="line"/>
      <point x="51" y="399" type="line"/>
      <point x="18" y="370" type="line"/>
      <point x="36" y="341" type="line"/>
      <point x="38" y="290" type="line"/>
      <point x="38" y="274" type="line"/>
      <point x="38" y="245" type="line"/>
      <point x="39" y="211" type="line"/>
      <point x="39" y="184" type="line"/>
      <point x="37" y="148" type="line"/>
      <point x="30" y="118" type="line"/>
      <point x="19" y="98" type="line"/>
      <point x="61" y="61" type="line"/>
      <point x="154" y="13" type="line"/>
      <point x="207" y="53" type="line"/>
      <point x="261" y="91" type="line"/>
      <point x="335" y="17" type="line"/>
      <point x="358" y="38" type="line"/>
      <point x="380" y="61" type="line"/>
      <point x="400" y="82" type="line"/>
      <point x="413" y="95" type="line"/>
      <point x="433" y="116" type="line"/>
      <point x="417" y="133" type="line"/>
      <point x="399" y="151" type="line"/>
      <point x="385" y="182" type="line"/>
      <point x="384" y="212" type="line"/>
      <point x="385" y="300" type="line"/>
      <point x="384" y="342" type="line"/>
      <point x="392" y="372" type="line"/>
      <point x="404" y="404" type="line"/>
      <point x="425" y="424" type="line"/>
      <point x="376" y="446" type="line"/>
      <point x="321" y="473" type="line"/>
      <point x="208" y="525" type="line"/>
      <point x="199" y="517" type="line"/>
      <point x="187" y="508" type="line"/>
      <point x="172" y="496" type="line"/>
      <point x="158" y="486" type="line"/>
      <point x="151" y="478" type="line"/>
    </contour>
    <contour>
      <point x="262" y="365" type="line"/>
      <point x="261" y="297" type="line"/>
      <point x="261" y="239" type="line"/>
      <point x="261" y="194" type="line"/>
      <point x="266" y="152" type="line"/>
      <point x="249" y="130" type="line"/>
      <point x="219" y="115" type="line"/>
      <point x="197" y="126" type="line"/>
      <point x="177" y="149" type="line"/>
      <point x="166" y="163" type="line"/>
      <point x="158" y="198" type="line"/>
      <point x="157" y="238" type="line"/>
      <point x="155" y="290" type="line"/>
      <point x="160" y="361" type="line"/>
      <point x="186" y="409" type="line"/>
    </contour>
    <contour>
      <point x="206" y="715" type="curve"/>
      <point x="225" y="711"/>
      <point x="231" y="705"/>
      <point x="238" y="700" type="curve"/>
      <point x="254" y="687" type="line"/>
      <point x="277" y="659"/>
      <point x="283" y="633"/>
      <point x="283" y="618" type="curve"/>
      <point x="282" y="611"/>
      <point x="281" y="608"/>
      <point x="272" y="600" type="curve"/>
      <point x="264" y="597"/>
      <point x="254" y="592"/>
      <point x="242" y="596" type="curve"/>
      <point x="227" y="601"/>
      <point x="215" y="600"/>
      <point x="205" y="618" type="curve"/>
      <point x="204" y="623"/>
      <point x="207" y="636"/>
      <point x="206" y="668" type="curve"/>
      <point x="206" y="675"/>
      <point x="206" y="699"/>
    </contour>
    <contour>
      <point x="242" y="771" type="curve"/>
      <point x="231" y="766"/>
      <point x="219" y="759"/>
      <point x="204" y="750" type="curve"/>
      <point x="200" y="748"/>
      <point x="188" y="741"/>
      <point x="164" y="728" type="curve"/>
      <point x="153" y="719"/>
      <point x="143" y="719"/>
      <point x="128" y="707" type="curve"/>
      <point x="128" y="705"/>
      <point x="132" y="673"/>
      <point x="132" y="645" type="curve"/>
      <point x="133" y="628"/>
      <point x="132" y="608"/>
      <point x="112" y="575" type="curve"/>
      <point x="114" y="573"/>
      <point x="150" y="563"/>
      <point x="175" y="550" type="curve"/>
      <point x="206" y="540"/>
      <point x="225" y="529"/>
      <point x="240" y="526" type="curve"/>
      <point x="252" y="543"/>
      <point x="265" y="554"/>
      <point x="282" y="570" type="curve"/>
      <point x="290" y="579"/>
      <point x="302" y="590"/>
      <point x="320" y="607" type="curve"/>
      <point x="327" y="619"/>
      <point x="339" y="618"/>
      <point x="346" y="642" type="curve"/>
      <point x="347" y="661"/>
      <point x="336" y="694"/>
      <point x="315" y="717" type="curve"/>
      <point x="308" y="726"/>
      <point x="300" y="732"/>
      <point x="286" y="746" type="curve"/>
      <point x="271" y="758"/>
      <point x="266" y="761"/>
    </contour>
  </outline>
</glyph>
<glyph name="ae" format="2">
  <advance width="650"/>
  <unicode hex="00E6"/>
  <outline>
    <contour>
      <point x="245" y="493" type="curve"/>
      <point x="205" y="508"/>
      <point x="160" y="529"/>
      <point x="158" y="526" type="curve" smooth="yes"/>
      <point x="150" y="513"/>
      <point x="107" y="443"/>
      <point x="58" y="384" type="curve" smooth="yes"/>
      <point x="57" y="383"/>
      <point x="131" y="388"/>
      <point x="136" y="388" type="curve" smooth="yes"/>
      <point x="138" y="388"/>
      <point x="155" y="387"/>
      <point x="177" y="387" type="curve" smooth="yes"/>
      <point x="183" y="387"/>
      <point x="189" y="387"/>
      <point x="213" y="378" type="curve" smooth="yes"/>
      <point x="225" y="374"/>
      <point x="230" y="369"/>
      <point x="234" y="358" type="curve"/>
      <point x="202" y="326"/>
      <point x="183" y="309"/>
      <point x="158" y="279" type="curve" smooth="yes"/>
      <point x="130" y="246"/>
      <point x="109" y="228"/>
      <point x="38" y="150" type="curve" smooth="yes"/>
      <point x="37" y="149"/>
      <point x="175" y="48"/>
      <point x="230" y="17" type="curve" smooth="yes"/>
      <point x="237" y="13"/>
      <point x="303" y="61"/>
      <point x="339" y="81" type="curve"/>
      <point x="381" y="59"/>
      <point x="397" y="55"/>
      <point x="421" y="43" type="curve" smooth="yes"/>
      <point x="438" y="34"/>
      <point x="496" y="9"/>
      <point x="495" y="14" type="curve"/>
      <point x="593" y="159" type="line"/>
      <point x="569" y="156"/>
      <point x="560" y="156"/>
      <point x="513" y="154" type="curve" smooth="yes"/>
      <point x="480" y="152"/>
      <point x="461" y="153"/>
      <point x="443" y="162" type="curve" smooth="yes"/>
      <point x="439" y="164"/>
      <point x="427" y="169"/>
      <point x="419" y="184" type="curve"/>
      <point x="464" y="230"/>
      <point x="567" y="340"/>
      <point x="586" y="359" type="curve" smooth="yes"/>
      <point x="603" y="377"/>
      <point x="614" y="389"/>
      <point x="613" y="390" type="curve" smooth="yes"/>
      <point x="482" y="485"/>
      <point x="425" y="526"/>
      <point x="424" y="525" type="curve" smooth="yes"/>
      <point x="396" y="509"/>
      <point x="377" y="496"/>
      <point x="318" y="463" type="curve"/>
      <point x="301" y="472"/>
      <point x="277" y="479"/>
    </contour>
    <contour>
      <point x="253" y="319" type="curve"/>
      <point x="256" y="315"/>
      <point x="255" y="312"/>
      <point x="255" y="311" type="curve" smooth="yes"/>
      <point x="266" y="289"/>
      <point x="279" y="205"/>
      <point x="260" y="160" type="curve" smooth="yes"/>
      <point x="254" y="146"/>
      <point x="242" y="138"/>
      <point x="205" y="163" type="curve" smooth="yes"/>
      <point x="188" y="174"/>
      <point x="186" y="182"/>
      <point x="171" y="202" type="curve" smooth="yes"/>
      <point x="151" y="229"/>
      <point x="203" y="260"/>
      <point x="216" y="280" type="curve" smooth="yes"/>
      <point x="222" y="290"/>
      <point x="239" y="303"/>
    </contour>
    <contour>
      <point x="397" y="224" type="curve"/>
      <point x="392" y="252"/>
      <point x="373" y="345"/>
      <point x="390" y="379" type="curve" smooth="yes"/>
      <point x="403" y="404"/>
      <point x="427" y="400"/>
      <point x="453" y="374" type="curve" smooth="yes"/>
      <point x="488" y="339"/>
      <point x="502" y="338"/>
      <point x="474" y="306" type="curve" smooth="yes"/>
      <point x="471" y="302"/>
      <point x="434" y="252"/>
    </contour>
  </outline>
</glyph>
<glyph name="eth" format="2">
  <advance width="430"/>
  <unicode hex="00F0"/>
  <outline>
    <contour>
      <point x="208" y="701" type="curve"/>
      <point x="75" y="635" type="line"/>
      <point x="93" y="621"/>
      <point x="99" y="604"/>
      <point x="102" y="600" type="curve"/>
      <point x="84" y="591" type="line"/>
      <point x="52" y="484" type="line"/>
      <point x="156" y="529" type="line"/>
      <point x="171" y="513"/>
      <point x="165" y="519"/>
      <point x="174" y="499" type="curve"/>
      <point x="143" y="488"/>
      <point x="115" y="473"/>
      <point x="115" y="473" type="curve" smooth="yes"/>
      <point x="73" y="454"/>
      <point x="56" y="445"/>
      <point x="18" y="425" type="curve" smooth="yes"/>
      <point x="15" y="424"/>
      <point x="19" y="417"/>
      <point x="16" y="373" type="curve" smooth="yes"/>
      <point x="15" y="363"/>
      <point x="19" y="306"/>
      <point x="19" y="249" type="curve" smooth="yes"/>
      <point x="19" y="192"/>
      <point x="21" y="129"/>
      <point x="22" y="128" type="curve" smooth="yes"/>
      <point x="60" y="90"/>
      <point x="177" y="36"/>
      <point x="227" y="15" type="curve" smooth="yes"/>
      <point x="228" y="15"/>
      <point x="265" y="98"/>
      <point x="304" y="120" type="curve"/>
      <point x="351" y="159"/>
      <point x="363" y="167"/>
      <point x="401" y="200" type="curve" smooth="yes"/>
      <point x="402" y="201"/>
      <point x="392" y="326"/>
      <point x="358" y="421" type="curve" smooth="yes"/>
      <point x="340" y="472"/>
      <point x="329" y="520"/>
      <point x="290" y="578" type="curve"/>
      <point x="308" y="585" type="line"/>
      <point x="340" y="694" type="line"/>
      <point x="236" y="657" type="line"/>
      <point x="224" y="673"/>
      <point x="219" y="689"/>
    </contour>
    <contour>
      <point x="198" y="462" type="curve"/>
      <point x="209" y="441"/>
      <point x="211" y="430"/>
      <point x="220" y="413" type="curve" smooth="yes"/>
      <point x="229" y="396"/>
      <point x="251" y="324"/>
      <point x="256" y="303" type="curve" smooth="yes"/>
      <point x="267" y="258"/>
      <point x="278" y="176"/>
      <point x="274" y="139" type="curve" smooth="yes"/>
      <point x="274" y="139"/>
      <point x="234" y="146"/>
      <point x="195" y="166" type="curve" smooth="yes"/>
      <point x="172" y="178"/>
      <point x="158" y="187"/>
      <point x="140" y="200" type="curve" smooth="yes"/>
      <point x="140" y="200"/>
      <point x="134" y="257"/>
      <point x="131" y="280" type="curve" smooth="yes"/>
      <point x="128" y="304"/>
      <point x="131" y="325"/>
      <point x="131" y="344" type="curve" smooth="yes"/>
      <point x="131" y="362"/>
      <point x="132" y="378"/>
      <point x="140" y="396" type="curve" smooth="yes"/>
      <point x="150" y="418"/>
      <point x="151" y="423"/>
      <point x="162" y="435" type="curve" smooth="yes"/>
      <point x="173" y="448"/>
      <point x="182" y="457"/>
    </contour>
  </outline>
</glyph>
<glyph name="divide" format="2">
  <advance width="450"/>
  <unicode hex="00F7"/>
  <outline>
    <contour>
      <point x="277" y="206" type="curve" smooth="yes"/>
      <point x="278" y="231"/>
      <point x="261" y="260"/>
      <point x="224" y="260" type="curve" smooth="yes"/>
      <point x="188" y="260"/>
      <point x="172" y="228"/>
      <point x="172" y="206" type="curve" smooth="yes"/>
      <point x="172" y="193"/>
      <point x="188" y="155"/>
      <point x="224" y="155" type="curve" smooth="yes"/>
      <point x="260" y="156"/>
      <point x="276" y="182"/>
    </contour>
    <contour>
      <point x="276" y="465" type="curve" smooth="yes"/>
      <point x="276" y="490"/>
      <point x="260" y="519"/>
      <point x="223" y="519" type="curve" smooth="yes"/>
      <point x="187" y="519"/>
      <point x="170" y="487"/>
      <point x="170" y="465" type="curve" smooth="yes"/>
      <point x="170" y="452"/>
      <point x="186" y="414"/>
      <point x="222" y="415" type="curve" smooth="yes"/>
      <point x="258" y="415"/>
      <point x="275" y="441"/>
    </contour>
    <contour>
      <point x="36" y="360" type="line"/>
      <point x="36" y="300" type="line"/>
      <point x="400" y="300" type="line"/>
      <point x="400" y="360" type="line"/>
    </contour>
  </outline>
</glyph>
<glyph name="thorn" format="2">
  <advance width="620"/>
  <unicode hex="00FE"/>
  <outline>
    <contour>
      <point x="230" y="749" type="curve"/>
      <point x="199" y="737"/>
      <point x="122" y="689"/>
      <point x="23" y="657" type="curve"/>
      <point x="17" y="627" type="line"/>
      <point x="56" y="612"/>
      <point x="62" y="603"/>
      <point x="65" y="568" type="curve" smooth="yes"/>
      <point x="67" y="546"/>
      <point x="68" y="11"/>
      <point x="71" y="-14" type="curve" smooth="yes"/>
      <point x="77" y="-67"/>
      <point x="36" y="-143"/>
      <point x="3" y="-174" type="curve"/>
      <point x="8" y="-180" type="line"/>
      <point x="15" y="-188" type="line"/>
      <point x="27" y="-200" type="line"/>
      <point x="67" y="-175"/>
      <point x="140" y="-136"/>
      <point x="199" y="-129" type="curve" smooth="yes"/>
      <point x="201" y="-129"/>
      <point x="194" y="-75"/>
      <point x="193" y="31" type="curve"/>
      <point x="215" y="19"/>
      <point x="243" y="7"/>
      <point x="244" y="8" type="curve" smooth="yes"/>
      <point x="305" y="88"/>
      <point x="318" y="104"/>
      <point x="331" y="120" type="curve" smooth="yes"/>
      <point x="373" y="172"/>
      <point x="418" y="237"/>
      <point x="417" y="243" type="curve" smooth="yes"/>
      <point x="404" y="366"/>
      <point x="384" y="418"/>
      <point x="340" y="477" type="curve" smooth="yes"/>
      <point x="305" y="524"/>
      <point x="272" y="538"/>
      <point x="271" y="537" type="curve" smooth="yes"/>
      <point x="244" y="516"/>
      <point x="234" y="507"/>
      <point x="191" y="474" type="curve"/>
      <point x="191" y="499" type="line"/>
      <point x="191" y="530" type="line"/>
      <point x="186" y="630"/>
      <point x="201" y="700"/>
      <point x="260" y="730" type="curve" smooth="yes"/>
      <point x="262" y="731"/>
      <point x="237" y="742"/>
    </contour>
    <contour>
      <point x="192" y="414" type="curve"/>
      <point x="254" y="374"/>
      <point x="259" y="380"/>
      <point x="289" y="315" type="curve" smooth="yes"/>
      <point x="334" y="216"/>
      <point x="333" y="165"/>
      <point x="274" y="156" type="curve" smooth="yes"/>
      <point x="211" y="147"/>
      <point x="195" y="178"/>
      <point x="193" y="185" type="curve" smooth="yes"/>
      <point x="184" y="217"/>
      <point x="189" y="240"/>
      <point x="189" y="301" type="curve" smooth="yes"/>
      <point x="189" y="366"/>
      <point x="183" y="371"/>
    </contour>
  </outline>
</glyph>
<glyph name="idotless" format="2">
  <advance width="350"/>
  <unicode hex="0131"/>
  <outline>
    <contour>
      <point x="89" y="525" type="line"/>
      <point x="80" y="517" type="line"/>
      <point x="64" y="497" type="line"/>
      <point x="13" y="433" type="line"/>
      <point x="22" y="428" type="line"/>
      <point x="27" y="425" type="line"/>
      <point x="31" y="421" type="line"/>
      <point x="32" y="420" type="line"/>
      <point x="39" y="415" type="line"/>
      <point x="44" y="406" type="line"/>
      <point x="49" y="398" type="line"/>
      <point x="51" y="386" type="line"/>
      <point x="51" y="371" type="line"/>
      <point x="50" y="353" type="line"/>
      <point x="49" y="314" type="line"/>
      <point x="49" y="194" type="line"/>
      <point x="47" y="178" type="line"/>
      <point x="47" y="166" type="line"/>
      <point x="46" y="160" type="line"/>
      <point x="45" y="151" type="line"/>
      <point x="45" y="144" type="line"/>
      <point x="43" y="139" type="line"/>
      <point x="41" y="134" type="line"/>
      <point x="37" y="128" type="line"/>
      <point x="33" y="122" type="line"/>
      <point x="30" y="116" type="line"/>
      <point x="26" y="109" type="line"/>
      <point x="22" y="103" type="line"/>
      <point x="18" y="99" type="line"/>
      <point x="44" y="78" type="line"/>
      <point x="82" y="46" type="line"/>
      <point x="120" y="16" type="line"/>
      <point x="156" y="57" type="line"/>
      <point x="173" y="80" type="line"/>
      <point x="218" y="134" type="line"/>
      <point x="212" y="137" type="line"/>
      <point x="203" y="142" type="line"/>
      <point x="193" y="151" type="line"/>
      <point x="185" y="158" type="line"/>
      <point x="178" y="168" type="line"/>
      <point x="173" y="176" type="line"/>
      <point x="171" y="191" type="line"/>
      <point x="172" y="210" type="line"/>
      <point x="172" y="228" type="line"/>
      <point x="173" y="244" type="line"/>
      <point x="174" y="292" type="line"/>
      <point x="177" y="354" type="line"/>
      <point x="180" y="418" type="line"/>
      <point x="192" y="455" type="line"/>
      <point x="198" y="476" type="line"/>
      <point x="183" y="482" type="line"/>
      <point x="160" y="494" type="line"/>
      <point x="147" y="500" type="line"/>
      <point x="133" y="506" type="line"/>
      <point x="113" y="516" type="line"/>
    </contour>
  </outline>
</glyph>
<glyph name="lslash" format="2">
  <advance width="300"/>
  <unicode hex="0142"/>
  <outline>
    <contour>
      <point x="203" y="749" type="line"/>
      <point x="188" y="741" type="line"/>
      <point x="171" y="732" type="line"/>
      <point x="144" y="717" type="line"/>
      <point x="116" y="701" type="line"/>
      <point x="85" y="685" type="line"/>
      <point x="42" y="662" type="line"/>
      <point x="48" y="653" type="line"/>
      <point x="54" y="640" type="line"/>
      <point x="59" y="623" type="line"/>
      <point x="62" y="607" type="line"/>
      <point x="63" y="604"/>
      <point x="63" y="599"/>
      <point x="64" y="588" type="curve"/>
      <point x="68" y="402" type="line"/>
      <point x="13" y="374" type="line"/>
      <point x="18" y="290" type="line"/>
      <point x="73" y="311" type="line"/>
      <point x="64" y="227" type="line"/>
      <point x="64" y="213" type="line"/>
      <point x="63" y="202" type="line"/>
      <point x="60" y="188" type="line"/>
      <point x="56" y="175" type="line"/>
      <point x="49" y="161" type="line"/>
      <point x="40" y="148" type="line"/>
      <point x="28" y="134" type="line"/>
      <point x="10" y="117" type="line"/>
      <point x="154" y="7" type="line"/>
      <point x="262" y="127" type="line"/>
      <point x="252" y="133" type="line"/>
      <point x="240" y="140" type="line"/>
      <point x="226" y="149" type="line"/>
      <point x="213" y="157" type="line"/>
      <point x="203" y="164" type="line"/>
      <point x="192" y="171" type="line"/>
      <point x="190" y="173" type="line"/>
      <point x="188" y="176" type="line"/>
      <point x="187" y="180" type="line"/>
      <point x="186" y="186" type="line"/>
      <point x="185" y="193" type="line"/>
      <point x="184" y="203" type="line"/>
      <point x="181" y="377" type="line"/>
      <point x="258" y="426" type="line"/>
      <point x="246" y="509" type="line"/>
      <point x="181" y="472" type="line"/>
      <point x="188" y="625" type="line"/>
      <point x="189" y="649" type="line"/>
      <point x="191" y="669" type="line"/>
      <point x="193" y="686" type="line"/>
      <point x="196" y="709" type="line"/>
      <point x="199" y="726" type="line"/>
    </contour>
  </outline>
</glyph>
<glyph name="OE" format="2">
  <advance width="1200"/>
  <unicode hex="0152"/>
  <outline>
    <contour>
      <point x="462" y="652" type="line"/>
      <point x="460" y="751" type="line"/>
      <point x="374" y="732" type="line"/>
      <point x="317" y="711" type="line"/>
      <point x="259" y="686" type="line"/>
      <point x="211" y="657" type="line"/>
      <point x="166" y="620" type="line"/>
      <point x="120" y="575" type="line"/>
      <point x="81" y="539" type="line"/>
      <point x="56" y="503" type="line"/>
      <point x="20" y="453" type="line"/>
      <point x="28" y="399" type="line"/>
      <point x="39" y="350" type="line"/>
      <point x="56" y="291" type="line"/>
      <point x="74" y="246" type="line"/>
      <point x="100" y="195" type="line"/>
      <point x="129" y="135" type="line"/>
      <point x="174" y="84" type="line"/>
      <point x="230" y="51" type="line"/>
      <point x="285" y="30" type="line"/>
      <point x="376" y="15" type="line"/>
      <point x="458" y="20" type="line"/>
      <point x="470" y="37" type="line"/>
    </contour>
    <contour>
      <point x="218" y="323" type="line"/>
      <point x="206" y="400" type="line"/>
      <point x="204" y="455" type="line"/>
      <point x="217" y="529" type="line"/>
      <point x="266" y="603" type="line"/>
      <point x="304" y="635" type="line"/>
      <point x="317" y="565" type="line"/>
      <point x="321" y="511" type="line"/>
      <point x="325" y="339" type="line"/>
      <point x="322" y="262" type="line"/>
      <point x="316" y="215" type="line"/>
      <point x="306" y="175" type="line"/>
      <point x="345" y="145" type="line"/>
      <point x="382" y="178" type="line"/>
      <point x="410" y="204" type="line"/>
      <point x="446" y="222" type="line"/>
      <point x="481" y="236" type="line"/>
      <point x="500" y="237" type="line"/>
      <point x="491" y="237" type="line"/>
      <point x="480" y="233" type="line"/>
      <point x="446" y="222" type="line"/>
      <point x="412" y="203" type="line"/>
      <point x="400" y="197" type="line"/>
      <point x="423" y="160" type="line"/>
      <point x="455" y="132" type="line"/>
      <point x="471" y="115" type="line"/>
      <point x="397" y="121" type="line"/>
      <point x="345" y="145" type="line"/>
      <point x="306" y="175" type="line"/>
      <point x="244" y="249" type="line"/>
    </contour>
    <contour>
      <point x="464" y="614" type="line"/>
      <point x="467" y="28" type="line"/>
      <point x="554" y="61" type="line"/>
      <point x="679" y="30" type="line"/>
      <point x="748" y="19" type="line"/>
      <point x="800" y="91" type="line"/>
      <point x="853" y="165" type="line"/>
      <point x="695" y="174" type="line"/>
      <point x="561" y="238" type="line"/>
      <point x="521" y="288" type="line"/>
      <point x="479" y="358" type="line"/>
      <point x="464" y="438" type="line"/>
      <point x="464" y="520" type="line"/>
      <point x="484" y="560" type="line"/>
      <point x="502" y="576" type="line"/>
      <point x="540" y="612" type="line"/>
      <point x="546" y="576" type="line"/>
      <point x="545" y="514" type="line"/>
      <point x="544" y="416" type="line"/>
      <point x="557" y="303" type="line"/>
      <point x="527" y="286" type="line"/>
      <point x="557" y="244" type="line"/>
      <point x="593" y="257" type="line"/>
      <point x="617" y="268" type="line"/>
      <point x="650" y="280" type="line"/>
      <point x="673" y="286" type="line"/>
      <point x="663" y="346" type="line"/>
      <point x="660" y="420" type="line"/>
      <point x="756" y="418" type="line"/>
      <point x="861" y="418" type="line"/>
      <point x="860" y="532" type="line"/>
      <point x="833" y="532" type="line"/>
      <point x="797" y="532" type="line"/>
      <point x="772" y="532" type="line"/>
      <point x="757" y="532" type="line"/>
      <point x="747" y="532" type="line"/>
      <point x="737" y="532" type="line"/>
      <point x="720" y="532" type="line"/>
      <point x="694" y="532" type="line"/>
      <point x="658" y="532" type="line"/>
      <point x="659" y="565" type="line"/>
      <point x="665" y="612" type="line"/>
      <point x="668" y="626" type="line"/>
      <point x="696" y="623" type="line"/>
      <point x="729" y="612" type="line"/>
      <point x="746" y="606" type="line"/>
      <point x="761" y="595" type="line"/>
      <point x="776" y="588" type="line"/>
      <point x="790" y="582" type="line"/>
      <point x="814" y="566" type="line"/>
      <point x="895" y="657" type="line"/>
      <point x="784" y="700" type="line"/>
      <point x="686" y="754" type="line"/>
    </contour>
  </outline>
</glyph>
<glyph name="fhook" format="2">
  <advance width="600"/>
  <unicode hex="0192"/>
  <outline>
    <contour>
      <point x="529" y="580" type="curve"/>
      <point x="543" y="600"/>
      <point x="531" y="628"/>
      <point x="510" y="648" type="curve" smooth="yes"/>
      <point x="468" y="688"/>
      <point x="393" y="692"/>
      <point x="334" y="668" type="curve" smooth="yes"/>
      <point x="289" y="650"/>
      <point x="293" y="644"/>
      <point x="254" y="609" type="curve" smooth="yes"/>
      <point x="220" y="578"/>
      <point x="187" y="539"/>
      <point x="165" y="395" type="curve"/>
      <point x="93" y="395" type="line"/>
      <point x="87" y="389" type="line"/>
      <point x="79" y="358" type="line"/>
      <point x="85" y="353" type="line"/>
      <point x="160" y="353" type="line"/>
      <point x="160" y="318"/>
      <point x="146" y="159"/>
      <point x="139" y="128" type="curve" smooth="yes"/>
      <point x="134" y="107"/>
      <point x="130" y="-35"/>
      <point x="89" y="-86" type="curve"/>
      <point x="36" y="-96"/>
      <point x="34" y="-56"/>
      <point x="16" y="-22" type="curve" smooth="yes"/>
      <point x="6" y="-3"/>
      <point x="-37" y="1"/>
      <point x="-55" y="-16" type="curve" smooth="yes"/>
      <point x="-73" y="-33"/>
      <point x="-67" y="-75"/>
      <point x="-53" y="-94" type="curve" smooth="yes"/>
      <point x="-38" y="-115"/>
      <point x="37" y="-145"/>
      <point x="95" y="-122" type="curve" smooth="yes"/>
      <point x="137" y="-106"/>
      <point x="195" y="-82"/>
      <point x="234" y="22" type="curve" smooth="yes"/>
      <point x="248" y="60"/>
      <point x="257" y="45"/>
      <point x="296" y="353" type="curve"/>
      <point x="411" y="352" type="line"/>
      <point x="418" y="393" type="line"/>
      <point x="299" y="395" type="line"/>
      <point x="302" y="424"/>
      <point x="305" y="466"/>
      <point x="311" y="512" type="curve" smooth="yes"/>
      <point x="320" y="585"/>
      <point x="353" y="637"/>
      <point x="389" y="640" type="curve" smooth="yes"/>
      <point x="438" y="645"/>
      <point x="418" y="581"/>
      <point x="451" y="564" type="curve" smooth="yes"/>
      <point x="485" y="546"/>
      <point x="504" y="556"/>
    </contour>
  </outline>
</glyph>
<glyph name="jdotless" format="2">
  <advance width="300"/>
  <unicode hex="0237"/>
  <anchor x="93" y="609" name="top"/>
  <outline>
    <contour>
      <point x="192" y="486" type="line"/>
      <point x="160" y="503" type="line"/>
      <point x="105" y="527" type="line"/>
      <point x="77" y="497" type="line"/>
      <point x="52" y="467" type="line"/>
      <point x="27" y="432" type="line"/>
      <point x="38" y="428" type="line"/>
      <point x="50" y="419" type="line"/>
      <point x="60" y="406" type="line"/>
      <point x="64" y="398" type="line"/>
      <point x="65" y="366" type="line"/>
      <point x="64" y="323" type="line"/>
      <point x="64" y="299" type="line"/>
      <point x="63" y="263" type="line"/>
      <point x="61" y="198" type="line"/>
      <point x="57" y="113" type="line"/>
      <point x="55" y="80" type="line"/>
      <point x="54" y="61" type="line"/>
      <point x="52" y="36" type="line"/>
      <point x="50" y="19" type="line"/>
      <point x="48" y="-3" type="line"/>
      <point x="46" y="-17" type="line"/>
      <point x="43" y="-42" type="line"/>
      <point x="39" y="-59" type="line"/>
      <point x="35" y="-81" type="line"/>
      <point x="32" y="-97" type="line"/>
      <point x="28" y="-115" type="line"/>
      <point x="26" y="-125" type="line"/>
      <point x="24" y="-133" type="line"/>
      <point x="23" y="-137" type="line"/>
      <point x="22" y="-141" type="line"/>
      <point x="21" y="-145" type="line"/>
      <point x="20" y="-149" type="line"/>
      <point x="18" y="-157" type="line"/>
      <point x="17" y="-160" type="line"/>
      <point x="16" y="-164" type="line"/>
      <point x="15" y="-169" type="line"/>
      <point x="19" y="-170" type="line"/>
      <point x="26" y="-172" type="line"/>
      <point x="29" y="-173" type="line"/>
      <point x="32" y="-174" type="line"/>
      <point x="38" y="-176" type="line"/>
      <point x="40" y="-177" type="line"/>
      <point x="47" y="-180" type="line"/>
      <point x="50" y="-182" type="line"/>
      <point x="57" y="-185" type="line"/>
      <point x="62" y="-189" type="line"/>
      <point x="67" y="-191" type="line"/>
      <point x="71" y="-185" type="line"/>
      <point x="77" y="-172" type="line"/>
      <point x="81" y="-164" type="line"/>
      <point x="87" y="-153" type="line"/>
      <point x="90" y="-142" type="line"/>
      <point x="104" y="-95" type="line"/>
      <point x="129" y="-33" type="line"/>
      <point x="153" y="37" type="line"/>
      <point x="167" y="93" type="line"/>
      <point x="175" y="144" type="line"/>
      <point x="188" y="200" type="line"/>
      <point x="188" y="233" type="line"/>
      <point x="188" y="301" type="line"/>
      <point x="189" y="365" type="line"/>
      <point x="193" y="416" type="line"/>
      <point x="206" y="452" type="line"/>
      <point x="212" y="475" type="line"/>
    </contour>
  </outline>
</glyph>
<glyph name="caron" format="2">
  <advance width="200"/>
  <unicode hex="02C7"/>
  <outline>
    <contour>
      <point x="48" y="652" type="curve"/>
      <point x="50" y="650"/>
      <point x="56" y="641"/>
      <point x="66" y="641" type="curve" smooth="yes"/>
      <point x="76" y="641"/>
      <point x="114" y="641"/>
      <point x="120" y="641" type="curve" smooth="yes"/>
      <point x="126" y="641"/>
      <point x="132" y="642"/>
      <point x="139" y="648" type="curve" smooth="yes"/>
      <point x="146" y="654"/>
      <point x="232" y="739"/>
      <point x="238" y="745" type="curve" smooth="yes"/>
      <point x="244" y="751"/>
      <point x="241" y="758"/>
      <point x="235" y="757" type="curve" smooth="yes"/>
      <point x="229" y="756"/>
      <point x="208" y="757"/>
      <point x="204" y="757" type="curve" smooth="yes"/>
      <point x="200" y="757"/>
      <point x="195" y="758"/>
      <point x="190" y="755" type="curve" smooth="yes"/>
      <point x="187" y="753"/>
      <point x="156" y="734"/>
      <point x="97" y="698" type="curve"/>
      <point x="94" y="700" type="line"/>
      <point x="3" y="751" type="line"/>
      <point x="-1" y="754"/>
      <point x="-8" y="759"/>
      <point x="-12" y="758" type="curve" smooth="yes"/>
      <point x="-16" y="757"/>
      <point x="-35" y="758"/>
      <point x="-38" y="757" type="curve" smooth="yes"/>
      <point x="-41" y="756"/>
      <point x="-50" y="751"/>
      <point x="-47" y="748" type="curve" smooth="yes"/>
      <point x="-45" y="746"/>
      <point x="-13" y="714"/>
    </contour>
  </outline>
</glyph>
<glyph name="ring" format="2">
  <advance width="300"/>
  <unicode hex="02DA"/>
  <outline>
    <contour>
      <point x="113" y="664" type="curve"/>
      <point x="119" y="662"/>
      <point x="122" y="661"/>
      <point x="130" y="656" type="curve"/>
      <point x="146" y="644" type="line"/>
      <point x="169" y="618"/>
      <point x="176" y="612"/>
      <point x="193" y="555" type="curve"/>
      <point x="197" y="544"/>
      <point x="201" y="519"/>
      <point x="187" y="505" type="curve"/>
      <point x="175" y="493"/>
      <point x="162" y="487"/>
      <point x="135" y="503" type="curve"/>
      <point x="132" y="505"/>
      <point x="119" y="508"/>
      <point x="113" y="523" type="curve"/>
      <point x="108" y="526"/>
      <point x="111" y="550"/>
      <point x="112" y="606" type="curve"/>
      <point x="112" y="615"/>
      <point x="111" y="646"/>
    </contour>
    <contour>
      <point x="151" y="744" type="curve"/>
      <point x="141" y="736"/>
      <point x="138" y="734"/>
      <point x="121" y="721" type="curve"/>
      <point x="115" y="718"/>
      <point x="107" y="710"/>
      <point x="79" y="690" type="curve"/>
      <point x="74" y="686"/>
      <point x="52" y="670"/>
      <point x="26" y="651" type="curve"/>
      <point x="31" y="637"/>
      <point x="31" y="611"/>
      <point x="31" y="571" type="curve"/>
      <point x="33" y="545"/>
      <point x="29" y="502"/>
      <point x="9" y="467" type="curve"/>
      <point x="33" y="455"/>
      <point x="49" y="449"/>
      <point x="77" y="435" type="curve"/>
      <point x="111" y="418"/>
      <point x="133" y="406"/>
      <point x="148" y="399" type="curve"/>
      <point x="155" y="409"/>
      <point x="162" y="418"/>
      <point x="179" y="439" type="curve"/>
      <point x="192" y="455"/>
      <point x="196" y="462"/>
      <point x="226" y="498" type="curve"/>
      <point x="229" y="504"/>
      <point x="243" y="519"/>
      <point x="263" y="549" type="curve"/>
      <point x="268" y="585"/>
      <point x="259" y="622"/>
      <point x="236" y="661" type="curve"/>
      <point x="227" y="675"/>
      <point x="217" y="689"/>
      <point x="206" y="701" type="curve"/>
      <point x="183" y="724"/>
      <point x="176" y="732"/>
    </contour>
  </outline>
</glyph>
<glyph name="ogonek" format="2">
  <advance width="300"/>
  <unicode hex="02DB"/>
  <outline>
    <contour>
      <point x="147" y="0" type="curve"/>
      <point x="98" y="0" type="line"/>
      <point x="70" y="-15"/>
      <point x="61" y="-30"/>
      <point x="32" y="-65" type="curve" smooth="yes"/>
      <point x="3" y="-100"/>
      <point x="-11" y="-167"/>
      <point x="11" y="-198" type="curve" smooth="yes"/>
      <point x="33" y="-229"/>
      <point x="156" y="-238"/>
      <point x="226" y="-217" type="curve" smooth="yes"/>
      <point x="249" y="-210"/>
      <point x="291" y="-187"/>
      <point x="320" y="-147" type="curve"/>
      <point x="224" y="-123" type="line"/>
      <point x="198" y="-142"/>
      <point x="185" y="-159"/>
      <point x="161" y="-169" type="curve" smooth="yes"/>
      <point x="122" y="-184"/>
      <point x="95" y="-171"/>
      <point x="82" y="-147" type="curve" smooth="yes"/>
      <point x="73" y="-131"/>
      <point x="20" y="-66"/>
    </contour>
  </outline>
</glyph>
<glyph name="hungarumlaut" format="2">
  <advance width="500"/>
  <unicode hex="02DD"/>
  <anchor x="143" y="605" name="_top"/>
  <outline>
    <contour>
      <point x="120" y="643" type="line"/>
      <point x="143" y="572" type="line"/>
      <point x="189" y="602"/>
      <point x="191" y="601"/>
      <point x="196" y="608" type="curve" smooth="yes"/>
      <point x="202" y="617"/>
      <point x="241" y="795"/>
      <point x="256" y="813" type="curve" smooth="yes"/>
      <point x="257" y="815"/>
      <point x="173" y="829"/>
      <point x="144" y="832" type="curve" smooth="yes"/>
      <point x="143" y="832"/>
      <point x="117" y="766"/>
      <point x="120" y="644" type="curve"/>
    </contour>
    <contour>
      <point x="309" y="632" type="line"/>
      <point x="324" y="569" type="line"/>
      <point x="377" y="593"/>
      <point x="378" y="594"/>
      <point x="383" y="601" type="curve" smooth="yes"/>
      <point x="389" y="610"/>
      <point x="430" y="784"/>
      <point x="445" y="802" type="curve" smooth="yes"/>
      <point x="446" y="804"/>
      <point x="362" y="818"/>
      <point x="333" y="821" type="curve" smooth="yes"/>
      <point x="332" y="821"/>
      <point x="306" y="755"/>
      <point x="309" y="633" type="curve"/>
    </contour>
  </outline>
</glyph>
<glyph name="acutecomb" format="2">
  <unicode hex="0301"/>
  <outline>
    <contour>
      <point x="-132" y="661" type="line"/>
      <point x="-118" y="681" type="line"/>
      <point x="-72" y="737"/>
      <point x="-44" y="771"/>
      <point x="-39" y="778" type="curve" smooth="yes"/>
      <point x="-33" y="787"/>
      <point x="-11" y="813"/>
      <point x="4" y="831" type="curve" smooth="yes"/>
      <point x="5" y="833"/>
      <point x="-79" y="847"/>
      <point x="-108" y="850" type="curve" smooth="yes"/>
      <point x="-109" y="850"/>
      <point x="-135" y="784"/>
      <point x="-132" y="662" type="curve"/>
    </contour>
  </outline>
</glyph>
